%TF.GenerationSoftware,KiCad,Pcbnew,10.0.4*%
%TF.CreationDate,2026-07-23T15:45:35-06:00*%
%TF.ProjectId,Square Connector,53717561-7265-4204-936f-6e6e6563746f,rev?*%
%TF.SameCoordinates,Original*%
%TF.FileFunction,Legend,Bot*%
%TF.FilePolarity,Positive*%
%FSLAX46Y46*%
G04 Gerber Fmt 4.6, Leading zero omitted, Abs format (unit mm)*
G04 Created by KiCad (PCBNEW 10.0.4) date 2026-07-23 15:45:35*
%MOMM*%
%LPD*%
G01*
G04 APERTURE LIST*
%ADD10C,0.200000*%
%ADD11C,0.000000*%
G04 APERTURE END LIST*
D10*
X124273810Y-138158316D02*
X125226191Y-138158316D01*
X124750000Y-137682126D02*
X124750000Y-138634507D01*
X126773810Y-138158316D02*
X127726191Y-138158316D01*
X124273810Y-153658316D02*
X125226191Y-153658316D01*
X124750000Y-153182126D02*
X124750000Y-154134507D01*
X126773810Y-153658316D02*
X127726191Y-153658316D01*
X124273810Y-122658316D02*
X125226191Y-122658316D01*
X124750000Y-122182126D02*
X124750000Y-123134507D01*
X126773810Y-122658316D02*
X127726191Y-122658316D01*
X124273810Y-107408316D02*
X125226191Y-107408316D01*
X124750000Y-106932126D02*
X124750000Y-107884507D01*
X126773810Y-107408316D02*
X127726191Y-107408316D01*
X105976189Y-122591683D02*
X105023809Y-122591683D01*
X105499999Y-123067873D02*
X105499999Y-122115492D01*
X103476189Y-122591683D02*
X102523809Y-122591683D01*
X105976189Y-107341683D02*
X105023809Y-107341683D01*
X105499999Y-107817873D02*
X105499999Y-106865492D01*
X103476189Y-107341683D02*
X102523809Y-107341683D01*
X105976189Y-138341683D02*
X105023809Y-138341683D01*
X105499999Y-138817873D02*
X105499999Y-137865492D01*
X103476189Y-138341683D02*
X102523809Y-138341683D01*
X105976189Y-153591683D02*
X105023809Y-153591683D01*
X105499999Y-154067873D02*
X105499999Y-153115492D01*
X103476189Y-153591683D02*
X102523809Y-153591683D01*
X122591683Y-154273810D02*
X122591683Y-155226191D01*
X123067873Y-154750000D02*
X122115492Y-154750000D01*
X122591683Y-156773810D02*
X122591683Y-157726191D01*
X107391683Y-154273810D02*
X107391683Y-155226191D01*
X107867873Y-154750000D02*
X106915492Y-154750000D01*
X107391683Y-156773810D02*
X107391683Y-157726191D01*
X122608316Y-105726189D02*
X122608316Y-104773809D01*
X122132126Y-105249999D02*
X123084507Y-105249999D01*
X122608316Y-103226189D02*
X122608316Y-102273809D01*
X107408316Y-105726189D02*
X107408316Y-104773809D01*
X106932126Y-105249999D02*
X107884507Y-105249999D01*
X107408316Y-103226189D02*
X107408316Y-102273809D01*
D11*
G36*
X115047450Y-112662831D02*
G01*
X114977015Y-112692483D01*
X114906394Y-112723933D01*
X114835277Y-112757244D01*
X114763353Y-112792477D01*
X114690314Y-112829694D01*
X114615848Y-112868958D01*
X114539646Y-112910330D01*
X114461398Y-112953873D01*
X114827845Y-112222300D01*
X115047450Y-112662831D01*
G37*
G36*
X114841871Y-114017309D02*
G01*
X114856504Y-114018727D01*
X114871027Y-114021091D01*
X114885387Y-114024401D01*
X114899527Y-114028657D01*
X114913393Y-114033858D01*
X114926931Y-114040005D01*
X114940086Y-114047098D01*
X114952803Y-114055136D01*
X114965027Y-114064120D01*
X114976704Y-114074049D01*
X114987779Y-114084925D01*
X114998196Y-114096746D01*
X115007902Y-114109512D01*
X115016842Y-114123225D01*
X115024960Y-114137883D01*
X116324064Y-116700373D01*
X116229177Y-116757290D01*
X116142297Y-116807146D01*
X116062441Y-116850165D01*
X115988622Y-116886573D01*
X115919858Y-116916593D01*
X115855162Y-116940451D01*
X115824033Y-116950139D01*
X115793553Y-116958371D01*
X115763597Y-116965174D01*
X115734043Y-116970578D01*
X115704769Y-116974610D01*
X115675650Y-116977297D01*
X115646565Y-116978669D01*
X115617389Y-116978753D01*
X115588000Y-116977578D01*
X115558275Y-116975171D01*
X115497324Y-116966775D01*
X115433551Y-116953790D01*
X115365973Y-116936441D01*
X115293604Y-116914952D01*
X115215460Y-116889550D01*
X115175240Y-116875217D01*
X115135904Y-116859582D01*
X115059666Y-116824866D01*
X114986311Y-116786329D01*
X114915406Y-116744897D01*
X114846516Y-116701496D01*
X114779208Y-116657052D01*
X114647598Y-116568742D01*
X114582429Y-116526729D01*
X114517105Y-116487378D01*
X114451192Y-116451616D01*
X114384255Y-116420369D01*
X114350268Y-116406728D01*
X114315861Y-116394564D01*
X114280982Y-116383991D01*
X114245576Y-116375127D01*
X114209589Y-116368085D01*
X114172966Y-116362983D01*
X114135653Y-116359936D01*
X114097596Y-116359060D01*
X114068181Y-116359803D01*
X114038982Y-116361747D01*
X114010012Y-116364836D01*
X113981285Y-116369016D01*
X113952814Y-116374232D01*
X113924615Y-116380428D01*
X113896699Y-116387551D01*
X113869082Y-116395544D01*
X113814798Y-116413923D01*
X113761872Y-116435126D01*
X113710415Y-116458712D01*
X113660537Y-116484241D01*
X113612349Y-116511275D01*
X113565961Y-116539372D01*
X113521484Y-116568094D01*
X113479028Y-116596999D01*
X113400622Y-116653603D01*
X113331626Y-116705664D01*
X113330303Y-116705664D01*
X114629407Y-114137883D01*
X114637525Y-114123225D01*
X114646465Y-114109512D01*
X114656171Y-114096746D01*
X114666588Y-114084925D01*
X114677663Y-114074049D01*
X114689340Y-114064120D01*
X114701564Y-114055136D01*
X114714281Y-114047098D01*
X114727435Y-114040005D01*
X114740974Y-114033858D01*
X114754840Y-114028657D01*
X114768980Y-114024401D01*
X114783339Y-114021091D01*
X114797863Y-114018727D01*
X114812496Y-114017309D01*
X114827183Y-114016836D01*
X114841871Y-114017309D01*
G37*
G36*
X118284626Y-117691237D02*
G01*
X117354616Y-117294362D01*
X115048000Y-112663935D01*
X115108004Y-112640032D01*
X115168744Y-112617273D01*
X115229857Y-112595879D01*
X115291528Y-112575849D01*
X115353942Y-112557184D01*
X115417287Y-112539882D01*
X115481749Y-112523945D01*
X115547512Y-112509373D01*
X118284626Y-117691237D01*
G37*
G36*
X112531263Y-116807529D02*
G01*
X112511419Y-116796946D01*
X112427083Y-116754884D01*
X112343739Y-116716930D01*
X112261388Y-116682976D01*
X112180028Y-116652913D01*
X112099661Y-116626633D01*
X112020286Y-116604027D01*
X111941903Y-116584987D01*
X111864512Y-116569404D01*
X111864511Y-116569405D01*
X113556523Y-113472457D01*
X114461398Y-112953873D01*
X112531263Y-116807529D01*
G37*
G36*
X117405078Y-117700137D02*
G01*
X117407659Y-117700534D01*
X117410257Y-117701162D01*
X117412863Y-117702028D01*
X117415470Y-117703142D01*
X120103637Y-118930809D01*
X120103637Y-118929487D01*
X120105338Y-118930273D01*
X120106969Y-118931141D01*
X120108528Y-118932087D01*
X120110014Y-118933107D01*
X120111426Y-118934198D01*
X120112764Y-118935356D01*
X120114027Y-118936577D01*
X120115212Y-118937859D01*
X120116321Y-118939196D01*
X120117351Y-118940586D01*
X120118301Y-118942025D01*
X120119171Y-118943509D01*
X120119959Y-118945035D01*
X120120666Y-118946599D01*
X120121288Y-118948198D01*
X120121827Y-118949827D01*
X120122280Y-118951483D01*
X120122647Y-118953163D01*
X120122927Y-118954862D01*
X120123119Y-118956578D01*
X120123221Y-118958307D01*
X120123234Y-118960044D01*
X120123155Y-118961787D01*
X120122985Y-118963531D01*
X120122721Y-118965274D01*
X120122363Y-118967011D01*
X120121911Y-118968738D01*
X120121362Y-118970453D01*
X120120716Y-118972151D01*
X120119973Y-118973830D01*
X120119131Y-118975484D01*
X120118189Y-118977111D01*
X120065195Y-119062256D01*
X120012480Y-119144068D01*
X119960199Y-119222561D01*
X119908507Y-119297753D01*
X119857559Y-119369658D01*
X119807510Y-119438292D01*
X119758516Y-119503671D01*
X119710731Y-119565809D01*
X119655191Y-119636071D01*
X119599792Y-119703992D01*
X119544671Y-119769588D01*
X119489969Y-119832873D01*
X119435825Y-119893864D01*
X119382379Y-119952577D01*
X119329770Y-120009025D01*
X119278137Y-120063226D01*
X119222339Y-120120223D01*
X119167115Y-120175157D01*
X119112542Y-120228076D01*
X119058698Y-120279027D01*
X119005660Y-120328055D01*
X118953506Y-120375207D01*
X118902312Y-120420529D01*
X118852158Y-120464069D01*
X118850643Y-120465259D01*
X118849079Y-120466349D01*
X118847470Y-120467338D01*
X118845820Y-120468229D01*
X118844134Y-120469021D01*
X118842417Y-120469714D01*
X118840674Y-120470310D01*
X118838908Y-120470808D01*
X118837125Y-120471209D01*
X118835329Y-120471514D01*
X118833525Y-120471723D01*
X118831717Y-120471836D01*
X118829911Y-120471855D01*
X118828109Y-120471779D01*
X118826318Y-120471609D01*
X118824542Y-120471345D01*
X118822785Y-120470989D01*
X118821052Y-120470540D01*
X118819348Y-120469999D01*
X118817677Y-120469366D01*
X118816043Y-120468642D01*
X118814453Y-120467828D01*
X118812909Y-120466923D01*
X118811416Y-120465929D01*
X118809980Y-120464846D01*
X118808605Y-120463674D01*
X118807295Y-120462414D01*
X118806055Y-120461067D01*
X118804889Y-120459632D01*
X118803803Y-120458110D01*
X118802801Y-120456502D01*
X118801887Y-120454808D01*
X117373137Y-117748122D01*
X117371899Y-117745511D01*
X117370909Y-117742893D01*
X117370158Y-117740277D01*
X117369639Y-117737671D01*
X117369342Y-117735082D01*
X117369259Y-117732521D01*
X117369384Y-117729995D01*
X117369706Y-117727514D01*
X117370218Y-117725084D01*
X117370912Y-117722715D01*
X117371779Y-117720415D01*
X117372812Y-117718194D01*
X117374001Y-117716058D01*
X117375339Y-117714017D01*
X117376818Y-117712079D01*
X117378429Y-117710253D01*
X117380164Y-117708547D01*
X117382014Y-117706970D01*
X117383973Y-117705530D01*
X117386030Y-117704235D01*
X117388179Y-117703095D01*
X117390411Y-117702117D01*
X117392717Y-117701310D01*
X117395089Y-117700682D01*
X117397520Y-117700243D01*
X117400000Y-117700000D01*
X117402523Y-117699962D01*
X117405078Y-117700137D01*
G37*
G36*
X112235201Y-117733251D02*
G01*
X112237397Y-117733641D01*
X112239583Y-117734242D01*
X112241751Y-117735039D01*
X112243891Y-117736020D01*
X112245995Y-117737173D01*
X112248056Y-117738484D01*
X112250065Y-117739940D01*
X112252015Y-117741530D01*
X112253895Y-117743239D01*
X112255700Y-117745055D01*
X112257419Y-117746966D01*
X112259046Y-117748958D01*
X112260571Y-117751018D01*
X112261987Y-117753134D01*
X112263284Y-117755293D01*
X112264457Y-117757482D01*
X112265494Y-117759689D01*
X112266390Y-117761899D01*
X112267134Y-117764102D01*
X112267720Y-117766282D01*
X112268139Y-117768429D01*
X112268382Y-117770529D01*
X112268442Y-117772569D01*
X112268310Y-117774536D01*
X112267977Y-117776418D01*
X112267437Y-117778201D01*
X112266680Y-117779873D01*
X110810149Y-120503759D01*
X110726810Y-120434288D01*
X110640774Y-120359747D01*
X110552443Y-120280029D01*
X110462222Y-120195023D01*
X110370511Y-120104623D01*
X110277716Y-120008720D01*
X110184238Y-119907204D01*
X110090482Y-119799968D01*
X110000040Y-119691321D01*
X109915133Y-119583898D01*
X109835590Y-119478057D01*
X109761241Y-119374154D01*
X109691914Y-119272545D01*
X109627440Y-119173588D01*
X109567648Y-119077637D01*
X109512985Y-118986087D01*
X112224346Y-117734894D01*
X112226472Y-117734043D01*
X112228629Y-117733466D01*
X112230808Y-117733150D01*
X112233002Y-117733083D01*
X112235201Y-117733251D01*
G37*
G36*
X109512985Y-118986087D02*
G01*
X109512367Y-118986373D01*
X109512367Y-118985051D01*
X109512985Y-118986087D01*
G37*
G36*
X115048000Y-112663935D02*
G01*
X115047450Y-112664154D01*
X115047450Y-112662831D01*
X115048000Y-112663935D01*
G37*
G36*
X116497035Y-118419503D02*
G01*
X116536799Y-118421505D01*
X116572493Y-118424108D01*
X116630154Y-118430045D01*
X116679929Y-118437362D01*
X116708778Y-118441590D01*
X116737274Y-118446318D01*
X116793162Y-118457165D01*
X116847500Y-118469686D01*
X116900194Y-118483664D01*
X116951153Y-118498883D01*
X117000281Y-118515125D01*
X117047488Y-118532173D01*
X117092679Y-118549810D01*
X117114809Y-118558856D01*
X117136521Y-118568104D01*
X117157768Y-118577506D01*
X117178503Y-118587017D01*
X117198680Y-118596591D01*
X117218252Y-118606179D01*
X117237174Y-118615737D01*
X117255397Y-118625217D01*
X117255521Y-118625337D01*
X117255645Y-118625450D01*
X117255768Y-118625555D01*
X117255891Y-118625654D01*
X117256012Y-118625745D01*
X117256133Y-118625830D01*
X117256252Y-118625909D01*
X117256369Y-118625981D01*
X117256484Y-118626048D01*
X117256597Y-118626110D01*
X117256708Y-118626166D01*
X117256816Y-118626216D01*
X117256921Y-118626263D01*
X117257023Y-118626304D01*
X117257216Y-118626374D01*
X117257394Y-118626429D01*
X117257555Y-118626470D01*
X117257696Y-118626499D01*
X117257816Y-118626519D01*
X117257912Y-118626531D01*
X117257984Y-118626537D01*
X117258043Y-118626539D01*
X117274110Y-118634968D01*
X117289587Y-118643365D01*
X117304506Y-118651701D01*
X117318898Y-118659943D01*
X117346224Y-118676025D01*
X117371814Y-118691362D01*
X117371822Y-118691603D01*
X117371844Y-118691828D01*
X117371880Y-118692039D01*
X117371928Y-118692236D01*
X117371988Y-118692419D01*
X117372058Y-118692589D01*
X117372139Y-118692747D01*
X117372228Y-118692893D01*
X117372324Y-118693026D01*
X117372428Y-118693149D01*
X117372537Y-118693261D01*
X117372651Y-118693363D01*
X117372769Y-118693455D01*
X117372890Y-118693538D01*
X117373013Y-118693612D01*
X117373137Y-118693678D01*
X117373261Y-118693736D01*
X117373384Y-118693787D01*
X117373623Y-118693869D01*
X117373846Y-118693928D01*
X117374047Y-118693968D01*
X117374216Y-118693992D01*
X117374346Y-118694004D01*
X117374460Y-118694009D01*
X118443377Y-120765696D01*
X118437364Y-120770600D01*
X118431243Y-120775411D01*
X118425029Y-120780160D01*
X118418737Y-120784878D01*
X118405983Y-120794345D01*
X118393106Y-120804061D01*
X118202110Y-120939543D01*
X117974403Y-121086235D01*
X117709985Y-121238476D01*
X117564009Y-121314910D01*
X117408856Y-121390609D01*
X117244525Y-121464867D01*
X117071016Y-121536975D01*
X116888329Y-121606227D01*
X116696465Y-121671915D01*
X116495423Y-121733332D01*
X116285204Y-121789771D01*
X116065806Y-121840524D01*
X115837231Y-121884884D01*
X115692062Y-121908531D01*
X115548805Y-121928238D01*
X115268318Y-121956505D01*
X114996361Y-121971032D01*
X114733526Y-121973167D01*
X114480404Y-121964257D01*
X114237585Y-121945647D01*
X114005661Y-121918685D01*
X113785222Y-121884718D01*
X113576861Y-121845092D01*
X113381167Y-121801154D01*
X113198732Y-121754252D01*
X113030147Y-121705731D01*
X112876003Y-121656940D01*
X112736891Y-121609223D01*
X112506127Y-121522404D01*
X112421269Y-121489644D01*
X112333528Y-121453799D01*
X112243120Y-121414760D01*
X112150263Y-121372419D01*
X112055173Y-121326667D01*
X111958068Y-121277396D01*
X111859164Y-121224498D01*
X111758680Y-121167863D01*
X111683216Y-121123507D01*
X111611381Y-121079662D01*
X111542832Y-121036220D01*
X111477228Y-120993072D01*
X111414230Y-120950111D01*
X111353495Y-120907227D01*
X111294682Y-120864313D01*
X111237450Y-120821258D01*
X111191148Y-120785540D01*
X111192470Y-120782894D01*
X111255970Y-120765696D01*
X111523856Y-120689109D01*
X111785762Y-120606307D01*
X112040917Y-120518208D01*
X112288548Y-120425727D01*
X112527886Y-120329781D01*
X112758158Y-120231286D01*
X112978593Y-120131160D01*
X113188421Y-120030319D01*
X113386869Y-119929680D01*
X113573167Y-119830159D01*
X113746544Y-119732672D01*
X113906227Y-119638137D01*
X114051446Y-119547470D01*
X114181430Y-119461587D01*
X114295407Y-119381406D01*
X114392606Y-119307842D01*
X114461589Y-119256576D01*
X114543811Y-119200644D01*
X114637475Y-119140992D01*
X114740781Y-119078564D01*
X114969129Y-118949166D01*
X115214468Y-118820016D01*
X115462411Y-118698680D01*
X115698572Y-118592723D01*
X115807739Y-118547875D01*
X115908565Y-118509710D01*
X115999252Y-118479171D01*
X116078001Y-118457206D01*
X116107430Y-118450631D01*
X116136648Y-118444775D01*
X116165608Y-118439604D01*
X116194263Y-118435084D01*
X116250468Y-118427865D01*
X116304882Y-118422852D01*
X116357125Y-118419777D01*
X116406818Y-118418372D01*
X116453582Y-118418370D01*
X116497035Y-118419503D01*
G37*
G36*
X115292789Y-109403248D02*
G01*
X115769501Y-109445521D01*
X116012649Y-109482292D01*
X116258427Y-109530413D01*
X116506412Y-109590579D01*
X116756179Y-109663487D01*
X117007305Y-109749833D01*
X117259366Y-109850311D01*
X117560757Y-109989676D01*
X117848647Y-110143792D01*
X118123211Y-110311458D01*
X118384623Y-110491473D01*
X118633056Y-110682636D01*
X118868684Y-110883745D01*
X119091680Y-111093599D01*
X119302218Y-111310997D01*
X119500472Y-111534737D01*
X119686616Y-111763619D01*
X119860823Y-111996441D01*
X120023267Y-112232002D01*
X120174122Y-112469101D01*
X120313560Y-112706536D01*
X120441757Y-112943107D01*
X120558886Y-113177611D01*
X120760632Y-113635617D01*
X120920189Y-114070944D01*
X121038946Y-114473983D01*
X121118293Y-114835122D01*
X121159619Y-115144754D01*
X121164314Y-115393267D01*
X121153358Y-115491601D01*
X121133766Y-115571051D01*
X121105711Y-115630417D01*
X121069366Y-115668498D01*
X121023184Y-115684631D01*
X120968326Y-115678452D01*
X120904937Y-115651440D01*
X120833163Y-115605073D01*
X120665042Y-115460182D01*
X120465124Y-115255603D01*
X119974549Y-114714672D01*
X119686218Y-114401966D01*
X119370741Y-114076864D01*
X119029281Y-113751188D01*
X118663001Y-113436761D01*
X118470917Y-113287460D01*
X118273064Y-113145406D01*
X118069587Y-113012076D01*
X117860632Y-112888947D01*
X117646343Y-112777497D01*
X117426867Y-112679205D01*
X117202349Y-112595549D01*
X116972934Y-112528005D01*
X116738767Y-112478052D01*
X116499993Y-112447168D01*
X116256759Y-112436831D01*
X116009209Y-112448519D01*
X115955249Y-112453790D01*
X115902467Y-112459681D01*
X115850800Y-112466192D01*
X115800189Y-112473324D01*
X115750569Y-112481075D01*
X115701879Y-112489447D01*
X115654058Y-112498438D01*
X115607043Y-112508050D01*
X114882084Y-111146769D01*
X113600178Y-113472456D01*
X113417657Y-113573205D01*
X113222486Y-113679162D01*
X113013424Y-113790576D01*
X112789231Y-113907696D01*
X112631799Y-113984585D01*
X112476498Y-114051875D01*
X112323309Y-114110067D01*
X112172214Y-114159662D01*
X112023197Y-114201162D01*
X111876240Y-114235068D01*
X111731325Y-114261881D01*
X111588436Y-114282102D01*
X111447554Y-114296232D01*
X111308662Y-114304773D01*
X111036779Y-114307090D01*
X110772648Y-114293064D01*
X110516129Y-114266702D01*
X110267082Y-114232016D01*
X110025368Y-114193015D01*
X109563381Y-114118102D01*
X109342829Y-114090210D01*
X109129051Y-114074040D01*
X108921909Y-114073602D01*
X108820782Y-114080535D01*
X108721262Y-114092904D01*
X108782117Y-113783341D01*
X108853917Y-113570071D01*
X108932297Y-113363813D01*
X109016735Y-113164519D01*
X109106710Y-112972140D01*
X109201701Y-112786627D01*
X109301187Y-112607931D01*
X109404648Y-112436002D01*
X109511561Y-112270793D01*
X109621406Y-112112254D01*
X109733663Y-111960336D01*
X109847809Y-111814990D01*
X109963324Y-111676168D01*
X110079687Y-111543820D01*
X110196377Y-111417898D01*
X110428652Y-111185133D01*
X110655982Y-110977484D01*
X110874199Y-110794558D01*
X111079133Y-110635964D01*
X111266617Y-110501310D01*
X111432481Y-110390205D01*
X111572559Y-110302257D01*
X111758680Y-110194269D01*
X111943110Y-110100052D01*
X112325528Y-109931422D01*
X112582510Y-109833115D01*
X112878820Y-109732902D01*
X113211070Y-109636347D01*
X113575870Y-109549016D01*
X113969832Y-109476476D01*
X114389565Y-109424290D01*
X114831680Y-109398026D01*
X115292789Y-109403248D01*
G37*
G36*
X111943172Y-116583664D02*
G01*
X112021423Y-116602704D01*
X112100635Y-116625310D01*
X112180855Y-116651590D01*
X112262129Y-116681653D01*
X112344504Y-116715607D01*
X112428026Y-116753561D01*
X112512741Y-116795623D01*
X112532585Y-116806205D01*
X112271971Y-117326112D01*
X111238773Y-117715049D01*
X111240096Y-117713726D01*
X111865835Y-116568081D01*
X111943172Y-116583664D01*
G37*
M02*
