%TF.GenerationSoftware,KiCad,Pcbnew,10.0.4*%
%TF.CreationDate,2026-07-23T15:45:35-06:00*%
%TF.ProjectId,Square Connector,53717561-7265-4204-936f-6e6e6563746f,rev?*%
%TF.SameCoordinates,Original*%
%TF.FileFunction,Copper,L2,Bot*%
%TF.FilePolarity,Positive*%
%FSLAX46Y46*%
G04 Gerber Fmt 4.6, Leading zero omitted, Abs format (unit mm)*
G04 Created by KiCad (PCBNEW 10.0.4) date 2026-07-23 15:45:35*
%MOMM*%
%LPD*%
G01*
G04 APERTURE LIST*
%TA.AperFunction,ComponentPad*%
%ADD10C,1.700000*%
%TD*%
%TA.AperFunction,ComponentPad*%
%ADD11R,1.700000X1.700000*%
%TD*%
%TA.AperFunction,ComponentPad*%
%ADD12O,4.300000X1.700000*%
%TD*%
%TA.AperFunction,ComponentPad*%
%ADD13O,3.800000X1.700000*%
%TD*%
%TA.AperFunction,ComponentPad*%
%ADD14O,1.700000X3.800000*%
%TD*%
%TA.AperFunction,ViaPad*%
%ADD15C,0.600000*%
%TD*%
%TA.AperFunction,Conductor*%
%ADD16C,0.200000*%
%TD*%
G04 APERTURE END LIST*
D10*
%TO.P,H6,10,10_10*%
%TO.N,/GND*%
X102730000Y-109920000D03*
%TO.P,H6,9,9_9*%
%TO.N,/V+*%
X105270000Y-109920000D03*
%TO.P,H6,8,8_8*%
%TO.N,/GND*%
X102730000Y-112460000D03*
%TO.P,H6,7,7_7*%
%TO.N,/V+*%
X105270000Y-112460000D03*
%TO.P,H6,6,6_6*%
%TO.N,/pwm_warm*%
X102730000Y-115000000D03*
%TO.P,H6,5,5_5*%
%TO.N,/pwm_cool*%
X105270000Y-115000000D03*
%TO.P,H6,4,4_4*%
%TO.N,/GND*%
X102730000Y-117540000D03*
%TO.P,H6,3,3_3*%
%TO.N,/V+*%
X105270000Y-117540000D03*
%TO.P,H6,2,2_2*%
%TO.N,/GND*%
X102730000Y-120080000D03*
D11*
%TO.P,H6,1,1_1*%
%TO.N,/V+*%
X105270000Y-120080000D03*
%TD*%
D10*
%TO.P,H5,10,10_10*%
%TO.N,/GND*%
X102730000Y-140920000D03*
%TO.P,H5,9,9_9*%
%TO.N,/V+*%
X105270000Y-140920000D03*
%TO.P,H5,8,8_8*%
%TO.N,/GND*%
X102730000Y-143460000D03*
%TO.P,H5,7,7_7*%
%TO.N,/V+*%
X105270000Y-143460000D03*
%TO.P,H5,6,6_6*%
%TO.N,/pwm_warm*%
X102730000Y-146000000D03*
%TO.P,H5,5,5_5*%
%TO.N,/pwm_cool*%
X105270000Y-146000000D03*
%TO.P,H5,4,4_4*%
%TO.N,/GND*%
X102730000Y-148540000D03*
%TO.P,H5,3,3_3*%
%TO.N,/V+*%
X105270000Y-148540000D03*
%TO.P,H5,2,2_2*%
%TO.N,/GND*%
X102730000Y-151080000D03*
D11*
%TO.P,H5,1,1_1*%
%TO.N,/V+*%
X105270000Y-151080000D03*
%TD*%
D10*
%TO.P,H4,10,10_10*%
%TO.N,/GND*%
X127270000Y-151080000D03*
%TO.P,H4,9,9_9*%
%TO.N,/V+*%
X124730000Y-151080000D03*
%TO.P,H4,8,8_8*%
%TO.N,/GND*%
X127270000Y-148540000D03*
%TO.P,H4,7,7_7*%
%TO.N,/V+*%
X124730000Y-148540000D03*
%TO.P,H4,6,6_6*%
%TO.N,/pwm_warm*%
X127270000Y-146000000D03*
%TO.P,H4,5,5_5*%
%TO.N,/pwm_cool*%
X124730000Y-146000000D03*
%TO.P,H4,4,4_4*%
%TO.N,/GND*%
X127270000Y-143460000D03*
%TO.P,H4,3,3_3*%
%TO.N,/V+*%
X124730000Y-143460000D03*
%TO.P,H4,2,2_2*%
%TO.N,/GND*%
X127270000Y-140920000D03*
D11*
%TO.P,H4,1,1_1*%
%TO.N,/V+*%
X124730000Y-140920000D03*
%TD*%
D10*
%TO.P,H3,10,10_10*%
%TO.N,/GND*%
X127270000Y-120080000D03*
%TO.P,H3,9,9_9*%
%TO.N,/V+*%
X124730000Y-120080000D03*
%TO.P,H3,8,8_8*%
%TO.N,/GND*%
X127270000Y-117540000D03*
%TO.P,H3,7,7_7*%
%TO.N,/V+*%
X124730000Y-117540000D03*
%TO.P,H3,6,6_6*%
%TO.N,/pwm_warm*%
X127270000Y-115000000D03*
%TO.P,H3,5,5_5*%
%TO.N,/pwm_cool*%
X124730000Y-115000000D03*
%TO.P,H3,4,4_4*%
%TO.N,/GND*%
X127270000Y-112460000D03*
%TO.P,H3,3,3_3*%
%TO.N,/V+*%
X124730000Y-112460000D03*
%TO.P,H3,2,2_2*%
%TO.N,/GND*%
X127270000Y-109920000D03*
D11*
%TO.P,H3,1,1_1*%
%TO.N,/V+*%
X124730000Y-109920000D03*
%TD*%
D10*
%TO.P,H2,10,10_10*%
%TO.N,/GND*%
X109920000Y-157270000D03*
%TO.P,H2,9,9_9*%
%TO.N,/V+*%
X109920000Y-154730000D03*
%TO.P,H2,8,8_8*%
%TO.N,/GND*%
X112460000Y-157270000D03*
%TO.P,H2,7,7_7*%
%TO.N,/V+*%
X112460000Y-154730000D03*
%TO.P,H2,6,6_6*%
%TO.N,/pwm_warm*%
X115000000Y-157270000D03*
%TO.P,H2,5,5_5*%
%TO.N,/pwm_cool*%
X115000000Y-154730000D03*
%TO.P,H2,4,4_4*%
%TO.N,/GND*%
X117540000Y-157270000D03*
%TO.P,H2,3,3_3*%
%TO.N,/V+*%
X117540000Y-154730000D03*
%TO.P,H2,2,2_2*%
%TO.N,/GND*%
X120080000Y-157270000D03*
D11*
%TO.P,H2,1,1_1*%
%TO.N,/V+*%
X120080000Y-154730000D03*
%TD*%
D10*
%TO.P,H1,10,10_10*%
%TO.N,/GND*%
X120080000Y-102730000D03*
%TO.P,H1,9,9_9*%
%TO.N,/V+*%
X120080000Y-105270000D03*
%TO.P,H1,8,8_8*%
%TO.N,/GND*%
X117540000Y-102730000D03*
%TO.P,H1,7,7_7*%
%TO.N,/V+*%
X117540000Y-105270000D03*
%TO.P,H1,6,6_6*%
%TO.N,/pwm_warm*%
X115000000Y-102730000D03*
%TO.P,H1,5,5_5*%
%TO.N,/pwm_cool*%
X115000000Y-105270000D03*
%TO.P,H1,4,4_4*%
%TO.N,/GND*%
X112460000Y-102730000D03*
%TO.P,H1,3,3_3*%
%TO.N,/V+*%
X112460000Y-105270000D03*
%TO.P,H1,2,2_2*%
%TO.N,/GND*%
X109920000Y-102730000D03*
D11*
%TO.P,H1,1,1_1*%
%TO.N,/V+*%
X109920000Y-105270000D03*
%TD*%
D12*
%TO.P,DC1,1,1_1*%
%TO.N,/V+*%
X114850000Y-138000000D03*
D13*
%TO.P,DC1,2,2_2*%
%TO.N,/GND*%
X114850000Y-132000000D03*
D14*
%TO.P,DC1,3,3_3*%
X110150000Y-135000000D03*
%TD*%
D15*
%TO.N,/pwm_cool*%
X115000000Y-112500000D03*
X120000000Y-115000000D03*
X117870000Y-146000000D03*
X120000000Y-139800000D03*
%TD*%
%TO.N,/pwm_cool*%
D16*
X112600000Y-115000000D02*
X105270000Y-115000000D01*
X115000000Y-112600000D02*
X112600000Y-115000000D01*
X115000000Y-112500000D02*
X115000000Y-112600000D01*
X120000000Y-115000000D02*
X120000000Y-119800000D01*
X124730000Y-115070000D02*
X124730000Y-115000000D01*
X120000000Y-139800000D02*
X120000000Y-119800000D01*
X117870000Y-146000000D02*
X111900000Y-146000000D01*
X117870000Y-146000000D02*
X124730000Y-146000000D01*
X115000000Y-105270000D02*
X115000000Y-112500000D01*
X115000000Y-149100000D02*
X111900000Y-146000000D01*
X115000000Y-154730000D02*
X115000000Y-149100000D01*
X105270000Y-146000000D02*
X111900000Y-146000000D01*
%TD*%
%TA.AperFunction,Conductor*%
%TO.N,/GND*%
G36*
X111261444Y-155383999D02*
G01*
X111300486Y-155429056D01*
X111304951Y-155437820D01*
X111429890Y-155609786D01*
X111580213Y-155760109D01*
X111752179Y-155885048D01*
X111752181Y-155885049D01*
X111752184Y-155885051D01*
X111761493Y-155889794D01*
X111812290Y-155937766D01*
X111829087Y-156005587D01*
X111806552Y-156071722D01*
X111761505Y-156110760D01*
X111752446Y-156115376D01*
X111752440Y-156115380D01*
X111698282Y-156154727D01*
X111698282Y-156154728D01*
X112322420Y-156778866D01*
X112263145Y-156794749D01*
X112146848Y-156861893D01*
X112051893Y-156956848D01*
X111984749Y-157073145D01*
X111968866Y-157132420D01*
X111344728Y-156508282D01*
X111344727Y-156508282D01*
X111305380Y-156562440D01*
X111300483Y-156572051D01*
X111252506Y-156622845D01*
X111184684Y-156639638D01*
X111118550Y-156617098D01*
X111079516Y-156572048D01*
X111074626Y-156562452D01*
X111035270Y-156508282D01*
X111035269Y-156508282D01*
X110411133Y-157132419D01*
X110395251Y-157073145D01*
X110328107Y-156956848D01*
X110233152Y-156861893D01*
X110116855Y-156794749D01*
X110057580Y-156778866D01*
X110681716Y-156154728D01*
X110627547Y-156115373D01*
X110627547Y-156115372D01*
X110618500Y-156110763D01*
X110567706Y-156062788D01*
X110550912Y-155994966D01*
X110573451Y-155928832D01*
X110618508Y-155889793D01*
X110627816Y-155885051D01*
X110714147Y-155822328D01*
X110799786Y-155760109D01*
X110799788Y-155760106D01*
X110799792Y-155760104D01*
X110950104Y-155609792D01*
X110950106Y-155609788D01*
X110950109Y-155609786D01*
X111075048Y-155437820D01*
X111075047Y-155437820D01*
X111075051Y-155437816D01*
X111079514Y-155429054D01*
X111127488Y-155378259D01*
X111195308Y-155361463D01*
X111261444Y-155383999D01*
G37*
%TD.AperFunction*%
%TA.AperFunction,Conductor*%
G36*
X116341444Y-155383999D02*
G01*
X116380486Y-155429056D01*
X116384951Y-155437820D01*
X116509890Y-155609786D01*
X116660213Y-155760109D01*
X116832179Y-155885048D01*
X116832181Y-155885049D01*
X116832184Y-155885051D01*
X116841493Y-155889794D01*
X116892290Y-155937766D01*
X116909087Y-156005587D01*
X116886552Y-156071722D01*
X116841505Y-156110760D01*
X116832446Y-156115376D01*
X116832440Y-156115380D01*
X116778282Y-156154727D01*
X116778282Y-156154728D01*
X117402420Y-156778866D01*
X117343145Y-156794749D01*
X117226848Y-156861893D01*
X117131893Y-156956848D01*
X117064749Y-157073145D01*
X117048866Y-157132420D01*
X116424728Y-156508282D01*
X116424727Y-156508282D01*
X116385380Y-156562440D01*
X116385376Y-156562446D01*
X116380760Y-156571505D01*
X116332781Y-156622297D01*
X116264959Y-156639087D01*
X116198826Y-156616543D01*
X116159794Y-156571493D01*
X116155051Y-156562184D01*
X116155049Y-156562181D01*
X116155048Y-156562179D01*
X116030109Y-156390213D01*
X115879786Y-156239890D01*
X115707820Y-156114951D01*
X115699600Y-156110763D01*
X115699054Y-156110485D01*
X115648259Y-156062512D01*
X115631463Y-155994692D01*
X115653999Y-155928556D01*
X115699054Y-155889515D01*
X115707816Y-155885051D01*
X115794138Y-155822335D01*
X115879786Y-155760109D01*
X115879788Y-155760106D01*
X115879792Y-155760104D01*
X116030104Y-155609792D01*
X116030106Y-155609788D01*
X116030109Y-155609786D01*
X116155048Y-155437820D01*
X116155047Y-155437820D01*
X116155051Y-155437816D01*
X116159514Y-155429054D01*
X116207488Y-155378259D01*
X116275308Y-155361463D01*
X116341444Y-155383999D01*
G37*
%TD.AperFunction*%
%TA.AperFunction,Conductor*%
G36*
X118664340Y-155618068D02*
G01*
X118720274Y-155659939D01*
X118737189Y-155690917D01*
X118786202Y-155822328D01*
X118786206Y-155822335D01*
X118872452Y-155937544D01*
X118872455Y-155937547D01*
X118987664Y-156023793D01*
X118987671Y-156023797D01*
X119032618Y-156040561D01*
X119122517Y-156074091D01*
X119182127Y-156080500D01*
X119192685Y-156080499D01*
X119259723Y-156100179D01*
X119280372Y-156116818D01*
X119942420Y-156778866D01*
X119883145Y-156794749D01*
X119766848Y-156861893D01*
X119671893Y-156956848D01*
X119604749Y-157073145D01*
X119588866Y-157132420D01*
X118964728Y-156508282D01*
X118964727Y-156508282D01*
X118925380Y-156562440D01*
X118920483Y-156572051D01*
X118872506Y-156622845D01*
X118804684Y-156639638D01*
X118738550Y-156617098D01*
X118699516Y-156572048D01*
X118694626Y-156562452D01*
X118655270Y-156508282D01*
X118655269Y-156508282D01*
X118031133Y-157132419D01*
X118015251Y-157073145D01*
X117948107Y-156956848D01*
X117853152Y-156861893D01*
X117736855Y-156794749D01*
X117677580Y-156778866D01*
X118301716Y-156154728D01*
X118247547Y-156115373D01*
X118247547Y-156115372D01*
X118238500Y-156110763D01*
X118187706Y-156062788D01*
X118170912Y-155994966D01*
X118193451Y-155928832D01*
X118238508Y-155889793D01*
X118247816Y-155885051D01*
X118419792Y-155760104D01*
X118533329Y-155646566D01*
X118594648Y-155613084D01*
X118664340Y-155618068D01*
G37*
%TD.AperFunction*%
%TA.AperFunction,Conductor*%
G36*
X113801444Y-155383999D02*
G01*
X113840486Y-155429056D01*
X113844951Y-155437820D01*
X113969890Y-155609786D01*
X114120213Y-155760109D01*
X114292182Y-155885050D01*
X114300946Y-155889516D01*
X114351742Y-155937491D01*
X114368536Y-156005312D01*
X114345998Y-156071447D01*
X114300946Y-156110484D01*
X114292182Y-156114949D01*
X114120213Y-156239890D01*
X113969890Y-156390213D01*
X113844949Y-156562182D01*
X113840202Y-156571499D01*
X113792227Y-156622293D01*
X113724405Y-156639087D01*
X113658271Y-156616548D01*
X113619234Y-156571495D01*
X113614626Y-156562452D01*
X113575270Y-156508282D01*
X113575269Y-156508282D01*
X112951133Y-157132419D01*
X112935251Y-157073145D01*
X112868107Y-156956848D01*
X112773152Y-156861893D01*
X112656855Y-156794749D01*
X112597580Y-156778866D01*
X113221716Y-156154728D01*
X113167547Y-156115373D01*
X113167547Y-156115372D01*
X113158500Y-156110763D01*
X113107706Y-156062788D01*
X113090912Y-155994966D01*
X113113451Y-155928832D01*
X113158508Y-155889793D01*
X113167816Y-155885051D01*
X113254147Y-155822328D01*
X113339786Y-155760109D01*
X113339788Y-155760106D01*
X113339792Y-155760104D01*
X113490104Y-155609792D01*
X113490106Y-155609788D01*
X113490109Y-155609786D01*
X113615048Y-155437820D01*
X113615047Y-155437820D01*
X113615051Y-155437816D01*
X113619514Y-155429054D01*
X113667488Y-155378259D01*
X113735308Y-155361463D01*
X113801444Y-155383999D01*
G37*
%TD.AperFunction*%
%TA.AperFunction,Conductor*%
G36*
X126794749Y-148736855D02*
G01*
X126861893Y-148853152D01*
X126956848Y-148948107D01*
X127073145Y-149015251D01*
X127132419Y-149031133D01*
X126539971Y-149623581D01*
X126618711Y-149740895D01*
X126619920Y-149744729D01*
X126622844Y-149747491D01*
X126630343Y-149777778D01*
X126639727Y-149807529D01*
X126638671Y-149811408D01*
X126639638Y-149815312D01*
X126629573Y-149844844D01*
X126621383Y-149874947D01*
X126618397Y-149877640D01*
X126617100Y-149881447D01*
X126572051Y-149920483D01*
X126562440Y-149925380D01*
X126508282Y-149964727D01*
X126508282Y-149964728D01*
X127132420Y-150588866D01*
X127073145Y-150604749D01*
X126956848Y-150671893D01*
X126861893Y-150766848D01*
X126794749Y-150883145D01*
X126778866Y-150942420D01*
X126154728Y-150318282D01*
X126154727Y-150318282D01*
X126115380Y-150372440D01*
X126115376Y-150372446D01*
X126110760Y-150381505D01*
X126062781Y-150432297D01*
X125994959Y-150449087D01*
X125928826Y-150426543D01*
X125889794Y-150381493D01*
X125885051Y-150372184D01*
X125885049Y-150372181D01*
X125885048Y-150372179D01*
X125760109Y-150200213D01*
X125609786Y-150049890D01*
X125437820Y-149924951D01*
X125437115Y-149924591D01*
X125429054Y-149920485D01*
X125378259Y-149872512D01*
X125361463Y-149804692D01*
X125383999Y-149738556D01*
X125429054Y-149699515D01*
X125437816Y-149695051D01*
X125536187Y-149623581D01*
X125609786Y-149570109D01*
X125609788Y-149570106D01*
X125609792Y-149570104D01*
X125760104Y-149419792D01*
X125760106Y-149419788D01*
X125760109Y-149419786D01*
X125845890Y-149301717D01*
X125885051Y-149247816D01*
X125889793Y-149238508D01*
X125937763Y-149187711D01*
X126005583Y-149170911D01*
X126071719Y-149193445D01*
X126110763Y-149238500D01*
X126115373Y-149247547D01*
X126154728Y-149301716D01*
X126778866Y-148677579D01*
X126794749Y-148736855D01*
G37*
%TD.AperFunction*%
%TA.AperFunction,Conductor*%
G36*
X103845270Y-149301717D02*
G01*
X103845270Y-149301716D01*
X103884622Y-149247555D01*
X103889232Y-149238507D01*
X103937205Y-149187709D01*
X104005025Y-149170912D01*
X104071161Y-149193447D01*
X104110204Y-149238504D01*
X104114949Y-149247817D01*
X104239890Y-149419786D01*
X104353430Y-149533326D01*
X104386915Y-149594649D01*
X104381931Y-149664341D01*
X104340059Y-149720274D01*
X104309083Y-149737189D01*
X104177669Y-149786203D01*
X104177664Y-149786206D01*
X104062455Y-149872452D01*
X104062452Y-149872455D01*
X103976206Y-149987664D01*
X103976202Y-149987671D01*
X103925908Y-150122517D01*
X103919501Y-150182116D01*
X103919501Y-150182123D01*
X103919500Y-150182135D01*
X103919500Y-150192690D01*
X103899815Y-150259729D01*
X103883181Y-150280371D01*
X103221133Y-150942419D01*
X103205251Y-150883145D01*
X103138107Y-150766848D01*
X103043152Y-150671893D01*
X102926855Y-150604749D01*
X102867580Y-150588866D01*
X103491716Y-149964728D01*
X103437550Y-149925375D01*
X103427954Y-149920486D01*
X103377157Y-149872512D01*
X103360361Y-149804692D01*
X103382897Y-149738556D01*
X103427954Y-149699514D01*
X103437554Y-149694622D01*
X103491716Y-149655270D01*
X103491717Y-149655270D01*
X102867579Y-149031133D01*
X102926855Y-149015251D01*
X103043152Y-148948107D01*
X103138107Y-148853152D01*
X103205251Y-148736855D01*
X103221133Y-148677579D01*
X103845270Y-149301717D01*
G37*
%TD.AperFunction*%
%TA.AperFunction,Conductor*%
G36*
X126071444Y-146653999D02*
G01*
X126110486Y-146699056D01*
X126114951Y-146707820D01*
X126239890Y-146879786D01*
X126390213Y-147030109D01*
X126562179Y-147155048D01*
X126562181Y-147155049D01*
X126562184Y-147155051D01*
X126571493Y-147159794D01*
X126622290Y-147207766D01*
X126639087Y-147275587D01*
X126616552Y-147341722D01*
X126571505Y-147380760D01*
X126562446Y-147385376D01*
X126562440Y-147385380D01*
X126508282Y-147424727D01*
X126508282Y-147424728D01*
X127132420Y-148048866D01*
X127073145Y-148064749D01*
X126956848Y-148131893D01*
X126861893Y-148226848D01*
X126794749Y-148343145D01*
X126778866Y-148402420D01*
X126154728Y-147778282D01*
X126154727Y-147778282D01*
X126115380Y-147832440D01*
X126115376Y-147832446D01*
X126110760Y-147841505D01*
X126062781Y-147892297D01*
X125994959Y-147909087D01*
X125928826Y-147886543D01*
X125889794Y-147841493D01*
X125885051Y-147832184D01*
X125885049Y-147832181D01*
X125885048Y-147832179D01*
X125760109Y-147660213D01*
X125609786Y-147509890D01*
X125437820Y-147384951D01*
X125429600Y-147380763D01*
X125429054Y-147380485D01*
X125378259Y-147332512D01*
X125361463Y-147264692D01*
X125383999Y-147198556D01*
X125429054Y-147159515D01*
X125437816Y-147155051D01*
X125459789Y-147139086D01*
X125609786Y-147030109D01*
X125609788Y-147030106D01*
X125609792Y-147030104D01*
X125760104Y-146879792D01*
X125760106Y-146879788D01*
X125760109Y-146879786D01*
X125883902Y-146709397D01*
X125885051Y-146707816D01*
X125889514Y-146699054D01*
X125937488Y-146648259D01*
X126005308Y-146631463D01*
X126071444Y-146653999D01*
G37*
%TD.AperFunction*%
%TA.AperFunction,Conductor*%
G36*
X104071444Y-146653999D02*
G01*
X104110486Y-146699056D01*
X104114951Y-146707820D01*
X104239890Y-146879786D01*
X104390213Y-147030109D01*
X104562182Y-147155050D01*
X104570946Y-147159516D01*
X104621742Y-147207491D01*
X104638536Y-147275312D01*
X104615998Y-147341447D01*
X104570946Y-147380484D01*
X104562182Y-147384949D01*
X104390213Y-147509890D01*
X104239890Y-147660213D01*
X104114949Y-147832182D01*
X104110202Y-147841499D01*
X104062227Y-147892293D01*
X103994405Y-147909087D01*
X103928271Y-147886548D01*
X103889234Y-147841495D01*
X103884626Y-147832452D01*
X103845270Y-147778282D01*
X103845269Y-147778282D01*
X103221133Y-148402419D01*
X103205251Y-148343145D01*
X103138107Y-148226848D01*
X103043152Y-148131893D01*
X102926855Y-148064749D01*
X102867580Y-148048866D01*
X103491716Y-147424728D01*
X103437547Y-147385373D01*
X103437547Y-147385372D01*
X103428500Y-147380763D01*
X103377706Y-147332788D01*
X103360912Y-147264966D01*
X103383451Y-147198832D01*
X103428508Y-147159793D01*
X103437816Y-147155051D01*
X103517007Y-147097515D01*
X103609786Y-147030109D01*
X103609788Y-147030106D01*
X103609792Y-147030104D01*
X103760104Y-146879792D01*
X103760106Y-146879788D01*
X103760109Y-146879786D01*
X103883902Y-146709397D01*
X103885051Y-146707816D01*
X103889514Y-146699054D01*
X103937488Y-146648259D01*
X104005308Y-146631463D01*
X104071444Y-146653999D01*
G37*
%TD.AperFunction*%
%TA.AperFunction,Conductor*%
G36*
X103845270Y-144221717D02*
G01*
X103845270Y-144221716D01*
X103884622Y-144167555D01*
X103889232Y-144158507D01*
X103937205Y-144107709D01*
X104005025Y-144090912D01*
X104071161Y-144113447D01*
X104110204Y-144158504D01*
X104114949Y-144167817D01*
X104239890Y-144339786D01*
X104390213Y-144490109D01*
X104562182Y-144615050D01*
X104570946Y-144619516D01*
X104621742Y-144667491D01*
X104638536Y-144735312D01*
X104615998Y-144801447D01*
X104570946Y-144840484D01*
X104562182Y-144844949D01*
X104390213Y-144969890D01*
X104239890Y-145120213D01*
X104114949Y-145292182D01*
X104110484Y-145300946D01*
X104062509Y-145351742D01*
X103994688Y-145368536D01*
X103928553Y-145345998D01*
X103889516Y-145300946D01*
X103885050Y-145292182D01*
X103760109Y-145120213D01*
X103609786Y-144969890D01*
X103437817Y-144844949D01*
X103428504Y-144840204D01*
X103377707Y-144792230D01*
X103360912Y-144724409D01*
X103383449Y-144658274D01*
X103428507Y-144619232D01*
X103437555Y-144614622D01*
X103491716Y-144575270D01*
X103491717Y-144575270D01*
X102867579Y-143951133D01*
X102926855Y-143935251D01*
X103043152Y-143868107D01*
X103138107Y-143773152D01*
X103205251Y-143656855D01*
X103221133Y-143597579D01*
X103845270Y-144221717D01*
G37*
%TD.AperFunction*%
%TA.AperFunction,Conductor*%
G36*
X126794749Y-143656855D02*
G01*
X126861893Y-143773152D01*
X126956848Y-143868107D01*
X127073145Y-143935251D01*
X127132419Y-143951133D01*
X126508282Y-144575269D01*
X126508282Y-144575270D01*
X126562452Y-144614626D01*
X126562451Y-144614626D01*
X126571495Y-144619234D01*
X126622292Y-144667208D01*
X126639087Y-144735029D01*
X126616550Y-144801164D01*
X126571499Y-144840202D01*
X126562182Y-144844949D01*
X126390213Y-144969890D01*
X126239890Y-145120213D01*
X126114949Y-145292182D01*
X126110484Y-145300946D01*
X126062509Y-145351742D01*
X125994688Y-145368536D01*
X125928553Y-145345998D01*
X125889516Y-145300946D01*
X125885050Y-145292182D01*
X125760109Y-145120213D01*
X125609786Y-144969890D01*
X125437820Y-144844951D01*
X125437115Y-144844591D01*
X125429054Y-144840485D01*
X125378259Y-144792512D01*
X125361463Y-144724692D01*
X125383999Y-144658556D01*
X125429054Y-144619515D01*
X125437816Y-144615051D01*
X125492572Y-144575269D01*
X125609786Y-144490109D01*
X125609788Y-144490106D01*
X125609792Y-144490104D01*
X125760104Y-144339792D01*
X125760106Y-144339788D01*
X125760109Y-144339786D01*
X125845890Y-144221717D01*
X125885051Y-144167816D01*
X125889793Y-144158508D01*
X125937763Y-144107711D01*
X126005583Y-144090911D01*
X126071719Y-144113445D01*
X126110763Y-144158500D01*
X126115373Y-144167547D01*
X126154728Y-144221716D01*
X126778866Y-143597579D01*
X126794749Y-143656855D01*
G37*
%TD.AperFunction*%
%TA.AperFunction,Conductor*%
G36*
X126794749Y-141116855D02*
G01*
X126861893Y-141233152D01*
X126956848Y-141328107D01*
X127073145Y-141395251D01*
X127132419Y-141411133D01*
X126539971Y-142003581D01*
X126618711Y-142120895D01*
X126639727Y-142187529D01*
X126621383Y-142254947D01*
X126572051Y-142300483D01*
X126562440Y-142305380D01*
X126508282Y-142344727D01*
X126508282Y-142344728D01*
X127132420Y-142968866D01*
X127073145Y-142984749D01*
X126956848Y-143051893D01*
X126861893Y-143146848D01*
X126794749Y-143263145D01*
X126778866Y-143322420D01*
X126154728Y-142698282D01*
X126154727Y-142698282D01*
X126115380Y-142752440D01*
X126115376Y-142752446D01*
X126110760Y-142761505D01*
X126062781Y-142812297D01*
X125994959Y-142829087D01*
X125928826Y-142806543D01*
X125889794Y-142761493D01*
X125885051Y-142752184D01*
X125885049Y-142752181D01*
X125885048Y-142752179D01*
X125760109Y-142580213D01*
X125646569Y-142466673D01*
X125613084Y-142405350D01*
X125618068Y-142335658D01*
X125659940Y-142279725D01*
X125690915Y-142262810D01*
X125822331Y-142213796D01*
X125937546Y-142127546D01*
X126023796Y-142012331D01*
X126074091Y-141877483D01*
X126080500Y-141817873D01*
X126080499Y-141793979D01*
X126083330Y-141780963D01*
X126093940Y-141761525D01*
X126100179Y-141740275D01*
X126116803Y-141719643D01*
X126116808Y-141719636D01*
X126116811Y-141719634D01*
X126116818Y-141719626D01*
X126778866Y-141057579D01*
X126794749Y-141116855D01*
G37*
%TD.AperFunction*%
%TA.AperFunction,Conductor*%
G36*
X103845270Y-141681717D02*
G01*
X103845270Y-141681716D01*
X103884622Y-141627555D01*
X103889232Y-141618507D01*
X103937205Y-141567709D01*
X104005025Y-141550912D01*
X104071161Y-141573447D01*
X104110204Y-141618504D01*
X104114949Y-141627817D01*
X104239890Y-141799786D01*
X104390213Y-141950109D01*
X104562182Y-142075050D01*
X104570946Y-142079516D01*
X104621742Y-142127491D01*
X104638536Y-142195312D01*
X104615998Y-142261447D01*
X104570946Y-142300484D01*
X104562182Y-142304949D01*
X104390213Y-142429890D01*
X104239890Y-142580213D01*
X104114949Y-142752182D01*
X104110202Y-142761499D01*
X104062227Y-142812293D01*
X103994405Y-142829087D01*
X103928271Y-142806548D01*
X103889234Y-142761495D01*
X103884626Y-142752452D01*
X103845270Y-142698282D01*
X103845269Y-142698282D01*
X103221133Y-143322419D01*
X103205251Y-143263145D01*
X103138107Y-143146848D01*
X103043152Y-143051893D01*
X102926855Y-142984749D01*
X102867580Y-142968866D01*
X103491716Y-142344728D01*
X103437550Y-142305375D01*
X103427954Y-142300486D01*
X103377157Y-142252512D01*
X103360361Y-142184692D01*
X103382897Y-142118556D01*
X103427954Y-142079514D01*
X103437554Y-142074622D01*
X103491716Y-142035270D01*
X103491717Y-142035270D01*
X102867579Y-141411133D01*
X102926855Y-141395251D01*
X103043152Y-141328107D01*
X103138107Y-141233152D01*
X103205251Y-141116855D01*
X103221133Y-141057579D01*
X103845270Y-141681717D01*
G37*
%TD.AperFunction*%
%TA.AperFunction,Conductor*%
G36*
X103845270Y-118301717D02*
G01*
X103845270Y-118301716D01*
X103884622Y-118247555D01*
X103889232Y-118238507D01*
X103937205Y-118187709D01*
X104005025Y-118170912D01*
X104071161Y-118193447D01*
X104110204Y-118238504D01*
X104114949Y-118247817D01*
X104239890Y-118419786D01*
X104353430Y-118533326D01*
X104386915Y-118594649D01*
X104381931Y-118664341D01*
X104340059Y-118720274D01*
X104309083Y-118737189D01*
X104177669Y-118786203D01*
X104177664Y-118786206D01*
X104062455Y-118872452D01*
X104062452Y-118872455D01*
X103976206Y-118987664D01*
X103976202Y-118987671D01*
X103925908Y-119122517D01*
X103919501Y-119182116D01*
X103919501Y-119182123D01*
X103919500Y-119182135D01*
X103919500Y-119192690D01*
X103899815Y-119259729D01*
X103883181Y-119280371D01*
X103221133Y-119942419D01*
X103205251Y-119883145D01*
X103138107Y-119766848D01*
X103043152Y-119671893D01*
X102926855Y-119604749D01*
X102867580Y-119588866D01*
X103491716Y-118964728D01*
X103437550Y-118925375D01*
X103427954Y-118920486D01*
X103377157Y-118872512D01*
X103360361Y-118804692D01*
X103382897Y-118738556D01*
X103427954Y-118699514D01*
X103437554Y-118694622D01*
X103491716Y-118655270D01*
X103491717Y-118655270D01*
X102867579Y-118031133D01*
X102926855Y-118015251D01*
X103043152Y-117948107D01*
X103138107Y-117853152D01*
X103205251Y-117736855D01*
X103221133Y-117677579D01*
X103845270Y-118301717D01*
G37*
%TD.AperFunction*%
%TA.AperFunction,Conductor*%
G36*
X104071444Y-115653999D02*
G01*
X104110486Y-115699056D01*
X104114951Y-115707820D01*
X104239890Y-115879786D01*
X104390213Y-116030109D01*
X104562182Y-116155050D01*
X104570946Y-116159516D01*
X104621742Y-116207491D01*
X104638536Y-116275312D01*
X104615998Y-116341447D01*
X104570946Y-116380484D01*
X104562182Y-116384949D01*
X104390213Y-116509890D01*
X104239890Y-116660213D01*
X104114949Y-116832182D01*
X104110202Y-116841499D01*
X104062227Y-116892293D01*
X103994405Y-116909087D01*
X103928271Y-116886548D01*
X103889234Y-116841495D01*
X103884626Y-116832452D01*
X103845270Y-116778282D01*
X103845269Y-116778282D01*
X103221133Y-117402419D01*
X103205251Y-117343145D01*
X103138107Y-117226848D01*
X103043152Y-117131893D01*
X102926855Y-117064749D01*
X102867580Y-117048866D01*
X103491716Y-116424728D01*
X103437547Y-116385373D01*
X103437547Y-116385372D01*
X103428500Y-116380763D01*
X103377706Y-116332788D01*
X103360912Y-116264966D01*
X103383451Y-116198832D01*
X103428508Y-116159793D01*
X103437816Y-116155051D01*
X103517007Y-116097515D01*
X103609786Y-116030109D01*
X103609788Y-116030106D01*
X103609792Y-116030104D01*
X103760104Y-115879792D01*
X103760106Y-115879788D01*
X103760109Y-115879786D01*
X103885048Y-115707820D01*
X103885047Y-115707820D01*
X103885051Y-115707816D01*
X103889514Y-115699054D01*
X103937488Y-115648259D01*
X104005308Y-115631463D01*
X104071444Y-115653999D01*
G37*
%TD.AperFunction*%
%TA.AperFunction,Conductor*%
G36*
X103845270Y-113221717D02*
G01*
X103845270Y-113221716D01*
X103884622Y-113167555D01*
X103889232Y-113158507D01*
X103937205Y-113107709D01*
X104005025Y-113090912D01*
X104071161Y-113113447D01*
X104110204Y-113158504D01*
X104114949Y-113167817D01*
X104239890Y-113339786D01*
X104390213Y-113490109D01*
X104562182Y-113615050D01*
X104570946Y-113619516D01*
X104621742Y-113667491D01*
X104638536Y-113735312D01*
X104615998Y-113801447D01*
X104570946Y-113840484D01*
X104562182Y-113844949D01*
X104390213Y-113969890D01*
X104239890Y-114120213D01*
X104114949Y-114292182D01*
X104110484Y-114300946D01*
X104062509Y-114351742D01*
X103994688Y-114368536D01*
X103928553Y-114345998D01*
X103889516Y-114300946D01*
X103885050Y-114292182D01*
X103760109Y-114120213D01*
X103609786Y-113969890D01*
X103437817Y-113844949D01*
X103428504Y-113840204D01*
X103377707Y-113792230D01*
X103360912Y-113724409D01*
X103383449Y-113658274D01*
X103428507Y-113619232D01*
X103437555Y-113614622D01*
X103491716Y-113575270D01*
X103491717Y-113575270D01*
X102867579Y-112951133D01*
X102926855Y-112935251D01*
X103043152Y-112868107D01*
X103138107Y-112773152D01*
X103205251Y-112656855D01*
X103221133Y-112597579D01*
X103845270Y-113221717D01*
G37*
%TD.AperFunction*%
%TA.AperFunction,Conductor*%
G36*
X103845270Y-110681717D02*
G01*
X103845270Y-110681716D01*
X103884622Y-110627555D01*
X103889232Y-110618507D01*
X103937205Y-110567709D01*
X104005025Y-110550912D01*
X104071161Y-110573447D01*
X104110204Y-110618504D01*
X104114949Y-110627817D01*
X104239890Y-110799786D01*
X104390213Y-110950109D01*
X104562182Y-111075050D01*
X104570946Y-111079516D01*
X104621742Y-111127491D01*
X104638536Y-111195312D01*
X104615998Y-111261447D01*
X104570946Y-111300484D01*
X104562182Y-111304949D01*
X104390213Y-111429890D01*
X104239890Y-111580213D01*
X104114949Y-111752182D01*
X104110202Y-111761499D01*
X104062227Y-111812293D01*
X103994405Y-111829087D01*
X103928271Y-111806548D01*
X103889234Y-111761495D01*
X103884626Y-111752452D01*
X103845270Y-111698282D01*
X103845269Y-111698282D01*
X103221133Y-112322419D01*
X103205251Y-112263145D01*
X103138107Y-112146848D01*
X103043152Y-112051893D01*
X102926855Y-111984749D01*
X102867580Y-111968866D01*
X103491716Y-111344728D01*
X103437550Y-111305375D01*
X103427954Y-111300486D01*
X103377157Y-111252512D01*
X103360361Y-111184692D01*
X103382897Y-111118556D01*
X103427954Y-111079514D01*
X103437554Y-111074622D01*
X103491716Y-111035270D01*
X103491717Y-111035270D01*
X102867579Y-110411133D01*
X102926855Y-110395251D01*
X103043152Y-110328107D01*
X103138107Y-110233152D01*
X103205251Y-110116855D01*
X103221133Y-110057579D01*
X103845270Y-110681717D01*
G37*
%TD.AperFunction*%
%TA.AperFunction,Conductor*%
G36*
X113575270Y-103491717D02*
G01*
X113575270Y-103491716D01*
X113614622Y-103437555D01*
X113619232Y-103428507D01*
X113667205Y-103377709D01*
X113735025Y-103360912D01*
X113801161Y-103383447D01*
X113840204Y-103428504D01*
X113844949Y-103437817D01*
X113969890Y-103609786D01*
X114120213Y-103760109D01*
X114292182Y-103885050D01*
X114300946Y-103889516D01*
X114351742Y-103937491D01*
X114368536Y-104005312D01*
X114345998Y-104071447D01*
X114300946Y-104110484D01*
X114292182Y-104114949D01*
X114120213Y-104239890D01*
X113969890Y-104390213D01*
X113844949Y-104562182D01*
X113840484Y-104570946D01*
X113792509Y-104621742D01*
X113724688Y-104638536D01*
X113658553Y-104615998D01*
X113619516Y-104570946D01*
X113615050Y-104562182D01*
X113490109Y-104390213D01*
X113339786Y-104239890D01*
X113167817Y-104114949D01*
X113158504Y-104110204D01*
X113107707Y-104062230D01*
X113090912Y-103994409D01*
X113113449Y-103928274D01*
X113158507Y-103889232D01*
X113167555Y-103884622D01*
X113221716Y-103845270D01*
X113221717Y-103845270D01*
X112597579Y-103221133D01*
X112656855Y-103205251D01*
X112773152Y-103138107D01*
X112868107Y-103043152D01*
X112935251Y-102926855D01*
X112951133Y-102867580D01*
X113575270Y-103491717D01*
G37*
%TD.AperFunction*%
%TA.AperFunction,Conductor*%
G36*
X117064749Y-102926855D02*
G01*
X117131893Y-103043152D01*
X117226848Y-103138107D01*
X117343145Y-103205251D01*
X117402419Y-103221133D01*
X116778282Y-103845269D01*
X116778282Y-103845270D01*
X116832452Y-103884626D01*
X116832451Y-103884626D01*
X116841495Y-103889234D01*
X116892292Y-103937208D01*
X116909087Y-104005029D01*
X116886550Y-104071164D01*
X116841499Y-104110202D01*
X116832182Y-104114949D01*
X116660213Y-104239890D01*
X116509890Y-104390213D01*
X116384949Y-104562182D01*
X116380484Y-104570946D01*
X116332509Y-104621742D01*
X116264688Y-104638536D01*
X116198553Y-104615998D01*
X116159516Y-104570946D01*
X116155050Y-104562182D01*
X116030109Y-104390213D01*
X115879786Y-104239890D01*
X115707820Y-104114951D01*
X115707115Y-104114591D01*
X115699054Y-104110485D01*
X115648259Y-104062512D01*
X115631463Y-103994692D01*
X115653999Y-103928556D01*
X115699054Y-103889515D01*
X115707816Y-103885051D01*
X115762572Y-103845269D01*
X115879786Y-103760109D01*
X115879788Y-103760106D01*
X115879792Y-103760104D01*
X116030104Y-103609792D01*
X116030106Y-103609788D01*
X116030109Y-103609786D01*
X116115890Y-103491717D01*
X116155051Y-103437816D01*
X116159793Y-103428508D01*
X116207763Y-103377711D01*
X116275583Y-103360911D01*
X116341719Y-103383445D01*
X116380763Y-103428500D01*
X116385373Y-103437547D01*
X116424728Y-103491716D01*
X117048866Y-102867579D01*
X117064749Y-102926855D01*
G37*
%TD.AperFunction*%
%TA.AperFunction,Conductor*%
G36*
X119604749Y-102926855D02*
G01*
X119671893Y-103043152D01*
X119766848Y-103138107D01*
X119883145Y-103205251D01*
X119942419Y-103221133D01*
X119318282Y-103845269D01*
X119318282Y-103845270D01*
X119372452Y-103884626D01*
X119372451Y-103884626D01*
X119381495Y-103889234D01*
X119432292Y-103937208D01*
X119449087Y-104005029D01*
X119426550Y-104071164D01*
X119381499Y-104110202D01*
X119372182Y-104114949D01*
X119200213Y-104239890D01*
X119049890Y-104390213D01*
X118924949Y-104562182D01*
X118920484Y-104570946D01*
X118872509Y-104621742D01*
X118804688Y-104638536D01*
X118738553Y-104615998D01*
X118699516Y-104570946D01*
X118695050Y-104562182D01*
X118570109Y-104390213D01*
X118419786Y-104239890D01*
X118247817Y-104114949D01*
X118238504Y-104110204D01*
X118187707Y-104062230D01*
X118170912Y-103994409D01*
X118193449Y-103928274D01*
X118238507Y-103889232D01*
X118247555Y-103884622D01*
X118301716Y-103845270D01*
X118301717Y-103845270D01*
X117677579Y-103221133D01*
X117736855Y-103205251D01*
X117853152Y-103138107D01*
X117948107Y-103043152D01*
X118015251Y-102926855D01*
X118031133Y-102867579D01*
X118655270Y-103491717D01*
X118655270Y-103491716D01*
X118694622Y-103437554D01*
X118699514Y-103427954D01*
X118747488Y-103377157D01*
X118815308Y-103360361D01*
X118881444Y-103382897D01*
X118920486Y-103427954D01*
X118925375Y-103437550D01*
X118964728Y-103491716D01*
X119588866Y-102867579D01*
X119604749Y-102926855D01*
G37*
%TD.AperFunction*%
%TA.AperFunction,Conductor*%
G36*
X111984749Y-102926855D02*
G01*
X112051893Y-103043152D01*
X112146848Y-103138107D01*
X112263145Y-103205251D01*
X112322419Y-103221133D01*
X111698282Y-103845269D01*
X111698282Y-103845270D01*
X111752452Y-103884626D01*
X111752451Y-103884626D01*
X111761495Y-103889234D01*
X111812292Y-103937208D01*
X111829087Y-104005029D01*
X111806550Y-104071164D01*
X111761499Y-104110202D01*
X111752182Y-104114949D01*
X111580215Y-104239889D01*
X111466673Y-104353431D01*
X111405350Y-104386915D01*
X111335658Y-104381931D01*
X111279725Y-104340059D01*
X111262810Y-104309082D01*
X111213797Y-104177671D01*
X111213793Y-104177664D01*
X111127547Y-104062455D01*
X111127544Y-104062452D01*
X111012335Y-103976206D01*
X111012328Y-103976202D01*
X110877482Y-103925908D01*
X110877483Y-103925908D01*
X110817883Y-103919501D01*
X110817881Y-103919500D01*
X110817873Y-103919500D01*
X110817865Y-103919500D01*
X110807309Y-103919500D01*
X110740270Y-103899815D01*
X110719628Y-103883181D01*
X110057579Y-103221133D01*
X110116855Y-103205251D01*
X110233152Y-103138107D01*
X110328107Y-103043152D01*
X110395251Y-102926855D01*
X110411133Y-102867580D01*
X111035270Y-103491717D01*
X111035270Y-103491716D01*
X111074622Y-103437554D01*
X111079514Y-103427954D01*
X111127488Y-103377157D01*
X111195308Y-103360361D01*
X111261444Y-103382897D01*
X111300486Y-103427954D01*
X111305375Y-103437550D01*
X111344728Y-103491716D01*
X111968866Y-102867579D01*
X111984749Y-102926855D01*
G37*
%TD.AperFunction*%
%TA.AperFunction,Conductor*%
G36*
X126794749Y-117736855D02*
G01*
X126861893Y-117853152D01*
X126956848Y-117948107D01*
X127073145Y-118015251D01*
X127132419Y-118031133D01*
X126539971Y-118623581D01*
X126618711Y-118740895D01*
X126619920Y-118744729D01*
X126622844Y-118747491D01*
X126630343Y-118777778D01*
X126639727Y-118807529D01*
X126638671Y-118811408D01*
X126639638Y-118815312D01*
X126629573Y-118844844D01*
X126621383Y-118874947D01*
X126618397Y-118877640D01*
X126617100Y-118881447D01*
X126572051Y-118920483D01*
X126562440Y-118925380D01*
X126508282Y-118964727D01*
X126508282Y-118964728D01*
X127132420Y-119588866D01*
X127073145Y-119604749D01*
X126956848Y-119671893D01*
X126861893Y-119766848D01*
X126794749Y-119883145D01*
X126778866Y-119942420D01*
X126154728Y-119318282D01*
X126154727Y-119318282D01*
X126115380Y-119372440D01*
X126115376Y-119372446D01*
X126110760Y-119381505D01*
X126062781Y-119432297D01*
X125994959Y-119449087D01*
X125928826Y-119426543D01*
X125889794Y-119381493D01*
X125885051Y-119372184D01*
X125885049Y-119372181D01*
X125885048Y-119372179D01*
X125760109Y-119200213D01*
X125609786Y-119049890D01*
X125437820Y-118924951D01*
X125437115Y-118924591D01*
X125429054Y-118920485D01*
X125378259Y-118872512D01*
X125361463Y-118804692D01*
X125383999Y-118738556D01*
X125429054Y-118699515D01*
X125437816Y-118695051D01*
X125536187Y-118623581D01*
X125609786Y-118570109D01*
X125609788Y-118570106D01*
X125609792Y-118570104D01*
X125760104Y-118419792D01*
X125760106Y-118419788D01*
X125760109Y-118419786D01*
X125845890Y-118301717D01*
X125885051Y-118247816D01*
X125889793Y-118238508D01*
X125937763Y-118187711D01*
X126005583Y-118170911D01*
X126071719Y-118193445D01*
X126110763Y-118238500D01*
X126115373Y-118247547D01*
X126154728Y-118301716D01*
X126778866Y-117677579D01*
X126794749Y-117736855D01*
G37*
%TD.AperFunction*%
%TA.AperFunction,Conductor*%
G36*
X126071444Y-115653999D02*
G01*
X126110486Y-115699056D01*
X126114951Y-115707820D01*
X126239890Y-115879786D01*
X126390213Y-116030109D01*
X126562179Y-116155048D01*
X126562181Y-116155049D01*
X126562184Y-116155051D01*
X126571493Y-116159794D01*
X126622290Y-116207766D01*
X126639087Y-116275587D01*
X126616552Y-116341722D01*
X126571505Y-116380760D01*
X126562446Y-116385376D01*
X126562440Y-116385380D01*
X126508282Y-116424727D01*
X126508282Y-116424728D01*
X127132420Y-117048866D01*
X127073145Y-117064749D01*
X126956848Y-117131893D01*
X126861893Y-117226848D01*
X126794749Y-117343145D01*
X126778866Y-117402420D01*
X126154728Y-116778282D01*
X126154727Y-116778282D01*
X126115380Y-116832440D01*
X126115376Y-116832446D01*
X126110760Y-116841505D01*
X126062781Y-116892297D01*
X125994959Y-116909087D01*
X125928826Y-116886543D01*
X125889794Y-116841493D01*
X125885051Y-116832184D01*
X125885049Y-116832181D01*
X125885048Y-116832179D01*
X125760109Y-116660213D01*
X125609786Y-116509890D01*
X125437820Y-116384951D01*
X125429600Y-116380763D01*
X125429054Y-116380485D01*
X125378259Y-116332512D01*
X125361463Y-116264692D01*
X125383999Y-116198556D01*
X125429054Y-116159515D01*
X125437816Y-116155051D01*
X125459789Y-116139086D01*
X125609786Y-116030109D01*
X125609788Y-116030106D01*
X125609792Y-116030104D01*
X125760104Y-115879792D01*
X125760106Y-115879788D01*
X125760109Y-115879786D01*
X125885048Y-115707820D01*
X125885047Y-115707820D01*
X125885051Y-115707816D01*
X125889514Y-115699054D01*
X125937488Y-115648259D01*
X126005308Y-115631463D01*
X126071444Y-115653999D01*
G37*
%TD.AperFunction*%
%TA.AperFunction,Conductor*%
G36*
X126794749Y-112656855D02*
G01*
X126861893Y-112773152D01*
X126956848Y-112868107D01*
X127073145Y-112935251D01*
X127132419Y-112951133D01*
X126508282Y-113575269D01*
X126508282Y-113575270D01*
X126562452Y-113614626D01*
X126562451Y-113614626D01*
X126571495Y-113619234D01*
X126622292Y-113667208D01*
X126639087Y-113735029D01*
X126616550Y-113801164D01*
X126571499Y-113840202D01*
X126562182Y-113844949D01*
X126390213Y-113969890D01*
X126239890Y-114120213D01*
X126114949Y-114292182D01*
X126110484Y-114300946D01*
X126062509Y-114351742D01*
X125994688Y-114368536D01*
X125928553Y-114345998D01*
X125889516Y-114300946D01*
X125885050Y-114292182D01*
X125760109Y-114120213D01*
X125609786Y-113969890D01*
X125437820Y-113844951D01*
X125437115Y-113844591D01*
X125429054Y-113840485D01*
X125378259Y-113792512D01*
X125361463Y-113724692D01*
X125383999Y-113658556D01*
X125429054Y-113619515D01*
X125437816Y-113615051D01*
X125492572Y-113575269D01*
X125609786Y-113490109D01*
X125609788Y-113490106D01*
X125609792Y-113490104D01*
X125760104Y-113339792D01*
X125760106Y-113339788D01*
X125760109Y-113339786D01*
X125845890Y-113221717D01*
X125885051Y-113167816D01*
X125889793Y-113158508D01*
X125937763Y-113107711D01*
X126005583Y-113090911D01*
X126071719Y-113113445D01*
X126110763Y-113158500D01*
X126115373Y-113167547D01*
X126154728Y-113221716D01*
X126778866Y-112597579D01*
X126794749Y-112656855D01*
G37*
%TD.AperFunction*%
%TA.AperFunction,Conductor*%
G36*
X126794749Y-110116855D02*
G01*
X126861893Y-110233152D01*
X126956848Y-110328107D01*
X127073145Y-110395251D01*
X127132419Y-110411133D01*
X126539971Y-111003581D01*
X126618711Y-111120895D01*
X126639727Y-111187529D01*
X126621383Y-111254947D01*
X126572051Y-111300483D01*
X126562440Y-111305380D01*
X126508282Y-111344727D01*
X126508282Y-111344728D01*
X127132420Y-111968866D01*
X127073145Y-111984749D01*
X126956848Y-112051893D01*
X126861893Y-112146848D01*
X126794749Y-112263145D01*
X126778866Y-112322420D01*
X126154728Y-111698282D01*
X126154727Y-111698282D01*
X126115380Y-111752440D01*
X126115376Y-111752446D01*
X126110760Y-111761505D01*
X126062781Y-111812297D01*
X125994959Y-111829087D01*
X125928826Y-111806543D01*
X125889794Y-111761493D01*
X125885051Y-111752184D01*
X125885049Y-111752181D01*
X125885048Y-111752179D01*
X125760109Y-111580213D01*
X125646569Y-111466673D01*
X125613084Y-111405350D01*
X125618068Y-111335658D01*
X125659940Y-111279725D01*
X125690915Y-111262810D01*
X125822331Y-111213796D01*
X125937546Y-111127546D01*
X126023796Y-111012331D01*
X126074091Y-110877483D01*
X126080500Y-110817873D01*
X126080499Y-110793979D01*
X126083330Y-110780963D01*
X126093940Y-110761525D01*
X126100179Y-110740275D01*
X126116803Y-110719643D01*
X126116808Y-110719636D01*
X126116811Y-110719634D01*
X126116818Y-110719626D01*
X126778866Y-110057579D01*
X126794749Y-110116855D01*
G37*
%TD.AperFunction*%
%TA.AperFunction,Conductor*%
G36*
X129442539Y-100520185D02*
G01*
X129488294Y-100572989D01*
X129499500Y-100624500D01*
X129499500Y-160375500D01*
X129479815Y-160442539D01*
X129427011Y-160488294D01*
X129375500Y-160499500D01*
X100624500Y-160499500D01*
X100557461Y-160479815D01*
X100511706Y-160427011D01*
X100500500Y-160375500D01*
X100500500Y-145893713D01*
X101379500Y-145893713D01*
X101379500Y-146106286D01*
X101412753Y-146316239D01*
X101478444Y-146518414D01*
X101574951Y-146707820D01*
X101699890Y-146879786D01*
X101850213Y-147030109D01*
X102022179Y-147155048D01*
X102022181Y-147155049D01*
X102022184Y-147155051D01*
X102031493Y-147159794D01*
X102082290Y-147207766D01*
X102099087Y-147275587D01*
X102076552Y-147341722D01*
X102031505Y-147380760D01*
X102022446Y-147385376D01*
X102022440Y-147385380D01*
X101968282Y-147424727D01*
X101968282Y-147424728D01*
X102592420Y-148048866D01*
X102533145Y-148064749D01*
X102416848Y-148131893D01*
X102321893Y-148226848D01*
X102254749Y-148343145D01*
X102238866Y-148402420D01*
X101614728Y-147778282D01*
X101614727Y-147778282D01*
X101575380Y-147832439D01*
X101478904Y-148021782D01*
X101413242Y-148223869D01*
X101413242Y-148223872D01*
X101380000Y-148433753D01*
X101380000Y-148646246D01*
X101413242Y-148856127D01*
X101413242Y-148856130D01*
X101478904Y-149058217D01*
X101575375Y-149247550D01*
X101614728Y-149301716D01*
X102238866Y-148677579D01*
X102254749Y-148736855D01*
X102321893Y-148853152D01*
X102416848Y-148948107D01*
X102533145Y-149015251D01*
X102592419Y-149031133D01*
X101999971Y-149623581D01*
X102078711Y-149740895D01*
X102079920Y-149744729D01*
X102082844Y-149747491D01*
X102090343Y-149777778D01*
X102099727Y-149807529D01*
X102098671Y-149811408D01*
X102099638Y-149815312D01*
X102089573Y-149844844D01*
X102081383Y-149874947D01*
X102078397Y-149877640D01*
X102077100Y-149881447D01*
X102032051Y-149920483D01*
X102022440Y-149925380D01*
X101968282Y-149964727D01*
X101968282Y-149964728D01*
X102592420Y-150588866D01*
X102533145Y-150604749D01*
X102416848Y-150671893D01*
X102321893Y-150766848D01*
X102254749Y-150883145D01*
X102238866Y-150942420D01*
X101614728Y-150318282D01*
X101614727Y-150318282D01*
X101575380Y-150372439D01*
X101478904Y-150561782D01*
X101413242Y-150763869D01*
X101413242Y-150763872D01*
X101380000Y-150973753D01*
X101380000Y-151186246D01*
X101413242Y-151396127D01*
X101413242Y-151396130D01*
X101478904Y-151598217D01*
X101575375Y-151787550D01*
X101614728Y-151841716D01*
X102238866Y-151217579D01*
X102254749Y-151276855D01*
X102321893Y-151393152D01*
X102416848Y-151488107D01*
X102533145Y-151555251D01*
X102592419Y-151571133D01*
X101968282Y-152195269D01*
X101968282Y-152195270D01*
X102022449Y-152234624D01*
X102211782Y-152331095D01*
X102413870Y-152396757D01*
X102623754Y-152430000D01*
X102836246Y-152430000D01*
X103046127Y-152396757D01*
X103046130Y-152396757D01*
X103248217Y-152331095D01*
X103437554Y-152234622D01*
X103491716Y-152195270D01*
X103491717Y-152195270D01*
X102867579Y-151571133D01*
X102926855Y-151555251D01*
X103043152Y-151488107D01*
X103138107Y-151393152D01*
X103205251Y-151276855D01*
X103221133Y-151217579D01*
X103883181Y-151879628D01*
X103916666Y-151940951D01*
X103919500Y-151967300D01*
X103919500Y-151977865D01*
X103919501Y-151977876D01*
X103925908Y-152037483D01*
X103976202Y-152172328D01*
X103976206Y-152172335D01*
X104062452Y-152287544D01*
X104062455Y-152287547D01*
X104177664Y-152373793D01*
X104177671Y-152373797D01*
X104312517Y-152424091D01*
X104312516Y-152424091D01*
X104319444Y-152424835D01*
X104372127Y-152430500D01*
X106167872Y-152430499D01*
X106227483Y-152424091D01*
X106362331Y-152373796D01*
X106477546Y-152287546D01*
X106563796Y-152172331D01*
X106614091Y-152037483D01*
X106620500Y-151977873D01*
X106620499Y-150182128D01*
X106614091Y-150122517D01*
X106563796Y-149987669D01*
X106563795Y-149987668D01*
X106563793Y-149987664D01*
X106477547Y-149872455D01*
X106477544Y-149872452D01*
X106362335Y-149786206D01*
X106362328Y-149786202D01*
X106230917Y-149737189D01*
X106174983Y-149695318D01*
X106150566Y-149629853D01*
X106165418Y-149561580D01*
X106186563Y-149533332D01*
X106300104Y-149419792D01*
X106425051Y-149247816D01*
X106521557Y-149058412D01*
X106587246Y-148856243D01*
X106620500Y-148646287D01*
X106620500Y-148433713D01*
X106587246Y-148223757D01*
X106521557Y-148021588D01*
X106425051Y-147832184D01*
X106425049Y-147832181D01*
X106425048Y-147832179D01*
X106300109Y-147660213D01*
X106149786Y-147509890D01*
X105977820Y-147384951D01*
X105969600Y-147380763D01*
X105969054Y-147380485D01*
X105918259Y-147332512D01*
X105901463Y-147264692D01*
X105923999Y-147198556D01*
X105969054Y-147159515D01*
X105977816Y-147155051D01*
X105999789Y-147139086D01*
X106149786Y-147030109D01*
X106149788Y-147030106D01*
X106149792Y-147030104D01*
X106300104Y-146879792D01*
X106300106Y-146879788D01*
X106300109Y-146879786D01*
X106380063Y-146769737D01*
X106425051Y-146707816D01*
X106425349Y-146707230D01*
X106445235Y-146668205D01*
X106493209Y-146617409D01*
X106555719Y-146600500D01*
X111599903Y-146600500D01*
X111666942Y-146620185D01*
X111687584Y-146636819D01*
X114363181Y-149312416D01*
X114396666Y-149373739D01*
X114399500Y-149400097D01*
X114399500Y-153444281D01*
X114379815Y-153511320D01*
X114331795Y-153554765D01*
X114292185Y-153574947D01*
X114292184Y-153574948D01*
X114120213Y-153699890D01*
X113969890Y-153850213D01*
X113844949Y-154022182D01*
X113840484Y-154030946D01*
X113792509Y-154081742D01*
X113724688Y-154098536D01*
X113658553Y-154075998D01*
X113619516Y-154030946D01*
X113615050Y-154022182D01*
X113490109Y-153850213D01*
X113339786Y-153699890D01*
X113167820Y-153574951D01*
X112978414Y-153478444D01*
X112978413Y-153478443D01*
X112978412Y-153478443D01*
X112776243Y-153412754D01*
X112776241Y-153412753D01*
X112776240Y-153412753D01*
X112614957Y-153387208D01*
X112566287Y-153379500D01*
X112353713Y-153379500D01*
X112305042Y-153387208D01*
X112143760Y-153412753D01*
X111941585Y-153478444D01*
X111752179Y-153574951D01*
X111580213Y-153699890D01*
X111429890Y-153850213D01*
X111304949Y-154022182D01*
X111300484Y-154030946D01*
X111252509Y-154081742D01*
X111184688Y-154098536D01*
X111118553Y-154075998D01*
X111079516Y-154030946D01*
X111075050Y-154022182D01*
X110950109Y-153850213D01*
X110799786Y-153699890D01*
X110627820Y-153574951D01*
X110438414Y-153478444D01*
X110438413Y-153478443D01*
X110438412Y-153478443D01*
X110236243Y-153412754D01*
X110236241Y-153412753D01*
X110236240Y-153412753D01*
X110074957Y-153387208D01*
X110026287Y-153379500D01*
X109813713Y-153379500D01*
X109765042Y-153387208D01*
X109603760Y-153412753D01*
X109401585Y-153478444D01*
X109212179Y-153574951D01*
X109040213Y-153699890D01*
X108889890Y-153850213D01*
X108764951Y-154022179D01*
X108668444Y-154211585D01*
X108602753Y-154413760D01*
X108569500Y-154623713D01*
X108569500Y-154836286D01*
X108602753Y-155046239D01*
X108668444Y-155248414D01*
X108764951Y-155437820D01*
X108889890Y-155609786D01*
X109040213Y-155760109D01*
X109212179Y-155885048D01*
X109212181Y-155885049D01*
X109212184Y-155885051D01*
X109221493Y-155889794D01*
X109272290Y-155937766D01*
X109289087Y-156005587D01*
X109266552Y-156071722D01*
X109221505Y-156110760D01*
X109212446Y-156115376D01*
X109212440Y-156115380D01*
X109158282Y-156154727D01*
X109158282Y-156154728D01*
X109782420Y-156778866D01*
X109723145Y-156794749D01*
X109606848Y-156861893D01*
X109511893Y-156956848D01*
X109444749Y-157073145D01*
X109428866Y-157132420D01*
X108804728Y-156508282D01*
X108804727Y-156508282D01*
X108765380Y-156562439D01*
X108668904Y-156751782D01*
X108603242Y-156953869D01*
X108603242Y-156953872D01*
X108570000Y-157163753D01*
X108570000Y-157376246D01*
X108603242Y-157586127D01*
X108603242Y-157586130D01*
X108668904Y-157788217D01*
X108765375Y-157977550D01*
X108804728Y-158031716D01*
X109428866Y-157407579D01*
X109444749Y-157466855D01*
X109511893Y-157583152D01*
X109606848Y-157678107D01*
X109723145Y-157745251D01*
X109782419Y-157761133D01*
X109158282Y-158385269D01*
X109158282Y-158385270D01*
X109212449Y-158424624D01*
X109401782Y-158521095D01*
X109603870Y-158586757D01*
X109813754Y-158620000D01*
X110026246Y-158620000D01*
X110236127Y-158586757D01*
X110236130Y-158586757D01*
X110438217Y-158521095D01*
X110627554Y-158424622D01*
X110681716Y-158385270D01*
X110681717Y-158385270D01*
X110057579Y-157761133D01*
X110116855Y-157745251D01*
X110233152Y-157678107D01*
X110328107Y-157583152D01*
X110395251Y-157466855D01*
X110411133Y-157407580D01*
X111035270Y-158031717D01*
X111035270Y-158031716D01*
X111074622Y-157977554D01*
X111079514Y-157967954D01*
X111127488Y-157917157D01*
X111195308Y-157900361D01*
X111261444Y-157922897D01*
X111300486Y-157967954D01*
X111305375Y-157977550D01*
X111344728Y-158031716D01*
X111968866Y-157407579D01*
X111984749Y-157466855D01*
X112051893Y-157583152D01*
X112146848Y-157678107D01*
X112263145Y-157745251D01*
X112322419Y-157761133D01*
X111698282Y-158385269D01*
X111698282Y-158385270D01*
X111752449Y-158424624D01*
X111941782Y-158521095D01*
X112143870Y-158586757D01*
X112353754Y-158620000D01*
X112566246Y-158620000D01*
X112776127Y-158586757D01*
X112776130Y-158586757D01*
X112978217Y-158521095D01*
X113167554Y-158424622D01*
X113221716Y-158385270D01*
X113221717Y-158385270D01*
X112597579Y-157761133D01*
X112656855Y-157745251D01*
X112773152Y-157678107D01*
X112868107Y-157583152D01*
X112935251Y-157466855D01*
X112951133Y-157407580D01*
X113575270Y-158031717D01*
X113575270Y-158031716D01*
X113614622Y-157977555D01*
X113619232Y-157968507D01*
X113667205Y-157917709D01*
X113735025Y-157900912D01*
X113801161Y-157923447D01*
X113840204Y-157968504D01*
X113844949Y-157977817D01*
X113969890Y-158149786D01*
X114120213Y-158300109D01*
X114292179Y-158425048D01*
X114292181Y-158425049D01*
X114292184Y-158425051D01*
X114481588Y-158521557D01*
X114683757Y-158587246D01*
X114893713Y-158620500D01*
X114893714Y-158620500D01*
X115106286Y-158620500D01*
X115106287Y-158620500D01*
X115316243Y-158587246D01*
X115518412Y-158521557D01*
X115707816Y-158425051D01*
X115762572Y-158385269D01*
X115879786Y-158300109D01*
X115879788Y-158300106D01*
X115879792Y-158300104D01*
X116030104Y-158149792D01*
X116030106Y-158149788D01*
X116030109Y-158149786D01*
X116115890Y-158031717D01*
X116155051Y-157977816D01*
X116159793Y-157968508D01*
X116207763Y-157917711D01*
X116275583Y-157900911D01*
X116341719Y-157923445D01*
X116380763Y-157968500D01*
X116385373Y-157977547D01*
X116424728Y-158031716D01*
X117048866Y-157407579D01*
X117064749Y-157466855D01*
X117131893Y-157583152D01*
X117226848Y-157678107D01*
X117343145Y-157745251D01*
X117402419Y-157761133D01*
X116778282Y-158385269D01*
X116778282Y-158385270D01*
X116832449Y-158424624D01*
X117021782Y-158521095D01*
X117223870Y-158586757D01*
X117433754Y-158620000D01*
X117646246Y-158620000D01*
X117856127Y-158586757D01*
X117856130Y-158586757D01*
X118058217Y-158521095D01*
X118247554Y-158424622D01*
X118301716Y-158385270D01*
X118301717Y-158385270D01*
X117677579Y-157761133D01*
X117736855Y-157745251D01*
X117853152Y-157678107D01*
X117948107Y-157583152D01*
X118015251Y-157466855D01*
X118031133Y-157407579D01*
X118655270Y-158031717D01*
X118655270Y-158031716D01*
X118694622Y-157977554D01*
X118699514Y-157967954D01*
X118747488Y-157917157D01*
X118815308Y-157900361D01*
X118881444Y-157922897D01*
X118920486Y-157967954D01*
X118925375Y-157977550D01*
X118964728Y-158031716D01*
X119588866Y-157407579D01*
X119604749Y-157466855D01*
X119671893Y-157583152D01*
X119766848Y-157678107D01*
X119883145Y-157745251D01*
X119942419Y-157761133D01*
X119318282Y-158385269D01*
X119318282Y-158385270D01*
X119372449Y-158424624D01*
X119561782Y-158521095D01*
X119763870Y-158586757D01*
X119973754Y-158620000D01*
X120186246Y-158620000D01*
X120396127Y-158586757D01*
X120396130Y-158586757D01*
X120598217Y-158521095D01*
X120787554Y-158424622D01*
X120841716Y-158385270D01*
X120841717Y-158385270D01*
X120217579Y-157761133D01*
X120276855Y-157745251D01*
X120393152Y-157678107D01*
X120488107Y-157583152D01*
X120555251Y-157466855D01*
X120571133Y-157407580D01*
X121195270Y-158031717D01*
X121195270Y-158031716D01*
X121234622Y-157977554D01*
X121331095Y-157788217D01*
X121396757Y-157586130D01*
X121396757Y-157586127D01*
X121430000Y-157376246D01*
X121430000Y-157163753D01*
X121396757Y-156953872D01*
X121396757Y-156953869D01*
X121331095Y-156751782D01*
X121234624Y-156562449D01*
X121195270Y-156508282D01*
X121195269Y-156508282D01*
X120571133Y-157132419D01*
X120555251Y-157073145D01*
X120488107Y-156956848D01*
X120393152Y-156861893D01*
X120276855Y-156794749D01*
X120217580Y-156778866D01*
X120879627Y-156116818D01*
X120940950Y-156083333D01*
X120967307Y-156080499D01*
X120977872Y-156080499D01*
X121037483Y-156074091D01*
X121172331Y-156023796D01*
X121287546Y-155937546D01*
X121373796Y-155822331D01*
X121424091Y-155687483D01*
X121430500Y-155627873D01*
X121430499Y-153832128D01*
X121424091Y-153772517D01*
X121422810Y-153769083D01*
X121373797Y-153637671D01*
X121373793Y-153637664D01*
X121287547Y-153522455D01*
X121287544Y-153522452D01*
X121172335Y-153436206D01*
X121172328Y-153436202D01*
X121037482Y-153385908D01*
X121037483Y-153385908D01*
X120977883Y-153379501D01*
X120977881Y-153379500D01*
X120977873Y-153379500D01*
X120977864Y-153379500D01*
X119182129Y-153379500D01*
X119182123Y-153379501D01*
X119122516Y-153385908D01*
X118987671Y-153436202D01*
X118987664Y-153436206D01*
X118872455Y-153522452D01*
X118872452Y-153522455D01*
X118786206Y-153637664D01*
X118786203Y-153637669D01*
X118737189Y-153769083D01*
X118695317Y-153825016D01*
X118629853Y-153849433D01*
X118561580Y-153834581D01*
X118533326Y-153813430D01*
X118419786Y-153699890D01*
X118247820Y-153574951D01*
X118058414Y-153478444D01*
X118058413Y-153478443D01*
X118058412Y-153478443D01*
X117856243Y-153412754D01*
X117856241Y-153412753D01*
X117856240Y-153412753D01*
X117694957Y-153387208D01*
X117646287Y-153379500D01*
X117433713Y-153379500D01*
X117385042Y-153387208D01*
X117223760Y-153412753D01*
X117021585Y-153478444D01*
X116832179Y-153574951D01*
X116660213Y-153699890D01*
X116509890Y-153850213D01*
X116384949Y-154022182D01*
X116380484Y-154030946D01*
X116332509Y-154081742D01*
X116264688Y-154098536D01*
X116198553Y-154075998D01*
X116159516Y-154030946D01*
X116155050Y-154022182D01*
X116030109Y-153850213D01*
X115879786Y-153699890D01*
X115707815Y-153574948D01*
X115707814Y-153574947D01*
X115668205Y-153554765D01*
X115617409Y-153506791D01*
X115600500Y-153444281D01*
X115600500Y-149189059D01*
X115600501Y-149189046D01*
X115600501Y-149020945D01*
X115600501Y-149020943D01*
X115559577Y-148868215D01*
X115530639Y-148818095D01*
X115480520Y-148731284D01*
X115368716Y-148619480D01*
X115368715Y-148619479D01*
X115364385Y-148615149D01*
X115364374Y-148615139D01*
X113561416Y-146812181D01*
X113527931Y-146750858D01*
X113532915Y-146681166D01*
X113574787Y-146625233D01*
X113640251Y-146600816D01*
X113649097Y-146600500D01*
X117290234Y-146600500D01*
X117357273Y-146620185D01*
X117359125Y-146621398D01*
X117490814Y-146709390D01*
X117490827Y-146709397D01*
X117636498Y-146769735D01*
X117636503Y-146769737D01*
X117791153Y-146800499D01*
X117791156Y-146800500D01*
X117791158Y-146800500D01*
X117948844Y-146800500D01*
X117948845Y-146800499D01*
X118103497Y-146769737D01*
X118249179Y-146709394D01*
X118310823Y-146668205D01*
X118380875Y-146621398D01*
X118447553Y-146600520D01*
X118449766Y-146600500D01*
X123444281Y-146600500D01*
X123511320Y-146620185D01*
X123554765Y-146668205D01*
X123574947Y-146707814D01*
X123574948Y-146707815D01*
X123699890Y-146879786D01*
X123850213Y-147030109D01*
X124022182Y-147155050D01*
X124030946Y-147159516D01*
X124081742Y-147207491D01*
X124098536Y-147275312D01*
X124075998Y-147341447D01*
X124030946Y-147380484D01*
X124022182Y-147384949D01*
X123850213Y-147509890D01*
X123699890Y-147660213D01*
X123574951Y-147832179D01*
X123478444Y-148021585D01*
X123412753Y-148223760D01*
X123379500Y-148433713D01*
X123379500Y-148646286D01*
X123412735Y-148856127D01*
X123412754Y-148856243D01*
X123466269Y-149020945D01*
X123478444Y-149058414D01*
X123574951Y-149247820D01*
X123699890Y-149419786D01*
X123850213Y-149570109D01*
X124022182Y-149695050D01*
X124030946Y-149699516D01*
X124081742Y-149747491D01*
X124098536Y-149815312D01*
X124075998Y-149881447D01*
X124030946Y-149920484D01*
X124022182Y-149924949D01*
X123850213Y-150049890D01*
X123699890Y-150200213D01*
X123574951Y-150372179D01*
X123478444Y-150561585D01*
X123412753Y-150763760D01*
X123379500Y-150973713D01*
X123379500Y-151186286D01*
X123412753Y-151396239D01*
X123478444Y-151598414D01*
X123574951Y-151787820D01*
X123699890Y-151959786D01*
X123850213Y-152110109D01*
X124022179Y-152235048D01*
X124022181Y-152235049D01*
X124022184Y-152235051D01*
X124211588Y-152331557D01*
X124413757Y-152397246D01*
X124623713Y-152430500D01*
X124623714Y-152430500D01*
X124836286Y-152430500D01*
X124836287Y-152430500D01*
X125046243Y-152397246D01*
X125248412Y-152331557D01*
X125437816Y-152235051D01*
X125524138Y-152172335D01*
X125609786Y-152110109D01*
X125609788Y-152110106D01*
X125609792Y-152110104D01*
X125760104Y-151959792D01*
X125760106Y-151959788D01*
X125760109Y-151959786D01*
X125845890Y-151841717D01*
X125885051Y-151787816D01*
X125889793Y-151778508D01*
X125937763Y-151727711D01*
X126005583Y-151710911D01*
X126071719Y-151733445D01*
X126110763Y-151778500D01*
X126115373Y-151787547D01*
X126154728Y-151841716D01*
X126778866Y-151217579D01*
X126794749Y-151276855D01*
X126861893Y-151393152D01*
X126956848Y-151488107D01*
X127073145Y-151555251D01*
X127132419Y-151571133D01*
X126508282Y-152195269D01*
X126508282Y-152195270D01*
X126562449Y-152234624D01*
X126751782Y-152331095D01*
X126953870Y-152396757D01*
X127163754Y-152430000D01*
X127376246Y-152430000D01*
X127586127Y-152396757D01*
X127586130Y-152396757D01*
X127788217Y-152331095D01*
X127977554Y-152234622D01*
X128031716Y-152195270D01*
X128031717Y-152195270D01*
X127407579Y-151571133D01*
X127466855Y-151555251D01*
X127583152Y-151488107D01*
X127678107Y-151393152D01*
X127745251Y-151276855D01*
X127761133Y-151217579D01*
X128385270Y-151841717D01*
X128385270Y-151841716D01*
X128424622Y-151787554D01*
X128521095Y-151598217D01*
X128586757Y-151396130D01*
X128586757Y-151396127D01*
X128620000Y-151186246D01*
X128620000Y-150973753D01*
X128586757Y-150763872D01*
X128586757Y-150763869D01*
X128521095Y-150561782D01*
X128424624Y-150372449D01*
X128385270Y-150318282D01*
X128385269Y-150318282D01*
X127761133Y-150942419D01*
X127745251Y-150883145D01*
X127678107Y-150766848D01*
X127583152Y-150671893D01*
X127466855Y-150604749D01*
X127407580Y-150588866D01*
X128031716Y-149964728D01*
X127977550Y-149925375D01*
X127967954Y-149920486D01*
X127917157Y-149872512D01*
X127900361Y-149804692D01*
X127922897Y-149738556D01*
X127967954Y-149699514D01*
X127977554Y-149694622D01*
X128031716Y-149655270D01*
X128031717Y-149655270D01*
X127407579Y-149031133D01*
X127466855Y-149015251D01*
X127583152Y-148948107D01*
X127678107Y-148853152D01*
X127745251Y-148736855D01*
X127761133Y-148677579D01*
X128385270Y-149301717D01*
X128385270Y-149301716D01*
X128424622Y-149247554D01*
X128521095Y-149058217D01*
X128586757Y-148856130D01*
X128586757Y-148856127D01*
X128620000Y-148646246D01*
X128620000Y-148433753D01*
X128586757Y-148223872D01*
X128586757Y-148223869D01*
X128521095Y-148021782D01*
X128424624Y-147832449D01*
X128385270Y-147778282D01*
X128385269Y-147778282D01*
X127761133Y-148402419D01*
X127745251Y-148343145D01*
X127678107Y-148226848D01*
X127583152Y-148131893D01*
X127466855Y-148064749D01*
X127407580Y-148048866D01*
X128031716Y-147424728D01*
X127977547Y-147385373D01*
X127977547Y-147385372D01*
X127968500Y-147380763D01*
X127917706Y-147332788D01*
X127900912Y-147264966D01*
X127923451Y-147198832D01*
X127968508Y-147159793D01*
X127977816Y-147155051D01*
X128057007Y-147097515D01*
X128149786Y-147030109D01*
X128149788Y-147030106D01*
X128149792Y-147030104D01*
X128300104Y-146879792D01*
X128300106Y-146879788D01*
X128300109Y-146879786D01*
X128423902Y-146709397D01*
X128425051Y-146707816D01*
X128521557Y-146518412D01*
X128587246Y-146316243D01*
X128620500Y-146106287D01*
X128620500Y-145893713D01*
X128587246Y-145683757D01*
X128521557Y-145481588D01*
X128425051Y-145292184D01*
X128425049Y-145292181D01*
X128425048Y-145292179D01*
X128300109Y-145120213D01*
X128149786Y-144969890D01*
X127977817Y-144844949D01*
X127968504Y-144840204D01*
X127917707Y-144792230D01*
X127900912Y-144724409D01*
X127923449Y-144658274D01*
X127968507Y-144619232D01*
X127977555Y-144614622D01*
X128031716Y-144575270D01*
X128031717Y-144575270D01*
X127407579Y-143951133D01*
X127466855Y-143935251D01*
X127583152Y-143868107D01*
X127678107Y-143773152D01*
X127745251Y-143656855D01*
X127761133Y-143597579D01*
X128385270Y-144221717D01*
X128385270Y-144221716D01*
X128424622Y-144167554D01*
X128521095Y-143978217D01*
X128586757Y-143776130D01*
X128586757Y-143776127D01*
X128620000Y-143566246D01*
X128620000Y-143353753D01*
X128586757Y-143143872D01*
X128586757Y-143143869D01*
X128521095Y-142941782D01*
X128424624Y-142752449D01*
X128385270Y-142698282D01*
X128385269Y-142698282D01*
X127761133Y-143322419D01*
X127745251Y-143263145D01*
X127678107Y-143146848D01*
X127583152Y-143051893D01*
X127466855Y-142984749D01*
X127407580Y-142968866D01*
X128031716Y-142344728D01*
X127977550Y-142305375D01*
X127967954Y-142300486D01*
X127917157Y-142252512D01*
X127900361Y-142184692D01*
X127922897Y-142118556D01*
X127967954Y-142079514D01*
X127977554Y-142074622D01*
X128031716Y-142035270D01*
X128031717Y-142035270D01*
X127407579Y-141411133D01*
X127466855Y-141395251D01*
X127583152Y-141328107D01*
X127678107Y-141233152D01*
X127745251Y-141116855D01*
X127761133Y-141057579D01*
X128385270Y-141681717D01*
X128385270Y-141681716D01*
X128424622Y-141627554D01*
X128521095Y-141438217D01*
X128586757Y-141236130D01*
X128586757Y-141236127D01*
X128620000Y-141026246D01*
X128620000Y-140813753D01*
X128586757Y-140603872D01*
X128586757Y-140603869D01*
X128521095Y-140401782D01*
X128424624Y-140212449D01*
X128385270Y-140158282D01*
X128385269Y-140158282D01*
X127761133Y-140782419D01*
X127745251Y-140723145D01*
X127678107Y-140606848D01*
X127583152Y-140511893D01*
X127466855Y-140444749D01*
X127407580Y-140428866D01*
X128031716Y-139804728D01*
X127977550Y-139765375D01*
X127788217Y-139668904D01*
X127586129Y-139603242D01*
X127376246Y-139570000D01*
X127163754Y-139570000D01*
X126953872Y-139603242D01*
X126953869Y-139603242D01*
X126751782Y-139668904D01*
X126562439Y-139765380D01*
X126508282Y-139804727D01*
X126508282Y-139804728D01*
X127132420Y-140428866D01*
X127073145Y-140444749D01*
X126956848Y-140511893D01*
X126861893Y-140606848D01*
X126794749Y-140723145D01*
X126778866Y-140782420D01*
X126116818Y-140120372D01*
X126083333Y-140059049D01*
X126083330Y-140059036D01*
X126080499Y-140046015D01*
X126080499Y-140022128D01*
X126074091Y-139962517D01*
X126042883Y-139878844D01*
X126023798Y-139827673D01*
X126023793Y-139827664D01*
X125937547Y-139712455D01*
X125937544Y-139712452D01*
X125822335Y-139626206D01*
X125822328Y-139626202D01*
X125687482Y-139575908D01*
X125687483Y-139575908D01*
X125627883Y-139569501D01*
X125627881Y-139569500D01*
X125627873Y-139569500D01*
X125627864Y-139569500D01*
X123832129Y-139569500D01*
X123832123Y-139569501D01*
X123772516Y-139575908D01*
X123637671Y-139626202D01*
X123637664Y-139626206D01*
X123522455Y-139712452D01*
X123522452Y-139712455D01*
X123436206Y-139827664D01*
X123436202Y-139827671D01*
X123385908Y-139962517D01*
X123379501Y-140022116D01*
X123379500Y-140022135D01*
X123379500Y-141817870D01*
X123379501Y-141817876D01*
X123385908Y-141877483D01*
X123436202Y-142012328D01*
X123436206Y-142012335D01*
X123522452Y-142127544D01*
X123522455Y-142127547D01*
X123637664Y-142213793D01*
X123637671Y-142213797D01*
X123769082Y-142262810D01*
X123825016Y-142304681D01*
X123849433Y-142370145D01*
X123834582Y-142438418D01*
X123813431Y-142466673D01*
X123699889Y-142580215D01*
X123574951Y-142752179D01*
X123478444Y-142941585D01*
X123412753Y-143143760D01*
X123379500Y-143353713D01*
X123379500Y-143566286D01*
X123412753Y-143776239D01*
X123478444Y-143978414D01*
X123574951Y-144167820D01*
X123699890Y-144339786D01*
X123850213Y-144490109D01*
X124022182Y-144615050D01*
X124030946Y-144619516D01*
X124081742Y-144667491D01*
X124098536Y-144735312D01*
X124075998Y-144801447D01*
X124030946Y-144840484D01*
X124022182Y-144844949D01*
X123850213Y-144969890D01*
X123699890Y-145120213D01*
X123574948Y-145292184D01*
X123574947Y-145292185D01*
X123554765Y-145331795D01*
X123506791Y-145382591D01*
X123444281Y-145399500D01*
X118449766Y-145399500D01*
X118382727Y-145379815D01*
X118380875Y-145378602D01*
X118249185Y-145290609D01*
X118249172Y-145290602D01*
X118103501Y-145230264D01*
X118103489Y-145230261D01*
X117948845Y-145199500D01*
X117948842Y-145199500D01*
X117791158Y-145199500D01*
X117791155Y-145199500D01*
X117636510Y-145230261D01*
X117636498Y-145230264D01*
X117490827Y-145290602D01*
X117490814Y-145290609D01*
X117359125Y-145378602D01*
X117292447Y-145399480D01*
X117290234Y-145399500D01*
X111979061Y-145399500D01*
X111979057Y-145399499D01*
X111820943Y-145399499D01*
X111820939Y-145399500D01*
X106555719Y-145399500D01*
X106488680Y-145379815D01*
X106445235Y-145331795D01*
X106425052Y-145292185D01*
X106425051Y-145292184D01*
X106300109Y-145120213D01*
X106149786Y-144969890D01*
X105977820Y-144844951D01*
X105977115Y-144844591D01*
X105969054Y-144840485D01*
X105918259Y-144792512D01*
X105901463Y-144724692D01*
X105923999Y-144658556D01*
X105969054Y-144619515D01*
X105977816Y-144615051D01*
X106032572Y-144575269D01*
X106149786Y-144490109D01*
X106149788Y-144490106D01*
X106149792Y-144490104D01*
X106300104Y-144339792D01*
X106300106Y-144339788D01*
X106300109Y-144339786D01*
X106425048Y-144167820D01*
X106425047Y-144167820D01*
X106425051Y-144167816D01*
X106521557Y-143978412D01*
X106587246Y-143776243D01*
X106620500Y-143566287D01*
X106620500Y-143353713D01*
X106587246Y-143143757D01*
X106521557Y-142941588D01*
X106425051Y-142752184D01*
X106425049Y-142752181D01*
X106425048Y-142752179D01*
X106300109Y-142580213D01*
X106149786Y-142429890D01*
X105977820Y-142304951D01*
X105977115Y-142304591D01*
X105969054Y-142300485D01*
X105918259Y-142252512D01*
X105901463Y-142184692D01*
X105923999Y-142118556D01*
X105969054Y-142079515D01*
X105977816Y-142075051D01*
X106064138Y-142012335D01*
X106149786Y-141950109D01*
X106149788Y-141950106D01*
X106149792Y-141950104D01*
X106300104Y-141799792D01*
X106300106Y-141799788D01*
X106300109Y-141799786D01*
X106425048Y-141627820D01*
X106425050Y-141627817D01*
X106425051Y-141627816D01*
X106521557Y-141438412D01*
X106587246Y-141236243D01*
X106620500Y-141026287D01*
X106620500Y-140813713D01*
X106587246Y-140603757D01*
X106521557Y-140401588D01*
X106425051Y-140212184D01*
X106425049Y-140212181D01*
X106425048Y-140212179D01*
X106300109Y-140040213D01*
X106149786Y-139889890D01*
X105977820Y-139764951D01*
X105788414Y-139668444D01*
X105788413Y-139668443D01*
X105788412Y-139668443D01*
X105586243Y-139602754D01*
X105586241Y-139602753D01*
X105586240Y-139602753D01*
X105424957Y-139577208D01*
X105376287Y-139569500D01*
X105163713Y-139569500D01*
X105115042Y-139577208D01*
X104953760Y-139602753D01*
X104751585Y-139668444D01*
X104562179Y-139764951D01*
X104390213Y-139889890D01*
X104239890Y-140040213D01*
X104114949Y-140212182D01*
X104110202Y-140221499D01*
X104062227Y-140272293D01*
X103994405Y-140289087D01*
X103928271Y-140266548D01*
X103889234Y-140221495D01*
X103884626Y-140212452D01*
X103845270Y-140158282D01*
X103845269Y-140158282D01*
X103221133Y-140782419D01*
X103205251Y-140723145D01*
X103138107Y-140606848D01*
X103043152Y-140511893D01*
X102926855Y-140444749D01*
X102867580Y-140428866D01*
X103491716Y-139804728D01*
X103437550Y-139765375D01*
X103248217Y-139668904D01*
X103046129Y-139603242D01*
X102836246Y-139570000D01*
X102623754Y-139570000D01*
X102413872Y-139603242D01*
X102413869Y-139603242D01*
X102211782Y-139668904D01*
X102022439Y-139765380D01*
X101968282Y-139804727D01*
X101968282Y-139804728D01*
X102592420Y-140428866D01*
X102533145Y-140444749D01*
X102416848Y-140511893D01*
X102321893Y-140606848D01*
X102254749Y-140723145D01*
X102238866Y-140782420D01*
X101614728Y-140158282D01*
X101614727Y-140158282D01*
X101575380Y-140212439D01*
X101478904Y-140401782D01*
X101413242Y-140603869D01*
X101413242Y-140603872D01*
X101380000Y-140813753D01*
X101380000Y-141026246D01*
X101413242Y-141236127D01*
X101413242Y-141236130D01*
X101478904Y-141438217D01*
X101575375Y-141627550D01*
X101614728Y-141681716D01*
X102238866Y-141057579D01*
X102254749Y-141116855D01*
X102321893Y-141233152D01*
X102416848Y-141328107D01*
X102533145Y-141395251D01*
X102592419Y-141411133D01*
X101999971Y-142003581D01*
X102078711Y-142120895D01*
X102079920Y-142124729D01*
X102082844Y-142127491D01*
X102090343Y-142157778D01*
X102099727Y-142187529D01*
X102098671Y-142191408D01*
X102099638Y-142195312D01*
X102089573Y-142224844D01*
X102081383Y-142254947D01*
X102078397Y-142257640D01*
X102077100Y-142261447D01*
X102032051Y-142300483D01*
X102022440Y-142305380D01*
X101968282Y-142344727D01*
X101968282Y-142344728D01*
X102592420Y-142968866D01*
X102533145Y-142984749D01*
X102416848Y-143051893D01*
X102321893Y-143146848D01*
X102254749Y-143263145D01*
X102238866Y-143322420D01*
X101614728Y-142698282D01*
X101614727Y-142698282D01*
X101575380Y-142752439D01*
X101478904Y-142941782D01*
X101413242Y-143143869D01*
X101413242Y-143143872D01*
X101380000Y-143353753D01*
X101380000Y-143566246D01*
X101413242Y-143776127D01*
X101413242Y-143776130D01*
X101478904Y-143978217D01*
X101575375Y-144167550D01*
X101614728Y-144221716D01*
X102238866Y-143597579D01*
X102254749Y-143656855D01*
X102321893Y-143773152D01*
X102416848Y-143868107D01*
X102533145Y-143935251D01*
X102592419Y-143951133D01*
X101968282Y-144575269D01*
X101968282Y-144575270D01*
X102022452Y-144614626D01*
X102022451Y-144614626D01*
X102031495Y-144619234D01*
X102082292Y-144667208D01*
X102099087Y-144735029D01*
X102076550Y-144801164D01*
X102031499Y-144840202D01*
X102022182Y-144844949D01*
X101850213Y-144969890D01*
X101699890Y-145120213D01*
X101574951Y-145292179D01*
X101478444Y-145481585D01*
X101412753Y-145683760D01*
X101379500Y-145893713D01*
X100500500Y-145893713D01*
X100500500Y-137893713D01*
X112199500Y-137893713D01*
X112199500Y-138106286D01*
X112232753Y-138316239D01*
X112298444Y-138518414D01*
X112394951Y-138707820D01*
X112519890Y-138879786D01*
X112670213Y-139030109D01*
X112842179Y-139155048D01*
X112842181Y-139155049D01*
X112842184Y-139155051D01*
X113031588Y-139251557D01*
X113233757Y-139317246D01*
X113443713Y-139350500D01*
X113443714Y-139350500D01*
X116256286Y-139350500D01*
X116256287Y-139350500D01*
X116466243Y-139317246D01*
X116668412Y-139251557D01*
X116857816Y-139155051D01*
X116879789Y-139139086D01*
X117029786Y-139030109D01*
X117029788Y-139030106D01*
X117029792Y-139030104D01*
X117180104Y-138879792D01*
X117180106Y-138879788D01*
X117180109Y-138879786D01*
X117305048Y-138707820D01*
X117305047Y-138707820D01*
X117305051Y-138707816D01*
X117401557Y-138518412D01*
X117467246Y-138316243D01*
X117500500Y-138106287D01*
X117500500Y-137893713D01*
X117467246Y-137683757D01*
X117401557Y-137481588D01*
X117305051Y-137292184D01*
X117305049Y-137292181D01*
X117305048Y-137292179D01*
X117180109Y-137120213D01*
X117029786Y-136969890D01*
X116857820Y-136844951D01*
X116668414Y-136748444D01*
X116668413Y-136748443D01*
X116668412Y-136748443D01*
X116466243Y-136682754D01*
X116466241Y-136682753D01*
X116466240Y-136682753D01*
X116304957Y-136657208D01*
X116256287Y-136649500D01*
X113443713Y-136649500D01*
X113395042Y-136657208D01*
X113233760Y-136682753D01*
X113031585Y-136748444D01*
X112842179Y-136844951D01*
X112670213Y-136969890D01*
X112519890Y-137120213D01*
X112394951Y-137292179D01*
X112298444Y-137481585D01*
X112232753Y-137683760D01*
X112199500Y-137893713D01*
X100500500Y-137893713D01*
X100500500Y-133843753D01*
X108800000Y-133843753D01*
X108800000Y-134750000D01*
X109650001Y-134750000D01*
X109650001Y-135250000D01*
X108800000Y-135250000D01*
X108800000Y-136156246D01*
X108833242Y-136366127D01*
X108833242Y-136366130D01*
X108898904Y-136568217D01*
X108995379Y-136757557D01*
X109120272Y-136929459D01*
X109120276Y-136929464D01*
X109270535Y-137079723D01*
X109270540Y-137079727D01*
X109442442Y-137204620D01*
X109631782Y-137301095D01*
X109833871Y-137366757D01*
X109900000Y-137377231D01*
X109900000Y-136433008D01*
X109957008Y-136465922D01*
X110084174Y-136499997D01*
X110215826Y-136499997D01*
X110342992Y-136465922D01*
X110400000Y-136433008D01*
X110400000Y-137377230D01*
X110466126Y-137366757D01*
X110466129Y-137366757D01*
X110668217Y-137301095D01*
X110857557Y-137204620D01*
X111029459Y-137079727D01*
X111029464Y-137079723D01*
X111179723Y-136929464D01*
X111179727Y-136929459D01*
X111304620Y-136757557D01*
X111401095Y-136568217D01*
X111466757Y-136366130D01*
X111466757Y-136366127D01*
X111500000Y-136156246D01*
X111500000Y-135250000D01*
X110649999Y-135250000D01*
X110649999Y-134750000D01*
X111500000Y-134750000D01*
X111500000Y-133843753D01*
X111466757Y-133633872D01*
X111466757Y-133633869D01*
X111401095Y-133431782D01*
X111304620Y-133242442D01*
X111179727Y-133070540D01*
X111179723Y-133070535D01*
X111029464Y-132920276D01*
X111029459Y-132920272D01*
X110857557Y-132795379D01*
X110668215Y-132698903D01*
X110466124Y-132633241D01*
X110400000Y-132622768D01*
X110400000Y-133566991D01*
X110342992Y-133534078D01*
X110215826Y-133500003D01*
X110084174Y-133500003D01*
X109957008Y-133534078D01*
X109900000Y-133566991D01*
X109900000Y-132622768D01*
X109899999Y-132622768D01*
X109833875Y-132633241D01*
X109631784Y-132698903D01*
X109442442Y-132795379D01*
X109270540Y-132920272D01*
X109270535Y-132920276D01*
X109120276Y-133070535D01*
X109120272Y-133070540D01*
X108995379Y-133242442D01*
X108898904Y-133431782D01*
X108833242Y-133633869D01*
X108833242Y-133633872D01*
X108800000Y-133843753D01*
X100500500Y-133843753D01*
X100500500Y-131750000D01*
X112472769Y-131750000D01*
X113416992Y-131750000D01*
X113384078Y-131807008D01*
X113350003Y-131934174D01*
X113350003Y-132065826D01*
X113384078Y-132192992D01*
X113416992Y-132250000D01*
X112472769Y-132250000D01*
X112483242Y-132316126D01*
X112483242Y-132316129D01*
X112548904Y-132518217D01*
X112645379Y-132707557D01*
X112770272Y-132879459D01*
X112770276Y-132879464D01*
X112920535Y-133029723D01*
X112920540Y-133029727D01*
X113092442Y-133154620D01*
X113281782Y-133251095D01*
X113483870Y-133316757D01*
X113693754Y-133350000D01*
X114600000Y-133350000D01*
X114600000Y-132499999D01*
X115100000Y-132499999D01*
X115100000Y-133350000D01*
X116006246Y-133350000D01*
X116216127Y-133316757D01*
X116216130Y-133316757D01*
X116418217Y-133251095D01*
X116607557Y-133154620D01*
X116779459Y-133029727D01*
X116779464Y-133029723D01*
X116929723Y-132879464D01*
X116929727Y-132879459D01*
X117054620Y-132707557D01*
X117151095Y-132518217D01*
X117216757Y-132316129D01*
X117216757Y-132316126D01*
X117227231Y-132250000D01*
X116283008Y-132250000D01*
X116315922Y-132192992D01*
X116349997Y-132065826D01*
X116349997Y-131934174D01*
X116315922Y-131807008D01*
X116283008Y-131750000D01*
X117227231Y-131750000D01*
X117216757Y-131683873D01*
X117216757Y-131683870D01*
X117151095Y-131481782D01*
X117054620Y-131292442D01*
X116929727Y-131120540D01*
X116929723Y-131120535D01*
X116779464Y-130970276D01*
X116779459Y-130970272D01*
X116607557Y-130845379D01*
X116418217Y-130748904D01*
X116216129Y-130683242D01*
X116006246Y-130650000D01*
X115100000Y-130650000D01*
X115100000Y-131500001D01*
X114600000Y-131500001D01*
X114600000Y-130650000D01*
X113693754Y-130650000D01*
X113483872Y-130683242D01*
X113483869Y-130683242D01*
X113281782Y-130748904D01*
X113092442Y-130845379D01*
X112920540Y-130970272D01*
X112920535Y-130970276D01*
X112770276Y-131120535D01*
X112770272Y-131120540D01*
X112645379Y-131292442D01*
X112548904Y-131481782D01*
X112483242Y-131683870D01*
X112483242Y-131683873D01*
X112472769Y-131750000D01*
X100500500Y-131750000D01*
X100500500Y-114893713D01*
X101379500Y-114893713D01*
X101379500Y-115106287D01*
X101412754Y-115316243D01*
X101476595Y-115512726D01*
X101478444Y-115518414D01*
X101574951Y-115707820D01*
X101699890Y-115879786D01*
X101850213Y-116030109D01*
X102022179Y-116155048D01*
X102022181Y-116155049D01*
X102022184Y-116155051D01*
X102031493Y-116159794D01*
X102082290Y-116207766D01*
X102099087Y-116275587D01*
X102076552Y-116341722D01*
X102031505Y-116380760D01*
X102022446Y-116385376D01*
X102022440Y-116385380D01*
X101968282Y-116424727D01*
X101968282Y-116424728D01*
X102592420Y-117048866D01*
X102533145Y-117064749D01*
X102416848Y-117131893D01*
X102321893Y-117226848D01*
X102254749Y-117343145D01*
X102238866Y-117402420D01*
X101614728Y-116778282D01*
X101614727Y-116778282D01*
X101575380Y-116832439D01*
X101478904Y-117021782D01*
X101413242Y-117223869D01*
X101413242Y-117223872D01*
X101380000Y-117433753D01*
X101380000Y-117646246D01*
X101413242Y-117856127D01*
X101413242Y-117856130D01*
X101478904Y-118058217D01*
X101575375Y-118247550D01*
X101614728Y-118301716D01*
X102238866Y-117677579D01*
X102254749Y-117736855D01*
X102321893Y-117853152D01*
X102416848Y-117948107D01*
X102533145Y-118015251D01*
X102592419Y-118031133D01*
X101999971Y-118623581D01*
X102078711Y-118740895D01*
X102079920Y-118744729D01*
X102082844Y-118747491D01*
X102090343Y-118777778D01*
X102099727Y-118807529D01*
X102098671Y-118811408D01*
X102099638Y-118815312D01*
X102089573Y-118844844D01*
X102081383Y-118874947D01*
X102078397Y-118877640D01*
X102077100Y-118881447D01*
X102032051Y-118920483D01*
X102022440Y-118925380D01*
X101968282Y-118964727D01*
X101968282Y-118964728D01*
X102592420Y-119588866D01*
X102533145Y-119604749D01*
X102416848Y-119671893D01*
X102321893Y-119766848D01*
X102254749Y-119883145D01*
X102238866Y-119942420D01*
X101614728Y-119318282D01*
X101614727Y-119318282D01*
X101575380Y-119372439D01*
X101478904Y-119561782D01*
X101413242Y-119763869D01*
X101413242Y-119763872D01*
X101380000Y-119973753D01*
X101380000Y-120186246D01*
X101413242Y-120396127D01*
X101413242Y-120396130D01*
X101478904Y-120598217D01*
X101575375Y-120787550D01*
X101614728Y-120841716D01*
X102238866Y-120217579D01*
X102254749Y-120276855D01*
X102321893Y-120393152D01*
X102416848Y-120488107D01*
X102533145Y-120555251D01*
X102592419Y-120571133D01*
X101968282Y-121195269D01*
X101968282Y-121195270D01*
X102022449Y-121234624D01*
X102211782Y-121331095D01*
X102413870Y-121396757D01*
X102623754Y-121430000D01*
X102836246Y-121430000D01*
X103046127Y-121396757D01*
X103046130Y-121396757D01*
X103248217Y-121331095D01*
X103437554Y-121234622D01*
X103491716Y-121195270D01*
X103491717Y-121195270D01*
X102867579Y-120571133D01*
X102926855Y-120555251D01*
X103043152Y-120488107D01*
X103138107Y-120393152D01*
X103205251Y-120276855D01*
X103221133Y-120217579D01*
X103883181Y-120879628D01*
X103916666Y-120940951D01*
X103919500Y-120967300D01*
X103919500Y-120977865D01*
X103919501Y-120977876D01*
X103925908Y-121037483D01*
X103976202Y-121172328D01*
X103976206Y-121172335D01*
X104062452Y-121287544D01*
X104062455Y-121287547D01*
X104177664Y-121373793D01*
X104177671Y-121373797D01*
X104312517Y-121424091D01*
X104312516Y-121424091D01*
X104319444Y-121424835D01*
X104372127Y-121430500D01*
X106167872Y-121430499D01*
X106227483Y-121424091D01*
X106362331Y-121373796D01*
X106477546Y-121287546D01*
X106563796Y-121172331D01*
X106614091Y-121037483D01*
X106620500Y-120977873D01*
X106620499Y-119182128D01*
X106614091Y-119122517D01*
X106563796Y-118987669D01*
X106563795Y-118987668D01*
X106563793Y-118987664D01*
X106477547Y-118872455D01*
X106477544Y-118872452D01*
X106362335Y-118786206D01*
X106362328Y-118786202D01*
X106230917Y-118737189D01*
X106174983Y-118695318D01*
X106150566Y-118629853D01*
X106165418Y-118561580D01*
X106186563Y-118533332D01*
X106300104Y-118419792D01*
X106425051Y-118247816D01*
X106521557Y-118058412D01*
X106587246Y-117856243D01*
X106620500Y-117646287D01*
X106620500Y-117433713D01*
X106587246Y-117223757D01*
X106521557Y-117021588D01*
X106425051Y-116832184D01*
X106425049Y-116832181D01*
X106425048Y-116832179D01*
X106300109Y-116660213D01*
X106149786Y-116509890D01*
X105977820Y-116384951D01*
X105969600Y-116380763D01*
X105969054Y-116380485D01*
X105918259Y-116332512D01*
X105901463Y-116264692D01*
X105923999Y-116198556D01*
X105969054Y-116159515D01*
X105977816Y-116155051D01*
X105999789Y-116139086D01*
X106149786Y-116030109D01*
X106149788Y-116030106D01*
X106149792Y-116030104D01*
X106300104Y-115879792D01*
X106300106Y-115879788D01*
X106300109Y-115879786D01*
X106358661Y-115799193D01*
X106425051Y-115707816D01*
X106425349Y-115707230D01*
X106445235Y-115668205D01*
X106493209Y-115617409D01*
X106555719Y-115600500D01*
X112513331Y-115600500D01*
X112513347Y-115600501D01*
X112520943Y-115600501D01*
X112679054Y-115600501D01*
X112679057Y-115600501D01*
X112831785Y-115559577D01*
X112881904Y-115530639D01*
X112968716Y-115480520D01*
X113080520Y-115368716D01*
X113080520Y-115368714D01*
X113090728Y-115358507D01*
X113090729Y-115358504D01*
X113528080Y-114921153D01*
X119199500Y-114921153D01*
X119199500Y-115078846D01*
X119230261Y-115233489D01*
X119230264Y-115233501D01*
X119290602Y-115379172D01*
X119290609Y-115379185D01*
X119378602Y-115510874D01*
X119399480Y-115577551D01*
X119399500Y-115579765D01*
X119399500Y-139220234D01*
X119379815Y-139287273D01*
X119378602Y-139289125D01*
X119290609Y-139420814D01*
X119290602Y-139420827D01*
X119230264Y-139566498D01*
X119230261Y-139566510D01*
X119199500Y-139721153D01*
X119199500Y-139878846D01*
X119230261Y-140033489D01*
X119230264Y-140033501D01*
X119290602Y-140179172D01*
X119290609Y-140179185D01*
X119378210Y-140310288D01*
X119378213Y-140310292D01*
X119489707Y-140421786D01*
X119489711Y-140421789D01*
X119620814Y-140509390D01*
X119620827Y-140509397D01*
X119758558Y-140566446D01*
X119766503Y-140569737D01*
X119921153Y-140600499D01*
X119921156Y-140600500D01*
X119921158Y-140600500D01*
X120078844Y-140600500D01*
X120078845Y-140600499D01*
X120233497Y-140569737D01*
X120379179Y-140509394D01*
X120510289Y-140421789D01*
X120621789Y-140310289D01*
X120709394Y-140179179D01*
X120769737Y-140033497D01*
X120800500Y-139878842D01*
X120800500Y-139721158D01*
X120800500Y-139721155D01*
X120800499Y-139721153D01*
X120776948Y-139602754D01*
X120769737Y-139566503D01*
X120769735Y-139566498D01*
X120709397Y-139420827D01*
X120709390Y-139420814D01*
X120621398Y-139289125D01*
X120600520Y-139222447D01*
X120600500Y-139220234D01*
X120600500Y-115579765D01*
X120620185Y-115512726D01*
X120621398Y-115510874D01*
X120709390Y-115379185D01*
X120709390Y-115379184D01*
X120709394Y-115379179D01*
X120769737Y-115233497D01*
X120800500Y-115078842D01*
X120800500Y-114921158D01*
X120800500Y-114921155D01*
X120800499Y-114921153D01*
X120769738Y-114766510D01*
X120769737Y-114766503D01*
X120735463Y-114683757D01*
X120709397Y-114620827D01*
X120709390Y-114620814D01*
X120621789Y-114489711D01*
X120621786Y-114489707D01*
X120510292Y-114378213D01*
X120510288Y-114378210D01*
X120379185Y-114290609D01*
X120379172Y-114290602D01*
X120233501Y-114230264D01*
X120233489Y-114230261D01*
X120078845Y-114199500D01*
X120078842Y-114199500D01*
X119921158Y-114199500D01*
X119921155Y-114199500D01*
X119766510Y-114230261D01*
X119766498Y-114230264D01*
X119620827Y-114290602D01*
X119620814Y-114290609D01*
X119489711Y-114378210D01*
X119489707Y-114378213D01*
X119378213Y-114489707D01*
X119378210Y-114489711D01*
X119290609Y-114620814D01*
X119290602Y-114620827D01*
X119230264Y-114766498D01*
X119230261Y-114766510D01*
X119199500Y-114921153D01*
X113528080Y-114921153D01*
X115139493Y-113309741D01*
X115200814Y-113276258D01*
X115202901Y-113275822D01*
X115233497Y-113269737D01*
X115379179Y-113209394D01*
X115510289Y-113121789D01*
X115621789Y-113010289D01*
X115709394Y-112879179D01*
X115769737Y-112733497D01*
X115800500Y-112578842D01*
X115800500Y-112421158D01*
X115800500Y-112421155D01*
X115800499Y-112421153D01*
X115769738Y-112266510D01*
X115769737Y-112266503D01*
X115718896Y-112143760D01*
X115709397Y-112120827D01*
X115709390Y-112120814D01*
X115621398Y-111989125D01*
X115600520Y-111922447D01*
X115600500Y-111920234D01*
X115600500Y-109022135D01*
X123379500Y-109022135D01*
X123379500Y-110817870D01*
X123379501Y-110817876D01*
X123385908Y-110877483D01*
X123436202Y-111012328D01*
X123436206Y-111012335D01*
X123522452Y-111127544D01*
X123522455Y-111127547D01*
X123637664Y-111213793D01*
X123637671Y-111213797D01*
X123769082Y-111262810D01*
X123825016Y-111304681D01*
X123849433Y-111370145D01*
X123834582Y-111438418D01*
X123813431Y-111466673D01*
X123699889Y-111580215D01*
X123574951Y-111752179D01*
X123478444Y-111941585D01*
X123412753Y-112143760D01*
X123379500Y-112353713D01*
X123379500Y-112566286D01*
X123412753Y-112776239D01*
X123478444Y-112978414D01*
X123574951Y-113167820D01*
X123699890Y-113339786D01*
X123850213Y-113490109D01*
X124022182Y-113615050D01*
X124030946Y-113619516D01*
X124081742Y-113667491D01*
X124098536Y-113735312D01*
X124075998Y-113801447D01*
X124030946Y-113840484D01*
X124022182Y-113844949D01*
X123850213Y-113969890D01*
X123699890Y-114120213D01*
X123574951Y-114292179D01*
X123478444Y-114481585D01*
X123412753Y-114683760D01*
X123399649Y-114766498D01*
X123379500Y-114893713D01*
X123379500Y-115106287D01*
X123412754Y-115316243D01*
X123476595Y-115512726D01*
X123478444Y-115518414D01*
X123574951Y-115707820D01*
X123699890Y-115879786D01*
X123850213Y-116030109D01*
X124022182Y-116155050D01*
X124030946Y-116159516D01*
X124081742Y-116207491D01*
X124098536Y-116275312D01*
X124075998Y-116341447D01*
X124030946Y-116380484D01*
X124022182Y-116384949D01*
X123850213Y-116509890D01*
X123699890Y-116660213D01*
X123574951Y-116832179D01*
X123478444Y-117021585D01*
X123412753Y-117223760D01*
X123379500Y-117433713D01*
X123379500Y-117646286D01*
X123412753Y-117856239D01*
X123478444Y-118058414D01*
X123574951Y-118247820D01*
X123699890Y-118419786D01*
X123850213Y-118570109D01*
X124022182Y-118695050D01*
X124030946Y-118699516D01*
X124081742Y-118747491D01*
X124098536Y-118815312D01*
X124075998Y-118881447D01*
X124030946Y-118920484D01*
X124022182Y-118924949D01*
X123850213Y-119049890D01*
X123699890Y-119200213D01*
X123574951Y-119372179D01*
X123478444Y-119561585D01*
X123412753Y-119763760D01*
X123379500Y-119973713D01*
X123379500Y-120186286D01*
X123412753Y-120396239D01*
X123478444Y-120598414D01*
X123574951Y-120787820D01*
X123699890Y-120959786D01*
X123850213Y-121110109D01*
X124022179Y-121235048D01*
X124022181Y-121235049D01*
X124022184Y-121235051D01*
X124211588Y-121331557D01*
X124413757Y-121397246D01*
X124623713Y-121430500D01*
X124623714Y-121430500D01*
X124836286Y-121430500D01*
X124836287Y-121430500D01*
X125046243Y-121397246D01*
X125248412Y-121331557D01*
X125437816Y-121235051D01*
X125524138Y-121172335D01*
X125609786Y-121110109D01*
X125609788Y-121110106D01*
X125609792Y-121110104D01*
X125760104Y-120959792D01*
X125760106Y-120959788D01*
X125760109Y-120959786D01*
X125845890Y-120841717D01*
X125885051Y-120787816D01*
X125889793Y-120778508D01*
X125937763Y-120727711D01*
X126005583Y-120710911D01*
X126071719Y-120733445D01*
X126110763Y-120778500D01*
X126115373Y-120787547D01*
X126154728Y-120841716D01*
X126778866Y-120217579D01*
X126794749Y-120276855D01*
X126861893Y-120393152D01*
X126956848Y-120488107D01*
X127073145Y-120555251D01*
X127132419Y-120571133D01*
X126508282Y-121195269D01*
X126508282Y-121195270D01*
X126562449Y-121234624D01*
X126751782Y-121331095D01*
X126953870Y-121396757D01*
X127163754Y-121430000D01*
X127376246Y-121430000D01*
X127586127Y-121396757D01*
X127586130Y-121396757D01*
X127788217Y-121331095D01*
X127977554Y-121234622D01*
X128031716Y-121195270D01*
X128031717Y-121195270D01*
X127407579Y-120571133D01*
X127466855Y-120555251D01*
X127583152Y-120488107D01*
X127678107Y-120393152D01*
X127745251Y-120276855D01*
X127761133Y-120217579D01*
X128385270Y-120841717D01*
X128385270Y-120841716D01*
X128424622Y-120787554D01*
X128521095Y-120598217D01*
X128586757Y-120396130D01*
X128586757Y-120396127D01*
X128620000Y-120186246D01*
X128620000Y-119973753D01*
X128586757Y-119763872D01*
X128586757Y-119763869D01*
X128521095Y-119561782D01*
X128424624Y-119372449D01*
X128385270Y-119318282D01*
X128385269Y-119318282D01*
X127761133Y-119942419D01*
X127745251Y-119883145D01*
X127678107Y-119766848D01*
X127583152Y-119671893D01*
X127466855Y-119604749D01*
X127407580Y-119588866D01*
X128031716Y-118964728D01*
X127977550Y-118925375D01*
X127967954Y-118920486D01*
X127917157Y-118872512D01*
X127900361Y-118804692D01*
X127922897Y-118738556D01*
X127967954Y-118699514D01*
X127977554Y-118694622D01*
X128031716Y-118655270D01*
X128031717Y-118655270D01*
X127407579Y-118031133D01*
X127466855Y-118015251D01*
X127583152Y-117948107D01*
X127678107Y-117853152D01*
X127745251Y-117736855D01*
X127761133Y-117677579D01*
X128385270Y-118301717D01*
X128385270Y-118301716D01*
X128424622Y-118247554D01*
X128521095Y-118058217D01*
X128586757Y-117856130D01*
X128586757Y-117856127D01*
X128620000Y-117646246D01*
X128620000Y-117433753D01*
X128586757Y-117223872D01*
X128586757Y-117223869D01*
X128521095Y-117021782D01*
X128424624Y-116832449D01*
X128385270Y-116778282D01*
X128385269Y-116778282D01*
X127761133Y-117402419D01*
X127745251Y-117343145D01*
X127678107Y-117226848D01*
X127583152Y-117131893D01*
X127466855Y-117064749D01*
X127407580Y-117048866D01*
X128031716Y-116424728D01*
X127977547Y-116385373D01*
X127977547Y-116385372D01*
X127968500Y-116380763D01*
X127917706Y-116332788D01*
X127900912Y-116264966D01*
X127923451Y-116198832D01*
X127968508Y-116159793D01*
X127977816Y-116155051D01*
X128057007Y-116097515D01*
X128149786Y-116030109D01*
X128149788Y-116030106D01*
X128149792Y-116030104D01*
X128300104Y-115879792D01*
X128300106Y-115879788D01*
X128300109Y-115879786D01*
X128425048Y-115707820D01*
X128425047Y-115707820D01*
X128425051Y-115707816D01*
X128521557Y-115518412D01*
X128587246Y-115316243D01*
X128620500Y-115106287D01*
X128620500Y-114893713D01*
X128587246Y-114683757D01*
X128521557Y-114481588D01*
X128425051Y-114292184D01*
X128425049Y-114292181D01*
X128425048Y-114292179D01*
X128300109Y-114120213D01*
X128149786Y-113969890D01*
X127977817Y-113844949D01*
X127968504Y-113840204D01*
X127917707Y-113792230D01*
X127900912Y-113724409D01*
X127923449Y-113658274D01*
X127968507Y-113619232D01*
X127977555Y-113614622D01*
X128031716Y-113575270D01*
X128031717Y-113575270D01*
X127407579Y-112951133D01*
X127466855Y-112935251D01*
X127583152Y-112868107D01*
X127678107Y-112773152D01*
X127745251Y-112656855D01*
X127761133Y-112597579D01*
X128385270Y-113221717D01*
X128385270Y-113221716D01*
X128424622Y-113167554D01*
X128521095Y-112978217D01*
X128586757Y-112776130D01*
X128586757Y-112776127D01*
X128620000Y-112566246D01*
X128620000Y-112353753D01*
X128586757Y-112143872D01*
X128586757Y-112143869D01*
X128521095Y-111941782D01*
X128424624Y-111752449D01*
X128385270Y-111698282D01*
X128385269Y-111698282D01*
X127761133Y-112322419D01*
X127745251Y-112263145D01*
X127678107Y-112146848D01*
X127583152Y-112051893D01*
X127466855Y-111984749D01*
X127407580Y-111968866D01*
X128031716Y-111344728D01*
X127977550Y-111305375D01*
X127967954Y-111300486D01*
X127917157Y-111252512D01*
X127900361Y-111184692D01*
X127922897Y-111118556D01*
X127967954Y-111079514D01*
X127977554Y-111074622D01*
X128031716Y-111035270D01*
X128031717Y-111035270D01*
X127407579Y-110411133D01*
X127466855Y-110395251D01*
X127583152Y-110328107D01*
X127678107Y-110233152D01*
X127745251Y-110116855D01*
X127761133Y-110057579D01*
X128385270Y-110681717D01*
X128385270Y-110681716D01*
X128424622Y-110627554D01*
X128521095Y-110438217D01*
X128586757Y-110236130D01*
X128586757Y-110236127D01*
X128620000Y-110026246D01*
X128620000Y-109813753D01*
X128586757Y-109603872D01*
X128586757Y-109603869D01*
X128521095Y-109401782D01*
X128424624Y-109212449D01*
X128385270Y-109158282D01*
X128385269Y-109158282D01*
X127761133Y-109782419D01*
X127745251Y-109723145D01*
X127678107Y-109606848D01*
X127583152Y-109511893D01*
X127466855Y-109444749D01*
X127407580Y-109428866D01*
X128031716Y-108804728D01*
X127977550Y-108765375D01*
X127788217Y-108668904D01*
X127586129Y-108603242D01*
X127376246Y-108570000D01*
X127163754Y-108570000D01*
X126953872Y-108603242D01*
X126953869Y-108603242D01*
X126751782Y-108668904D01*
X126562439Y-108765380D01*
X126508282Y-108804727D01*
X126508282Y-108804728D01*
X127132420Y-109428866D01*
X127073145Y-109444749D01*
X126956848Y-109511893D01*
X126861893Y-109606848D01*
X126794749Y-109723145D01*
X126778866Y-109782420D01*
X126116818Y-109120372D01*
X126083333Y-109059049D01*
X126083330Y-109059036D01*
X126080499Y-109046015D01*
X126080499Y-109022128D01*
X126074091Y-108962517D01*
X126045926Y-108887002D01*
X126023798Y-108827673D01*
X126023793Y-108827664D01*
X125937547Y-108712455D01*
X125937544Y-108712452D01*
X125822335Y-108626206D01*
X125822328Y-108626202D01*
X125687482Y-108575908D01*
X125687483Y-108575908D01*
X125627883Y-108569501D01*
X125627881Y-108569500D01*
X125627873Y-108569500D01*
X125627864Y-108569500D01*
X123832129Y-108569500D01*
X123832123Y-108569501D01*
X123772516Y-108575908D01*
X123637671Y-108626202D01*
X123637664Y-108626206D01*
X123522455Y-108712452D01*
X123522452Y-108712455D01*
X123436206Y-108827664D01*
X123436202Y-108827671D01*
X123385908Y-108962517D01*
X123379501Y-109022116D01*
X123379500Y-109022135D01*
X115600500Y-109022135D01*
X115600500Y-106555718D01*
X115620185Y-106488679D01*
X115668207Y-106445233D01*
X115707815Y-106425052D01*
X115707815Y-106425051D01*
X115707816Y-106425051D01*
X115799193Y-106358661D01*
X115879786Y-106300109D01*
X115879788Y-106300106D01*
X115879792Y-106300104D01*
X116030104Y-106149792D01*
X116030106Y-106149788D01*
X116030109Y-106149786D01*
X116155048Y-105977820D01*
X116155047Y-105977820D01*
X116155051Y-105977816D01*
X116159514Y-105969054D01*
X116207488Y-105918259D01*
X116275308Y-105901463D01*
X116341444Y-105923999D01*
X116380486Y-105969056D01*
X116384951Y-105977820D01*
X116509890Y-106149786D01*
X116660213Y-106300109D01*
X116832179Y-106425048D01*
X116832181Y-106425049D01*
X116832184Y-106425051D01*
X117021588Y-106521557D01*
X117223757Y-106587246D01*
X117433713Y-106620500D01*
X117433714Y-106620500D01*
X117646286Y-106620500D01*
X117646287Y-106620500D01*
X117856243Y-106587246D01*
X118058412Y-106521557D01*
X118247816Y-106425051D01*
X118334138Y-106362335D01*
X118419786Y-106300109D01*
X118419788Y-106300106D01*
X118419792Y-106300104D01*
X118570104Y-106149792D01*
X118570106Y-106149788D01*
X118570109Y-106149786D01*
X118695048Y-105977820D01*
X118695047Y-105977820D01*
X118695051Y-105977816D01*
X118699514Y-105969054D01*
X118747488Y-105918259D01*
X118815308Y-105901463D01*
X118881444Y-105923999D01*
X118920486Y-105969056D01*
X118924951Y-105977820D01*
X119049890Y-106149786D01*
X119200213Y-106300109D01*
X119372179Y-106425048D01*
X119372181Y-106425049D01*
X119372184Y-106425051D01*
X119561588Y-106521557D01*
X119763757Y-106587246D01*
X119973713Y-106620500D01*
X119973714Y-106620500D01*
X120186286Y-106620500D01*
X120186287Y-106620500D01*
X120396243Y-106587246D01*
X120598412Y-106521557D01*
X120787816Y-106425051D01*
X120874138Y-106362335D01*
X120959786Y-106300109D01*
X120959788Y-106300106D01*
X120959792Y-106300104D01*
X121110104Y-106149792D01*
X121110106Y-106149788D01*
X121110109Y-106149786D01*
X121235048Y-105977820D01*
X121235047Y-105977820D01*
X121235051Y-105977816D01*
X121331557Y-105788412D01*
X121397246Y-105586243D01*
X121430500Y-105376287D01*
X121430500Y-105163713D01*
X121397246Y-104953757D01*
X121331557Y-104751588D01*
X121235051Y-104562184D01*
X121235049Y-104562181D01*
X121235048Y-104562179D01*
X121110109Y-104390213D01*
X120959786Y-104239890D01*
X120787817Y-104114949D01*
X120778504Y-104110204D01*
X120727707Y-104062230D01*
X120710912Y-103994409D01*
X120733449Y-103928274D01*
X120778507Y-103889232D01*
X120787555Y-103884622D01*
X120841716Y-103845270D01*
X120841717Y-103845270D01*
X120217579Y-103221133D01*
X120276855Y-103205251D01*
X120393152Y-103138107D01*
X120488107Y-103043152D01*
X120555251Y-102926855D01*
X120571133Y-102867580D01*
X121195270Y-103491717D01*
X121195270Y-103491716D01*
X121234622Y-103437554D01*
X121331095Y-103248217D01*
X121396757Y-103046130D01*
X121396757Y-103046127D01*
X121430000Y-102836246D01*
X121430000Y-102623753D01*
X121396757Y-102413872D01*
X121396757Y-102413869D01*
X121331095Y-102211782D01*
X121234624Y-102022449D01*
X121195270Y-101968282D01*
X121195269Y-101968282D01*
X120571133Y-102592419D01*
X120555251Y-102533145D01*
X120488107Y-102416848D01*
X120393152Y-102321893D01*
X120276855Y-102254749D01*
X120217580Y-102238866D01*
X120841716Y-101614728D01*
X120787550Y-101575375D01*
X120598217Y-101478904D01*
X120396129Y-101413242D01*
X120186246Y-101380000D01*
X119973754Y-101380000D01*
X119763872Y-101413242D01*
X119763869Y-101413242D01*
X119561782Y-101478904D01*
X119372439Y-101575380D01*
X119318282Y-101614727D01*
X119318282Y-101614728D01*
X119942420Y-102238866D01*
X119883145Y-102254749D01*
X119766848Y-102321893D01*
X119671893Y-102416848D01*
X119604749Y-102533145D01*
X119588866Y-102592420D01*
X118964728Y-101968282D01*
X118964727Y-101968282D01*
X118925380Y-102022440D01*
X118920483Y-102032051D01*
X118872506Y-102082845D01*
X118804684Y-102099638D01*
X118738550Y-102077098D01*
X118699516Y-102032048D01*
X118694626Y-102022452D01*
X118655270Y-101968282D01*
X118655269Y-101968282D01*
X118031133Y-102592419D01*
X118015251Y-102533145D01*
X117948107Y-102416848D01*
X117853152Y-102321893D01*
X117736855Y-102254749D01*
X117677580Y-102238866D01*
X118301716Y-101614728D01*
X118247550Y-101575375D01*
X118058217Y-101478904D01*
X117856129Y-101413242D01*
X117646246Y-101380000D01*
X117433754Y-101380000D01*
X117223872Y-101413242D01*
X117223869Y-101413242D01*
X117021782Y-101478904D01*
X116832439Y-101575380D01*
X116778282Y-101614727D01*
X116778282Y-101614728D01*
X117402420Y-102238866D01*
X117343145Y-102254749D01*
X117226848Y-102321893D01*
X117131893Y-102416848D01*
X117064749Y-102533145D01*
X117048866Y-102592420D01*
X116424728Y-101968282D01*
X116424727Y-101968282D01*
X116385380Y-102022440D01*
X116385376Y-102022446D01*
X116380760Y-102031505D01*
X116332781Y-102082297D01*
X116264959Y-102099087D01*
X116198826Y-102076543D01*
X116159794Y-102031493D01*
X116155051Y-102022184D01*
X116155049Y-102022181D01*
X116155048Y-102022179D01*
X116030109Y-101850213D01*
X115879786Y-101699890D01*
X115707820Y-101574951D01*
X115518414Y-101478444D01*
X115518413Y-101478443D01*
X115518412Y-101478443D01*
X115316243Y-101412754D01*
X115316241Y-101412753D01*
X115316240Y-101412753D01*
X115154957Y-101387208D01*
X115106287Y-101379500D01*
X114893713Y-101379500D01*
X114845042Y-101387208D01*
X114683760Y-101412753D01*
X114481585Y-101478444D01*
X114292179Y-101574951D01*
X114120213Y-101699890D01*
X113969890Y-101850213D01*
X113844949Y-102022182D01*
X113840202Y-102031499D01*
X113792227Y-102082293D01*
X113724405Y-102099087D01*
X113658271Y-102076548D01*
X113619234Y-102031495D01*
X113614626Y-102022452D01*
X113575270Y-101968282D01*
X113575269Y-101968282D01*
X112951133Y-102592419D01*
X112935251Y-102533145D01*
X112868107Y-102416848D01*
X112773152Y-102321893D01*
X112656855Y-102254749D01*
X112597580Y-102238866D01*
X113221716Y-101614728D01*
X113167550Y-101575375D01*
X112978217Y-101478904D01*
X112776129Y-101413242D01*
X112566246Y-101380000D01*
X112353754Y-101380000D01*
X112143872Y-101413242D01*
X112143869Y-101413242D01*
X111941782Y-101478904D01*
X111752439Y-101575380D01*
X111698282Y-101614727D01*
X111698282Y-101614728D01*
X112322420Y-102238866D01*
X112263145Y-102254749D01*
X112146848Y-102321893D01*
X112051893Y-102416848D01*
X111984749Y-102533145D01*
X111968866Y-102592420D01*
X111344728Y-101968282D01*
X111344727Y-101968282D01*
X111305380Y-102022440D01*
X111300483Y-102032051D01*
X111252506Y-102082845D01*
X111184684Y-102099638D01*
X111118550Y-102077098D01*
X111079516Y-102032048D01*
X111074626Y-102022452D01*
X111035270Y-101968282D01*
X111035269Y-101968282D01*
X110411133Y-102592419D01*
X110395251Y-102533145D01*
X110328107Y-102416848D01*
X110233152Y-102321893D01*
X110116855Y-102254749D01*
X110057580Y-102238866D01*
X110681716Y-101614728D01*
X110627550Y-101575375D01*
X110438217Y-101478904D01*
X110236129Y-101413242D01*
X110026246Y-101380000D01*
X109813754Y-101380000D01*
X109603872Y-101413242D01*
X109603869Y-101413242D01*
X109401782Y-101478904D01*
X109212439Y-101575380D01*
X109158282Y-101614727D01*
X109158282Y-101614728D01*
X109782420Y-102238866D01*
X109723145Y-102254749D01*
X109606848Y-102321893D01*
X109511893Y-102416848D01*
X109444749Y-102533145D01*
X109428866Y-102592420D01*
X108804728Y-101968282D01*
X108804727Y-101968282D01*
X108765380Y-102022439D01*
X108668904Y-102211782D01*
X108603242Y-102413869D01*
X108603242Y-102413872D01*
X108570000Y-102623753D01*
X108570000Y-102836246D01*
X108603242Y-103046127D01*
X108603242Y-103046130D01*
X108668904Y-103248217D01*
X108765375Y-103437550D01*
X108804728Y-103491716D01*
X109428866Y-102867579D01*
X109444749Y-102926855D01*
X109511893Y-103043152D01*
X109606848Y-103138107D01*
X109723145Y-103205251D01*
X109782419Y-103221133D01*
X109120370Y-103883181D01*
X109059047Y-103916666D01*
X109032698Y-103919500D01*
X109022134Y-103919500D01*
X109022123Y-103919501D01*
X108962516Y-103925908D01*
X108827671Y-103976202D01*
X108827664Y-103976206D01*
X108712455Y-104062452D01*
X108712452Y-104062455D01*
X108626206Y-104177664D01*
X108626202Y-104177671D01*
X108575908Y-104312517D01*
X108569501Y-104372116D01*
X108569500Y-104372135D01*
X108569500Y-106167870D01*
X108569501Y-106167876D01*
X108575908Y-106227483D01*
X108626202Y-106362328D01*
X108626206Y-106362335D01*
X108712452Y-106477544D01*
X108712455Y-106477547D01*
X108827664Y-106563793D01*
X108827671Y-106563797D01*
X108962517Y-106614091D01*
X108962516Y-106614091D01*
X108969444Y-106614835D01*
X109022127Y-106620500D01*
X110817872Y-106620499D01*
X110877483Y-106614091D01*
X111012331Y-106563796D01*
X111127546Y-106477546D01*
X111213796Y-106362331D01*
X111262810Y-106230916D01*
X111304681Y-106174984D01*
X111370145Y-106150566D01*
X111438418Y-106165417D01*
X111466673Y-106186569D01*
X111580213Y-106300109D01*
X111752179Y-106425048D01*
X111752181Y-106425049D01*
X111752184Y-106425051D01*
X111941588Y-106521557D01*
X112143757Y-106587246D01*
X112353713Y-106620500D01*
X112353714Y-106620500D01*
X112566286Y-106620500D01*
X112566287Y-106620500D01*
X112776243Y-106587246D01*
X112978412Y-106521557D01*
X113167816Y-106425051D01*
X113254138Y-106362335D01*
X113339786Y-106300109D01*
X113339788Y-106300106D01*
X113339792Y-106300104D01*
X113490104Y-106149792D01*
X113490106Y-106149788D01*
X113490109Y-106149786D01*
X113615048Y-105977820D01*
X113615047Y-105977820D01*
X113615051Y-105977816D01*
X113619514Y-105969054D01*
X113667488Y-105918259D01*
X113735308Y-105901463D01*
X113801444Y-105923999D01*
X113840486Y-105969056D01*
X113844951Y-105977820D01*
X113969890Y-106149786D01*
X114120213Y-106300109D01*
X114292184Y-106425051D01*
X114292184Y-106425052D01*
X114331793Y-106445233D01*
X114382590Y-106493206D01*
X114399500Y-106555718D01*
X114399500Y-111920234D01*
X114379815Y-111987273D01*
X114378602Y-111989125D01*
X114290609Y-112120814D01*
X114290602Y-112120827D01*
X114230264Y-112266498D01*
X114230261Y-112266510D01*
X114199500Y-112421153D01*
X114199500Y-112499902D01*
X114179815Y-112566941D01*
X114163181Y-112587583D01*
X112387584Y-114363181D01*
X112326261Y-114396666D01*
X112299903Y-114399500D01*
X106555719Y-114399500D01*
X106488680Y-114379815D01*
X106445235Y-114331795D01*
X106425052Y-114292185D01*
X106425051Y-114292184D01*
X106300109Y-114120213D01*
X106149786Y-113969890D01*
X105977820Y-113844951D01*
X105977115Y-113844591D01*
X105969054Y-113840485D01*
X105918259Y-113792512D01*
X105901463Y-113724692D01*
X105923999Y-113658556D01*
X105969054Y-113619515D01*
X105977816Y-113615051D01*
X106032572Y-113575269D01*
X106149786Y-113490109D01*
X106149788Y-113490106D01*
X106149792Y-113490104D01*
X106300104Y-113339792D01*
X106300106Y-113339788D01*
X106300109Y-113339786D01*
X106425048Y-113167820D01*
X106425047Y-113167820D01*
X106425051Y-113167816D01*
X106521557Y-112978412D01*
X106587246Y-112776243D01*
X106620500Y-112566287D01*
X106620500Y-112353713D01*
X106587246Y-112143757D01*
X106521557Y-111941588D01*
X106425051Y-111752184D01*
X106425049Y-111752181D01*
X106425048Y-111752179D01*
X106300109Y-111580213D01*
X106149786Y-111429890D01*
X105977820Y-111304951D01*
X105977115Y-111304591D01*
X105969054Y-111300485D01*
X105918259Y-111252512D01*
X105901463Y-111184692D01*
X105923999Y-111118556D01*
X105969054Y-111079515D01*
X105977816Y-111075051D01*
X106064138Y-111012335D01*
X106149786Y-110950109D01*
X106149788Y-110950106D01*
X106149792Y-110950104D01*
X106300104Y-110799792D01*
X106300106Y-110799788D01*
X106300109Y-110799786D01*
X106425048Y-110627820D01*
X106425050Y-110627817D01*
X106425051Y-110627816D01*
X106521557Y-110438412D01*
X106587246Y-110236243D01*
X106620500Y-110026287D01*
X106620500Y-109813713D01*
X106587246Y-109603757D01*
X106521557Y-109401588D01*
X106425051Y-109212184D01*
X106425049Y-109212181D01*
X106425048Y-109212179D01*
X106300109Y-109040213D01*
X106149786Y-108889890D01*
X105977820Y-108764951D01*
X105788414Y-108668444D01*
X105788413Y-108668443D01*
X105788412Y-108668443D01*
X105586243Y-108602754D01*
X105586241Y-108602753D01*
X105586240Y-108602753D01*
X105424957Y-108577208D01*
X105376287Y-108569500D01*
X105163713Y-108569500D01*
X105115042Y-108577208D01*
X104953760Y-108602753D01*
X104751585Y-108668444D01*
X104562179Y-108764951D01*
X104390213Y-108889890D01*
X104239890Y-109040213D01*
X104114949Y-109212182D01*
X104110202Y-109221499D01*
X104062227Y-109272293D01*
X103994405Y-109289087D01*
X103928271Y-109266548D01*
X103889234Y-109221495D01*
X103884626Y-109212452D01*
X103845270Y-109158282D01*
X103845269Y-109158282D01*
X103221133Y-109782419D01*
X103205251Y-109723145D01*
X103138107Y-109606848D01*
X103043152Y-109511893D01*
X102926855Y-109444749D01*
X102867580Y-109428866D01*
X103491716Y-108804728D01*
X103437550Y-108765375D01*
X103248217Y-108668904D01*
X103046129Y-108603242D01*
X102836246Y-108570000D01*
X102623754Y-108570000D01*
X102413872Y-108603242D01*
X102413869Y-108603242D01*
X102211782Y-108668904D01*
X102022439Y-108765380D01*
X101968282Y-108804727D01*
X101968282Y-108804728D01*
X102592420Y-109428866D01*
X102533145Y-109444749D01*
X102416848Y-109511893D01*
X102321893Y-109606848D01*
X102254749Y-109723145D01*
X102238866Y-109782420D01*
X101614728Y-109158282D01*
X101614727Y-109158282D01*
X101575380Y-109212439D01*
X101478904Y-109401782D01*
X101413242Y-109603869D01*
X101413242Y-109603872D01*
X101380000Y-109813753D01*
X101380000Y-110026246D01*
X101413242Y-110236127D01*
X101413242Y-110236130D01*
X101478904Y-110438217D01*
X101575375Y-110627550D01*
X101614728Y-110681716D01*
X102238866Y-110057579D01*
X102254749Y-110116855D01*
X102321893Y-110233152D01*
X102416848Y-110328107D01*
X102533145Y-110395251D01*
X102592419Y-110411133D01*
X101999971Y-111003581D01*
X102078711Y-111120895D01*
X102079920Y-111124729D01*
X102082844Y-111127491D01*
X102090343Y-111157778D01*
X102099727Y-111187529D01*
X102098671Y-111191408D01*
X102099638Y-111195312D01*
X102089573Y-111224844D01*
X102081383Y-111254947D01*
X102078397Y-111257640D01*
X102077100Y-111261447D01*
X102032051Y-111300483D01*
X102022440Y-111305380D01*
X101968282Y-111344727D01*
X101968282Y-111344728D01*
X102592420Y-111968866D01*
X102533145Y-111984749D01*
X102416848Y-112051893D01*
X102321893Y-112146848D01*
X102254749Y-112263145D01*
X102238866Y-112322420D01*
X101614728Y-111698282D01*
X101614727Y-111698282D01*
X101575380Y-111752439D01*
X101478904Y-111941782D01*
X101413242Y-112143869D01*
X101413242Y-112143872D01*
X101380000Y-112353753D01*
X101380000Y-112566246D01*
X101413242Y-112776127D01*
X101413242Y-112776130D01*
X101478904Y-112978217D01*
X101575375Y-113167550D01*
X101614728Y-113221716D01*
X102238866Y-112597579D01*
X102254749Y-112656855D01*
X102321893Y-112773152D01*
X102416848Y-112868107D01*
X102533145Y-112935251D01*
X102592419Y-112951133D01*
X101968282Y-113575269D01*
X101968282Y-113575270D01*
X102022452Y-113614626D01*
X102022451Y-113614626D01*
X102031495Y-113619234D01*
X102082292Y-113667208D01*
X102099087Y-113735029D01*
X102076550Y-113801164D01*
X102031499Y-113840202D01*
X102022182Y-113844949D01*
X101850213Y-113969890D01*
X101699890Y-114120213D01*
X101574951Y-114292179D01*
X101478444Y-114481585D01*
X101412753Y-114683760D01*
X101399649Y-114766498D01*
X101379500Y-114893713D01*
X100500500Y-114893713D01*
X100500500Y-100624500D01*
X100520185Y-100557461D01*
X100572989Y-100511706D01*
X100624500Y-100500500D01*
X129375500Y-100500500D01*
X129442539Y-100520185D01*
G37*
%TD.AperFunction*%
%TD*%
M02*
