%TF.GenerationSoftware,KiCad,Pcbnew,10.0.4*%
%TF.CreationDate,2026-07-23T21:09:29-06:00*%
%TF.ProjectId,Square Connector,53717561-7265-4204-936f-6e6e6563746f,rev?*%
%TF.SameCoordinates,Original*%
%TF.FileFunction,Soldermask,Bot*%
%TF.FilePolarity,Negative*%
%FSLAX46Y46*%
G04 Gerber Fmt 4.6, Leading zero omitted, Abs format (unit mm)*
G04 Created by KiCad (PCBNEW 10.0.4) date 2026-07-23 21:09:29*
%MOMM*%
%LPD*%
G01*
G04 APERTURE LIST*
%ADD10C,1.700000*%
%ADD11R,1.700000X1.700000*%
G04 APERTURE END LIST*
D10*
%TO.C,H3*%
X96270000Y-120080000D03*
X93730000Y-120080000D03*
X96270000Y-117540000D03*
X93730000Y-117540000D03*
X96270000Y-115000000D03*
X93730000Y-115000000D03*
X96270000Y-112460000D03*
X93730000Y-112460000D03*
X96270000Y-109920000D03*
D11*
X93730000Y-109920000D03*
%TD*%
%TO.C,H5*%
X105270000Y-151080000D03*
D10*
X102730000Y-151080000D03*
X105270000Y-148540000D03*
X102730000Y-148540000D03*
X105270000Y-146000000D03*
X102730000Y-146000000D03*
X105270000Y-143460000D03*
X102730000Y-143460000D03*
X105270000Y-140920000D03*
X102730000Y-140920000D03*
%TD*%
D11*
%TO.C,H4*%
X93730000Y-140920000D03*
D10*
X96270000Y-140920000D03*
X93730000Y-143460000D03*
X96270000Y-143460000D03*
X93730000Y-146000000D03*
X96270000Y-146000000D03*
X93730000Y-148540000D03*
X96270000Y-148540000D03*
X93730000Y-151080000D03*
X96270000Y-151080000D03*
%TD*%
D11*
%TO.C,H6*%
X105270000Y-120080000D03*
D10*
X102730000Y-120080000D03*
X105270000Y-117540000D03*
X102730000Y-117540000D03*
X105270000Y-115000000D03*
X102730000Y-115000000D03*
X105270000Y-112460000D03*
X102730000Y-112460000D03*
X105270000Y-109920000D03*
X102730000Y-109920000D03*
%TD*%
M02*
