%TF.GenerationSoftware,KiCad,Pcbnew,10.0.4*%
%TF.CreationDate,2026-07-23T21:09:29-06:00*%
%TF.ProjectId,Square Connector,53717561-7265-4204-936f-6e6e6563746f,rev?*%
%TF.SameCoordinates,Original*%
%TF.FileFunction,Legend,Top*%
%TF.FilePolarity,Positive*%
%FSLAX46Y46*%
G04 Gerber Fmt 4.6, Leading zero omitted, Abs format (unit mm)*
G04 Created by KiCad (PCBNEW 10.0.4) date 2026-07-23 21:09:29*
%MOMM*%
%LPD*%
G01*
G04 APERTURE LIST*
%ADD10C,0.000000*%
%ADD11C,0.200000*%
%ADD12C,0.060000*%
%ADD13C,0.250000*%
G04 APERTURE END LIST*
D10*
G36*
X98391988Y-154584388D02*
G01*
X98391846Y-154584621D01*
X98391846Y-154584326D01*
X98391988Y-154584388D01*
G37*
G36*
X99769337Y-155035172D02*
G01*
X99775870Y-155035480D01*
X99782409Y-155036084D01*
X99788983Y-155036991D01*
X99795618Y-155038202D01*
X99802347Y-155039732D01*
X99809190Y-155041580D01*
X99816181Y-155043754D01*
X99830709Y-155049111D01*
X99846151Y-155055853D01*
X99862728Y-155064029D01*
X99880659Y-155073687D01*
X99900170Y-155084885D01*
X99921477Y-155097667D01*
X99629751Y-155673097D01*
X99627928Y-155676389D01*
X99625921Y-155679468D01*
X99623744Y-155682336D01*
X99621404Y-155684990D01*
X99618916Y-155687433D01*
X99616294Y-155689661D01*
X99613550Y-155691682D01*
X99610692Y-155693483D01*
X99607738Y-155695078D01*
X99604698Y-155696458D01*
X99601585Y-155697627D01*
X99598410Y-155698579D01*
X99595184Y-155699324D01*
X99591922Y-155699855D01*
X99588637Y-155700172D01*
X99585339Y-155700277D01*
X99582041Y-155700172D01*
X99578757Y-155699855D01*
X99575490Y-155699324D01*
X99572268Y-155698579D01*
X99569093Y-155697627D01*
X99565980Y-155696458D01*
X99562940Y-155695078D01*
X99559985Y-155693483D01*
X99557128Y-155691682D01*
X99554385Y-155689661D01*
X99551763Y-155687433D01*
X99549275Y-155684990D01*
X99546936Y-155682336D01*
X99544757Y-155679468D01*
X99542751Y-155676389D01*
X99540929Y-155673097D01*
X99249202Y-155096477D01*
X99249496Y-155096477D01*
X99264992Y-155108167D01*
X99282598Y-155120881D01*
X99292129Y-155127371D01*
X99302121Y-155133821D01*
X99312536Y-155140131D01*
X99323357Y-155146200D01*
X99334559Y-155151932D01*
X99346114Y-155157230D01*
X99357999Y-155161992D01*
X99370188Y-155166119D01*
X99376389Y-155167913D01*
X99382659Y-155169513D01*
X99388992Y-155170904D01*
X99395384Y-155172075D01*
X99401836Y-155173014D01*
X99408342Y-155173708D01*
X99414900Y-155174144D01*
X99421505Y-155174311D01*
X99430049Y-155174116D01*
X99438429Y-155173431D01*
X99446654Y-155172286D01*
X99454731Y-155170702D01*
X99462687Y-155168713D01*
X99470517Y-155166338D01*
X99478244Y-155163606D01*
X99485875Y-155160542D01*
X99500907Y-155153525D01*
X99515708Y-155145497D01*
X99530376Y-155136660D01*
X99545012Y-155127226D01*
X99574565Y-155107394D01*
X99589680Y-155097414D01*
X99605152Y-155087667D01*
X99621073Y-155078362D01*
X99637547Y-155069712D01*
X99654664Y-155061915D01*
X99663500Y-155058406D01*
X99672530Y-155055185D01*
X99690078Y-155049482D01*
X99706330Y-155044657D01*
X99721504Y-155040760D01*
X99735823Y-155037842D01*
X99749513Y-155035957D01*
X99756189Y-155035418D01*
X99762788Y-155035155D01*
X99769337Y-155035172D01*
G37*
G36*
X99634923Y-156004086D02*
G01*
X99634801Y-156004332D01*
X99634801Y-156004038D01*
X99634923Y-156004086D01*
G37*
G36*
X100987077Y-155329382D02*
G01*
X100995238Y-155337937D01*
X101001540Y-155351266D01*
X101005939Y-155369105D01*
X101008397Y-155391189D01*
X101007344Y-155446996D01*
X100998068Y-155516526D01*
X100980246Y-155597622D01*
X100953581Y-155688127D01*
X100917749Y-155785885D01*
X100872446Y-155888735D01*
X100846142Y-155941397D01*
X100817358Y-155994517D01*
X100786043Y-156047838D01*
X100752168Y-156101081D01*
X100715688Y-156153978D01*
X100676570Y-156206262D01*
X100634770Y-156257656D01*
X100590245Y-156307900D01*
X100542971Y-156356720D01*
X100492894Y-156403847D01*
X100439982Y-156449005D01*
X100384194Y-156491932D01*
X100325492Y-156532356D01*
X100263837Y-156570009D01*
X100199190Y-156604613D01*
X100131505Y-156635910D01*
X100074904Y-156658474D01*
X100018513Y-156677866D01*
X99962427Y-156694236D01*
X99906738Y-156707746D01*
X99851546Y-156718551D01*
X99796944Y-156726809D01*
X99689896Y-156736302D01*
X99586349Y-156737474D01*
X99487065Y-156731576D01*
X99392814Y-156719860D01*
X99304347Y-156703573D01*
X99222425Y-156683958D01*
X99147815Y-156662276D01*
X99081276Y-156639770D01*
X99023570Y-156617697D01*
X98937695Y-156579829D01*
X98896278Y-156558672D01*
X98854485Y-156534421D01*
X98823026Y-156514673D01*
X98785783Y-156489724D01*
X98743678Y-156459483D01*
X98697660Y-156423868D01*
X98648659Y-156382794D01*
X98597607Y-156336163D01*
X98545449Y-156283892D01*
X98519243Y-156255618D01*
X98493115Y-156225898D01*
X98467177Y-156194724D01*
X98441542Y-156162085D01*
X98416333Y-156127971D01*
X98391669Y-156092373D01*
X98367657Y-156055269D01*
X98344426Y-156016661D01*
X98322087Y-155976535D01*
X98300754Y-155934876D01*
X98280553Y-155891674D01*
X98261586Y-155846923D01*
X98243987Y-155800605D01*
X98227868Y-155752714D01*
X98214201Y-155683199D01*
X98236546Y-155685974D01*
X98259255Y-155687531D01*
X98305772Y-155687435D01*
X98353776Y-155683803D01*
X98403305Y-155677539D01*
X98507046Y-155660716D01*
X98561327Y-155651960D01*
X98617253Y-155644169D01*
X98674856Y-155638250D01*
X98734168Y-155635102D01*
X98795222Y-155635621D01*
X98826412Y-155637538D01*
X98858049Y-155640711D01*
X98890136Y-155645252D01*
X98922680Y-155651273D01*
X98955678Y-155658889D01*
X98989141Y-155668206D01*
X99023072Y-155679342D01*
X99057471Y-155692411D01*
X99092344Y-155707520D01*
X99127698Y-155724787D01*
X99178040Y-155751088D01*
X99224990Y-155776106D01*
X99268816Y-155799901D01*
X99309803Y-155822527D01*
X99597668Y-156344778D01*
X99760461Y-156039092D01*
X99771020Y-156041250D01*
X99781759Y-156043267D01*
X99792694Y-156045147D01*
X99803838Y-156046889D01*
X99815205Y-156048490D01*
X99826802Y-156049952D01*
X99838656Y-156051277D01*
X99850772Y-156052460D01*
X99906362Y-156055085D01*
X99960984Y-156052764D01*
X100014604Y-156045829D01*
X100067188Y-156034611D01*
X100118705Y-156019442D01*
X100169122Y-156000657D01*
X100218409Y-155978583D01*
X100266528Y-155953556D01*
X100313450Y-155925909D01*
X100359143Y-155895967D01*
X100403574Y-155864066D01*
X100446706Y-155830541D01*
X100528958Y-155759932D01*
X100605636Y-155686798D01*
X100676478Y-155613795D01*
X100741230Y-155543573D01*
X100851389Y-155422103D01*
X100896282Y-155376165D01*
X100934039Y-155343627D01*
X100950152Y-155333215D01*
X100964389Y-155327147D01*
X100976709Y-155325762D01*
X100987077Y-155329382D01*
G37*
G36*
X99747094Y-156038793D02*
G01*
X99732326Y-156035521D01*
X99717853Y-156031942D01*
X99703627Y-156028056D01*
X99689612Y-156023867D01*
X99675762Y-156019367D01*
X99662040Y-156014563D01*
X99648398Y-156009455D01*
X99634923Y-156004086D01*
X100152897Y-154964280D01*
X100361741Y-154875160D01*
X99747094Y-156038793D01*
G37*
G36*
X99520772Y-155948755D02*
G01*
X99537881Y-155958045D01*
X99554604Y-155966860D01*
X99571007Y-155975220D01*
X99587156Y-155983132D01*
X99603126Y-155990612D01*
X99618985Y-155997673D01*
X99634801Y-156004332D01*
X99585488Y-156103260D01*
X99503200Y-155938977D01*
X99520772Y-155948755D01*
G37*
G36*
X100484594Y-154250750D02*
G01*
X100484999Y-154250776D01*
X100485404Y-154250822D01*
X100485807Y-154250888D01*
X100486209Y-154250982D01*
X100486605Y-154251091D01*
X100486997Y-154251226D01*
X100487384Y-154251383D01*
X100487762Y-154251558D01*
X100488130Y-154251758D01*
X100488492Y-154251984D01*
X100488843Y-154252226D01*
X100489184Y-154252497D01*
X100500448Y-154262272D01*
X100511941Y-154272447D01*
X100523652Y-154283035D01*
X100535565Y-154294047D01*
X100547656Y-154305489D01*
X100559907Y-154317371D01*
X100572313Y-154329706D01*
X100584840Y-154342506D01*
X100596434Y-154354679D01*
X100608249Y-154367355D01*
X100620251Y-154380539D01*
X100632412Y-154394235D01*
X100644694Y-154408446D01*
X100657070Y-154423176D01*
X100669511Y-154438429D01*
X100681984Y-154454207D01*
X100692717Y-154468159D01*
X100703717Y-154482842D01*
X100714956Y-154498256D01*
X100726395Y-154514403D01*
X100738003Y-154531285D01*
X100749746Y-154548916D01*
X100761582Y-154567285D01*
X100773482Y-154586404D01*
X100773695Y-154586767D01*
X100773881Y-154587140D01*
X100774052Y-154587518D01*
X100774194Y-154587900D01*
X100774321Y-154588286D01*
X100774423Y-154588675D01*
X100774501Y-154589064D01*
X100774558Y-154589453D01*
X100774598Y-154589847D01*
X100774612Y-154590234D01*
X100774611Y-154590627D01*
X100774589Y-154591016D01*
X100774547Y-154591400D01*
X100774484Y-154591783D01*
X100774403Y-154592159D01*
X100774296Y-154592531D01*
X100774177Y-154592896D01*
X100774039Y-154593255D01*
X100773879Y-154593609D01*
X100773703Y-154593948D01*
X100773507Y-154594286D01*
X100773294Y-154594606D01*
X100773063Y-154594920D01*
X100772815Y-154595219D01*
X100772549Y-154595508D01*
X100772263Y-154595782D01*
X100771965Y-154596040D01*
X100771647Y-154596289D01*
X100771310Y-154596518D01*
X100770966Y-154596727D01*
X100770597Y-154596924D01*
X100770214Y-154597099D01*
X100770214Y-154596802D01*
X100166564Y-154872485D01*
X100165977Y-154872736D01*
X100165390Y-154872930D01*
X100164810Y-154873071D01*
X100164231Y-154873160D01*
X100163656Y-154873199D01*
X100163090Y-154873191D01*
X100162531Y-154873136D01*
X100161985Y-154873038D01*
X100161455Y-154872899D01*
X100160933Y-154872717D01*
X100160434Y-154872497D01*
X100159951Y-154872241D01*
X100159489Y-154871947D01*
X100159051Y-154871625D01*
X100158634Y-154871270D01*
X100158245Y-154870889D01*
X100157884Y-154870481D01*
X100157549Y-154870042D01*
X100157252Y-154869585D01*
X100156982Y-154869108D01*
X100156751Y-154868605D01*
X100156556Y-154868089D01*
X100156402Y-154867557D01*
X100156288Y-154867013D01*
X100156213Y-154866455D01*
X100156189Y-154865889D01*
X100156205Y-154865314D01*
X100156269Y-154864733D01*
X100156389Y-154864147D01*
X100156555Y-154863558D01*
X100156779Y-154862972D01*
X100157057Y-154862386D01*
X100477896Y-154254573D01*
X100478100Y-154254195D01*
X100478327Y-154253831D01*
X100478570Y-154253491D01*
X100478832Y-154253170D01*
X100479108Y-154252865D01*
X100479404Y-154252581D01*
X100479710Y-154252319D01*
X100480036Y-154252076D01*
X100480371Y-154251852D01*
X100480715Y-154251649D01*
X100481074Y-154251468D01*
X100481443Y-154251304D01*
X100481815Y-154251162D01*
X100482200Y-154251043D01*
X100482590Y-154250939D01*
X100482982Y-154250862D01*
X100483381Y-154250801D01*
X100483783Y-154250762D01*
X100484190Y-154250745D01*
X100484594Y-154250750D01*
G37*
G36*
X99010356Y-154855257D02*
G01*
X99010524Y-154855633D01*
X99010647Y-154856031D01*
X99010721Y-154856454D01*
X99010752Y-154856894D01*
X99010735Y-154857354D01*
X99010684Y-154857824D01*
X99010590Y-154858308D01*
X99010456Y-154858797D01*
X99010289Y-154859290D01*
X99010086Y-154859788D01*
X99009855Y-154860283D01*
X99009592Y-154860775D01*
X99009300Y-154861259D01*
X99008983Y-154861736D01*
X99008640Y-154862194D01*
X99008276Y-154862644D01*
X99007890Y-154863074D01*
X99007482Y-154863482D01*
X99007060Y-154863866D01*
X99006622Y-154864222D01*
X99006174Y-154864547D01*
X99005709Y-154864844D01*
X99005237Y-154865104D01*
X99004757Y-154865325D01*
X99004270Y-154865503D01*
X99003777Y-154865637D01*
X99003284Y-154865723D01*
X99002792Y-154865763D01*
X99002298Y-154865745D01*
X99001809Y-154865676D01*
X99001326Y-154865547D01*
X99000846Y-154865354D01*
X98391988Y-154584388D01*
X98404263Y-154563831D01*
X98417689Y-154542283D01*
X98432166Y-154520063D01*
X98447735Y-154497244D01*
X98464431Y-154473912D01*
X98482293Y-154450146D01*
X98501359Y-154426022D01*
X98521671Y-154401623D01*
X98542724Y-154377544D01*
X98563715Y-154354748D01*
X98584553Y-154333213D01*
X98605149Y-154312912D01*
X98625409Y-154293822D01*
X98645242Y-154275921D01*
X98664564Y-154259181D01*
X98683277Y-154243581D01*
X99010356Y-154855257D01*
G37*
G36*
X99503200Y-155938977D02*
G01*
X99300000Y-155822527D01*
X98920044Y-155127079D01*
X98937424Y-155123578D01*
X98955024Y-155119301D01*
X98972849Y-155114226D01*
X98990898Y-155108324D01*
X99009164Y-155101573D01*
X99027657Y-155093948D01*
X99046375Y-155085426D01*
X99065313Y-155075980D01*
X99069769Y-155073605D01*
X99503200Y-155938977D01*
G37*
G36*
X99011544Y-154957152D02*
G01*
X99070066Y-155073900D01*
X99065611Y-155076278D01*
X99046588Y-155085724D01*
X99027829Y-155094245D01*
X99009331Y-155101870D01*
X98991083Y-155108623D01*
X98973068Y-155114522D01*
X98955280Y-155119601D01*
X98937708Y-155123874D01*
X98920339Y-155127372D01*
X98779825Y-154870109D01*
X98779527Y-154869811D01*
X99011544Y-154957152D01*
G37*
G36*
X99623329Y-153914094D02*
G01*
X99684401Y-153917354D01*
X99747386Y-153923704D01*
X99779554Y-153928128D01*
X99812155Y-153933438D01*
X99863484Y-153943398D01*
X99912748Y-153954798D01*
X99959957Y-153967469D01*
X100005103Y-153981264D01*
X100048188Y-153996013D01*
X100089212Y-154011562D01*
X100128174Y-154027757D01*
X100165076Y-154044432D01*
X100199918Y-154061430D01*
X100232698Y-154078595D01*
X100292076Y-154112781D01*
X100343209Y-154145723D01*
X100386101Y-154176147D01*
X100388989Y-154178327D01*
X100391855Y-154180454D01*
X100393269Y-154181511D01*
X100394663Y-154182578D01*
X100396040Y-154183660D01*
X100397388Y-154184762D01*
X100157355Y-154649979D01*
X100157325Y-154649979D01*
X100157297Y-154649983D01*
X100157261Y-154649986D01*
X100157214Y-154649998D01*
X100157164Y-154650009D01*
X100157111Y-154650026D01*
X100157085Y-154650036D01*
X100157057Y-154650052D01*
X100157031Y-154650066D01*
X100156999Y-154650082D01*
X100156974Y-154650102D01*
X100156946Y-154650123D01*
X100156922Y-154650145D01*
X100156897Y-154650170D01*
X100156873Y-154650199D01*
X100156851Y-154650228D01*
X100156833Y-154650263D01*
X100156813Y-154650297D01*
X100156798Y-154650334D01*
X100156785Y-154650374D01*
X100156772Y-154650418D01*
X100156764Y-154650467D01*
X100156760Y-154650519D01*
X100156758Y-154650573D01*
X100151012Y-154654013D01*
X100144878Y-154657629D01*
X100141646Y-154659478D01*
X100138293Y-154661348D01*
X100134820Y-154663235D01*
X100131210Y-154665130D01*
X100131196Y-154665130D01*
X100131182Y-154665130D01*
X100131161Y-154665135D01*
X100131132Y-154665139D01*
X100131099Y-154665144D01*
X100131064Y-154665154D01*
X100131026Y-154665166D01*
X100130982Y-154665181D01*
X100130962Y-154665190D01*
X100130935Y-154665202D01*
X100130913Y-154665213D01*
X100130885Y-154665225D01*
X100130860Y-154665239D01*
X100130835Y-154665253D01*
X100130808Y-154665271D01*
X100130779Y-154665286D01*
X100130754Y-154665308D01*
X100130724Y-154665327D01*
X100130698Y-154665349D01*
X100130670Y-154665374D01*
X100130644Y-154665398D01*
X100130615Y-154665424D01*
X100126525Y-154667552D01*
X100122275Y-154669699D01*
X100117882Y-154671855D01*
X100113348Y-154674003D01*
X100108693Y-154676138D01*
X100103920Y-154678253D01*
X100099046Y-154680327D01*
X100094077Y-154682357D01*
X100083930Y-154686317D01*
X100073328Y-154690147D01*
X100062293Y-154693795D01*
X100050852Y-154697211D01*
X100039021Y-154700351D01*
X100026818Y-154703163D01*
X100014268Y-154705600D01*
X100007870Y-154706660D01*
X100001389Y-154707611D01*
X99990212Y-154709254D01*
X99977263Y-154710584D01*
X99969250Y-154711172D01*
X99960320Y-154711621D01*
X99950562Y-154711877D01*
X99940060Y-154711877D01*
X99928900Y-154711559D01*
X99917168Y-154710870D01*
X99904950Y-154709741D01*
X99892329Y-154708122D01*
X99885893Y-154707107D01*
X99879391Y-154705947D01*
X99872830Y-154704628D01*
X99866220Y-154703154D01*
X99848539Y-154698222D01*
X99828172Y-154691363D01*
X99805535Y-154682793D01*
X99781016Y-154672722D01*
X99727985Y-154648930D01*
X99672308Y-154621681D01*
X99617215Y-154592679D01*
X99565935Y-154563624D01*
X99542739Y-154549604D01*
X99521704Y-154536207D01*
X99503242Y-154523649D01*
X99487750Y-154512135D01*
X99465925Y-154495617D01*
X99440328Y-154477609D01*
X99411140Y-154458325D01*
X99378528Y-154437965D01*
X99342669Y-154416737D01*
X99303741Y-154394844D01*
X99261903Y-154372495D01*
X99217338Y-154349898D01*
X99170219Y-154327251D01*
X99120718Y-154304767D01*
X99069010Y-154282651D01*
X99015265Y-154261105D01*
X98959655Y-154240338D01*
X98902360Y-154220553D01*
X98843547Y-154201960D01*
X98783390Y-154184762D01*
X98769129Y-154180898D01*
X98768837Y-154180305D01*
X98779234Y-154172285D01*
X98792084Y-154162615D01*
X98805288Y-154152982D01*
X98818931Y-154143350D01*
X98833077Y-154133701D01*
X98847806Y-154124014D01*
X98863200Y-154114257D01*
X98879333Y-154104409D01*
X98896278Y-154094451D01*
X98918844Y-154081733D01*
X98941054Y-154069856D01*
X98962859Y-154058789D01*
X98984213Y-154048514D01*
X99005063Y-154039005D01*
X99025366Y-154030240D01*
X99045068Y-154022192D01*
X99064125Y-154014835D01*
X99115946Y-153995338D01*
X99147185Y-153984625D01*
X99181797Y-153973667D01*
X99219656Y-153962772D01*
X99260623Y-153952241D01*
X99304570Y-153942372D01*
X99351357Y-153933474D01*
X99400859Y-153925847D01*
X99452939Y-153919793D01*
X99507466Y-153915616D01*
X99564307Y-153913613D01*
X99623329Y-153914094D01*
G37*
G36*
X100517843Y-106874669D02*
G01*
X100518141Y-106874967D01*
X100286124Y-106787626D01*
X100227602Y-106670878D01*
X100232057Y-106668500D01*
X100251080Y-106659054D01*
X100269839Y-106650533D01*
X100288337Y-106642908D01*
X100306585Y-106636155D01*
X100324600Y-106630256D01*
X100342388Y-106625177D01*
X100359960Y-106620904D01*
X100377329Y-106617406D01*
X100517843Y-106874669D01*
G37*
G36*
X99810603Y-105013202D02*
G01*
X99904854Y-105024918D01*
X99993321Y-105041205D01*
X100075243Y-105060820D01*
X100149853Y-105082502D01*
X100216392Y-105105008D01*
X100274098Y-105127081D01*
X100359973Y-105164949D01*
X100401390Y-105186106D01*
X100443183Y-105210357D01*
X100474642Y-105230105D01*
X100511885Y-105255054D01*
X100553990Y-105285295D01*
X100600008Y-105320910D01*
X100649009Y-105361984D01*
X100700061Y-105408615D01*
X100752219Y-105460886D01*
X100778425Y-105489160D01*
X100804553Y-105518880D01*
X100830491Y-105550054D01*
X100856126Y-105582693D01*
X100881335Y-105616807D01*
X100905999Y-105652405D01*
X100930011Y-105689509D01*
X100953242Y-105728117D01*
X100975581Y-105768243D01*
X100996914Y-105809902D01*
X101017115Y-105853104D01*
X101036082Y-105897855D01*
X101053681Y-105944173D01*
X101069800Y-105992064D01*
X101083467Y-106061579D01*
X101061122Y-106058804D01*
X101038413Y-106057247D01*
X100991896Y-106057343D01*
X100943892Y-106060975D01*
X100894363Y-106067239D01*
X100790622Y-106084062D01*
X100736341Y-106092818D01*
X100680415Y-106100609D01*
X100622812Y-106106528D01*
X100563500Y-106109676D01*
X100502446Y-106109157D01*
X100471256Y-106107240D01*
X100439619Y-106104067D01*
X100407532Y-106099526D01*
X100374988Y-106093505D01*
X100341990Y-106085889D01*
X100308527Y-106076572D01*
X100274596Y-106065436D01*
X100240197Y-106052367D01*
X100205324Y-106037258D01*
X100169970Y-106019991D01*
X100119628Y-105993690D01*
X100072678Y-105968672D01*
X100028852Y-105944877D01*
X99987865Y-105922251D01*
X99700000Y-105400000D01*
X99537207Y-105705686D01*
X99526648Y-105703528D01*
X99515909Y-105701511D01*
X99504974Y-105699631D01*
X99493830Y-105697889D01*
X99482463Y-105696288D01*
X99470866Y-105694826D01*
X99459012Y-105693501D01*
X99446896Y-105692318D01*
X99391306Y-105689693D01*
X99336684Y-105692014D01*
X99283064Y-105698949D01*
X99230480Y-105710167D01*
X99178963Y-105725336D01*
X99128546Y-105744121D01*
X99079259Y-105766195D01*
X99031140Y-105791222D01*
X98984218Y-105818869D01*
X98938525Y-105848811D01*
X98894094Y-105880712D01*
X98850962Y-105914237D01*
X98768710Y-105984846D01*
X98692032Y-106057980D01*
X98621190Y-106130983D01*
X98556438Y-106201205D01*
X98446279Y-106322675D01*
X98401386Y-106368613D01*
X98363629Y-106401151D01*
X98347516Y-106411563D01*
X98333279Y-106417631D01*
X98320959Y-106419016D01*
X98310591Y-106415396D01*
X98302430Y-106406841D01*
X98296128Y-106393512D01*
X98291729Y-106375673D01*
X98289271Y-106353589D01*
X98290324Y-106297782D01*
X98299600Y-106228252D01*
X98317422Y-106147156D01*
X98344087Y-106056651D01*
X98379919Y-105958893D01*
X98425222Y-105856043D01*
X98451526Y-105803381D01*
X98480310Y-105750261D01*
X98511625Y-105696940D01*
X98545500Y-105643697D01*
X98581980Y-105590800D01*
X98621098Y-105538516D01*
X98662898Y-105487122D01*
X98707423Y-105436878D01*
X98754697Y-105388058D01*
X98804774Y-105340931D01*
X98857686Y-105295773D01*
X98913474Y-105252846D01*
X98972176Y-105212422D01*
X99033831Y-105174769D01*
X99098478Y-105140165D01*
X99166163Y-105108868D01*
X99222764Y-105086304D01*
X99279155Y-105066912D01*
X99335241Y-105050542D01*
X99390930Y-105037032D01*
X99446122Y-105026227D01*
X99500724Y-105017969D01*
X99607772Y-105008476D01*
X99711319Y-105007304D01*
X99810603Y-105013202D01*
G37*
G36*
X99565342Y-105709257D02*
G01*
X99579815Y-105712836D01*
X99594041Y-105716722D01*
X99608056Y-105720911D01*
X99621906Y-105725411D01*
X99635628Y-105730215D01*
X99649270Y-105735323D01*
X99662745Y-105740692D01*
X99144771Y-106780498D01*
X98935927Y-106869618D01*
X99550574Y-105705985D01*
X99565342Y-105709257D01*
G37*
G36*
X99368768Y-107033219D02*
G01*
X99380500Y-107033908D01*
X99392718Y-107035037D01*
X99405339Y-107036656D01*
X99411775Y-107037671D01*
X99418277Y-107038831D01*
X99424838Y-107040150D01*
X99431448Y-107041624D01*
X99449129Y-107046556D01*
X99469496Y-107053415D01*
X99492133Y-107061985D01*
X99516652Y-107072056D01*
X99569683Y-107095848D01*
X99625360Y-107123097D01*
X99680453Y-107152099D01*
X99731733Y-107181154D01*
X99754929Y-107195174D01*
X99775964Y-107208571D01*
X99794426Y-107221129D01*
X99809918Y-107232643D01*
X99831743Y-107249161D01*
X99857340Y-107267169D01*
X99886528Y-107286453D01*
X99919140Y-107306813D01*
X99954999Y-107328041D01*
X99993927Y-107349934D01*
X100035765Y-107372283D01*
X100080330Y-107394880D01*
X100127449Y-107417527D01*
X100176950Y-107440011D01*
X100228658Y-107462127D01*
X100282403Y-107483673D01*
X100338013Y-107504440D01*
X100395308Y-107524225D01*
X100454121Y-107542818D01*
X100514278Y-107560016D01*
X100528539Y-107563880D01*
X100528831Y-107564473D01*
X100518434Y-107572493D01*
X100505584Y-107582163D01*
X100492380Y-107591796D01*
X100478737Y-107601428D01*
X100464591Y-107611077D01*
X100449862Y-107620764D01*
X100434468Y-107630521D01*
X100418335Y-107640369D01*
X100401390Y-107650327D01*
X100378824Y-107663045D01*
X100356614Y-107674922D01*
X100334809Y-107685989D01*
X100313455Y-107696264D01*
X100292605Y-107705773D01*
X100272302Y-107714538D01*
X100252600Y-107722586D01*
X100233543Y-107729943D01*
X100181722Y-107749440D01*
X100150483Y-107760153D01*
X100115871Y-107771111D01*
X100078012Y-107782006D01*
X100037045Y-107792537D01*
X99993098Y-107802406D01*
X99946311Y-107811304D01*
X99896809Y-107818931D01*
X99844729Y-107824985D01*
X99790202Y-107829162D01*
X99733361Y-107831165D01*
X99674339Y-107830684D01*
X99613267Y-107827424D01*
X99550282Y-107821074D01*
X99518114Y-107816650D01*
X99485513Y-107811340D01*
X99434184Y-107801380D01*
X99384920Y-107789980D01*
X99337711Y-107777309D01*
X99292565Y-107763514D01*
X99249480Y-107748765D01*
X99208456Y-107733216D01*
X99169494Y-107717021D01*
X99132592Y-107700346D01*
X99097750Y-107683348D01*
X99064970Y-107666183D01*
X99005592Y-107631997D01*
X98954459Y-107599055D01*
X98911567Y-107568631D01*
X98908679Y-107566451D01*
X98905813Y-107564324D01*
X98904399Y-107563267D01*
X98903005Y-107562200D01*
X98901628Y-107561118D01*
X98900280Y-107560016D01*
X99140313Y-107094799D01*
X99140343Y-107094799D01*
X99140371Y-107094795D01*
X99140407Y-107094792D01*
X99140454Y-107094780D01*
X99140504Y-107094769D01*
X99140557Y-107094752D01*
X99140583Y-107094742D01*
X99140611Y-107094726D01*
X99140637Y-107094712D01*
X99140669Y-107094696D01*
X99140694Y-107094676D01*
X99140722Y-107094655D01*
X99140746Y-107094633D01*
X99140771Y-107094608D01*
X99140795Y-107094579D01*
X99140817Y-107094550D01*
X99140835Y-107094515D01*
X99140855Y-107094481D01*
X99140870Y-107094444D01*
X99140883Y-107094404D01*
X99140896Y-107094360D01*
X99140904Y-107094311D01*
X99140908Y-107094259D01*
X99140910Y-107094205D01*
X99146656Y-107090765D01*
X99152790Y-107087149D01*
X99156022Y-107085300D01*
X99159375Y-107083430D01*
X99162848Y-107081543D01*
X99166458Y-107079648D01*
X99166472Y-107079648D01*
X99166486Y-107079648D01*
X99166507Y-107079643D01*
X99166536Y-107079639D01*
X99166569Y-107079634D01*
X99166604Y-107079624D01*
X99166642Y-107079612D01*
X99166686Y-107079597D01*
X99166706Y-107079588D01*
X99166733Y-107079576D01*
X99166755Y-107079565D01*
X99166783Y-107079553D01*
X99166808Y-107079539D01*
X99166833Y-107079525D01*
X99166860Y-107079507D01*
X99166889Y-107079492D01*
X99166914Y-107079470D01*
X99166944Y-107079451D01*
X99166970Y-107079429D01*
X99166998Y-107079404D01*
X99167024Y-107079380D01*
X99167053Y-107079354D01*
X99171143Y-107077226D01*
X99175393Y-107075079D01*
X99179786Y-107072923D01*
X99184320Y-107070775D01*
X99188975Y-107068640D01*
X99193748Y-107066525D01*
X99198622Y-107064451D01*
X99203591Y-107062421D01*
X99213738Y-107058461D01*
X99224340Y-107054631D01*
X99235375Y-107050983D01*
X99246816Y-107047567D01*
X99258647Y-107044427D01*
X99270850Y-107041615D01*
X99283400Y-107039178D01*
X99289798Y-107038118D01*
X99296279Y-107037167D01*
X99307456Y-107035524D01*
X99320405Y-107034194D01*
X99328418Y-107033606D01*
X99337348Y-107033157D01*
X99347106Y-107032901D01*
X99357608Y-107032901D01*
X99368768Y-107033219D01*
G37*
G36*
X99134578Y-106871587D02*
G01*
X99135137Y-106871642D01*
X99135683Y-106871740D01*
X99136213Y-106871879D01*
X99136735Y-106872061D01*
X99137234Y-106872281D01*
X99137717Y-106872537D01*
X99138179Y-106872831D01*
X99138617Y-106873153D01*
X99139034Y-106873508D01*
X99139423Y-106873889D01*
X99139784Y-106874297D01*
X99140119Y-106874736D01*
X99140416Y-106875193D01*
X99140686Y-106875670D01*
X99140917Y-106876173D01*
X99141112Y-106876689D01*
X99141266Y-106877221D01*
X99141380Y-106877765D01*
X99141455Y-106878323D01*
X99141479Y-106878889D01*
X99141463Y-106879464D01*
X99141399Y-106880045D01*
X99141279Y-106880631D01*
X99141113Y-106881220D01*
X99140889Y-106881806D01*
X99140611Y-106882392D01*
X98819772Y-107490205D01*
X98819568Y-107490583D01*
X98819341Y-107490947D01*
X98819098Y-107491287D01*
X98818836Y-107491608D01*
X98818560Y-107491913D01*
X98818264Y-107492197D01*
X98817958Y-107492459D01*
X98817632Y-107492702D01*
X98817297Y-107492926D01*
X98816953Y-107493129D01*
X98816594Y-107493310D01*
X98816225Y-107493474D01*
X98815853Y-107493616D01*
X98815468Y-107493735D01*
X98815078Y-107493839D01*
X98814686Y-107493916D01*
X98814287Y-107493977D01*
X98813885Y-107494016D01*
X98813478Y-107494033D01*
X98813074Y-107494028D01*
X98812669Y-107494002D01*
X98812264Y-107493956D01*
X98811861Y-107493890D01*
X98811459Y-107493796D01*
X98811063Y-107493687D01*
X98810671Y-107493552D01*
X98810284Y-107493395D01*
X98809906Y-107493220D01*
X98809538Y-107493020D01*
X98809176Y-107492794D01*
X98808825Y-107492552D01*
X98808484Y-107492281D01*
X98797220Y-107482506D01*
X98785727Y-107472331D01*
X98774016Y-107461743D01*
X98762103Y-107450731D01*
X98750012Y-107439289D01*
X98737761Y-107427407D01*
X98725355Y-107415072D01*
X98712828Y-107402272D01*
X98701234Y-107390099D01*
X98689419Y-107377423D01*
X98677417Y-107364239D01*
X98665256Y-107350543D01*
X98652974Y-107336332D01*
X98640598Y-107321602D01*
X98628157Y-107306349D01*
X98615684Y-107290571D01*
X98604951Y-107276619D01*
X98593951Y-107261936D01*
X98582712Y-107246522D01*
X98571273Y-107230375D01*
X98559665Y-107213493D01*
X98547922Y-107195862D01*
X98536086Y-107177493D01*
X98524186Y-107158374D01*
X98523973Y-107158011D01*
X98523787Y-107157638D01*
X98523616Y-107157260D01*
X98523474Y-107156878D01*
X98523347Y-107156492D01*
X98523245Y-107156103D01*
X98523167Y-107155714D01*
X98523110Y-107155325D01*
X98523070Y-107154931D01*
X98523056Y-107154544D01*
X98523057Y-107154151D01*
X98523079Y-107153762D01*
X98523121Y-107153378D01*
X98523184Y-107152995D01*
X98523265Y-107152619D01*
X98523372Y-107152247D01*
X98523491Y-107151882D01*
X98523629Y-107151523D01*
X98523789Y-107151169D01*
X98523965Y-107150830D01*
X98524161Y-107150492D01*
X98524374Y-107150172D01*
X98524605Y-107149858D01*
X98524853Y-107149559D01*
X98525119Y-107149270D01*
X98525405Y-107148996D01*
X98525703Y-107148738D01*
X98526021Y-107148489D01*
X98526358Y-107148260D01*
X98526702Y-107148051D01*
X98527071Y-107147854D01*
X98527454Y-107147679D01*
X98527454Y-107147976D01*
X99131104Y-106872293D01*
X99131691Y-106872042D01*
X99132278Y-106871848D01*
X99132858Y-106871707D01*
X99133437Y-106871618D01*
X99134012Y-106871579D01*
X99134578Y-106871587D01*
G37*
G36*
X99662867Y-105740740D02*
G01*
X99662745Y-105740692D01*
X99662867Y-105740446D01*
X99662867Y-105740740D01*
G37*
G36*
X99715627Y-106044606D02*
G01*
X99718911Y-106044923D01*
X99722178Y-106045454D01*
X99725400Y-106046199D01*
X99728575Y-106047151D01*
X99731688Y-106048320D01*
X99734728Y-106049700D01*
X99737683Y-106051295D01*
X99740540Y-106053096D01*
X99743283Y-106055117D01*
X99745905Y-106057345D01*
X99748393Y-106059788D01*
X99750732Y-106062442D01*
X99752911Y-106065310D01*
X99754917Y-106068389D01*
X99756739Y-106071681D01*
X100048466Y-106648301D01*
X100048172Y-106648301D01*
X100032676Y-106636611D01*
X100015070Y-106623897D01*
X100005539Y-106617407D01*
X99995547Y-106610957D01*
X99985132Y-106604647D01*
X99974311Y-106598578D01*
X99963109Y-106592846D01*
X99951554Y-106587548D01*
X99939669Y-106582786D01*
X99927480Y-106578659D01*
X99921279Y-106576865D01*
X99915009Y-106575265D01*
X99908676Y-106573874D01*
X99902284Y-106572703D01*
X99895832Y-106571764D01*
X99889326Y-106571070D01*
X99882768Y-106570634D01*
X99876163Y-106570467D01*
X99867619Y-106570662D01*
X99859239Y-106571347D01*
X99851014Y-106572492D01*
X99842937Y-106574076D01*
X99834981Y-106576065D01*
X99827151Y-106578440D01*
X99819424Y-106581172D01*
X99811793Y-106584236D01*
X99796761Y-106591253D01*
X99781960Y-106599281D01*
X99767292Y-106608118D01*
X99752656Y-106617552D01*
X99723103Y-106637384D01*
X99707988Y-106647364D01*
X99692516Y-106657111D01*
X99676595Y-106666416D01*
X99660121Y-106675066D01*
X99643004Y-106682863D01*
X99634168Y-106686372D01*
X99625138Y-106689593D01*
X99607590Y-106695296D01*
X99591338Y-106700121D01*
X99576164Y-106704018D01*
X99561845Y-106706936D01*
X99548155Y-106708821D01*
X99541479Y-106709360D01*
X99534880Y-106709623D01*
X99528331Y-106709606D01*
X99521798Y-106709298D01*
X99515259Y-106708694D01*
X99508685Y-106707787D01*
X99502050Y-106706576D01*
X99495321Y-106705046D01*
X99488478Y-106703198D01*
X99481487Y-106701024D01*
X99466959Y-106695667D01*
X99451517Y-106688925D01*
X99434940Y-106680749D01*
X99417009Y-106671091D01*
X99397498Y-106659893D01*
X99376191Y-106647111D01*
X99667917Y-106071681D01*
X99669740Y-106068389D01*
X99671747Y-106065310D01*
X99673924Y-106062442D01*
X99676264Y-106059788D01*
X99678752Y-106057345D01*
X99681374Y-106055117D01*
X99684118Y-106053096D01*
X99686976Y-106051295D01*
X99689930Y-106049700D01*
X99692970Y-106048320D01*
X99696083Y-106047151D01*
X99699258Y-106046199D01*
X99702484Y-106045454D01*
X99705746Y-106044923D01*
X99709031Y-106044606D01*
X99712329Y-106044501D01*
X99715627Y-106044606D01*
G37*
G36*
X100295370Y-106879033D02*
G01*
X100295859Y-106879102D01*
X100296342Y-106879231D01*
X100296822Y-106879424D01*
X100905680Y-107160390D01*
X100893405Y-107180947D01*
X100879979Y-107202495D01*
X100865502Y-107224715D01*
X100849933Y-107247534D01*
X100833237Y-107270866D01*
X100815375Y-107294632D01*
X100796309Y-107318756D01*
X100775997Y-107343155D01*
X100754944Y-107367234D01*
X100733953Y-107390030D01*
X100713115Y-107411565D01*
X100692519Y-107431866D01*
X100672259Y-107450956D01*
X100652426Y-107468857D01*
X100633104Y-107485597D01*
X100614391Y-107501197D01*
X100287312Y-106889521D01*
X100287144Y-106889145D01*
X100287021Y-106888747D01*
X100286947Y-106888324D01*
X100286916Y-106887884D01*
X100286933Y-106887424D01*
X100286984Y-106886954D01*
X100287078Y-106886470D01*
X100287212Y-106885981D01*
X100287379Y-106885488D01*
X100287582Y-106884990D01*
X100287813Y-106884495D01*
X100288076Y-106884003D01*
X100288368Y-106883519D01*
X100288685Y-106883042D01*
X100289028Y-106882584D01*
X100289392Y-106882134D01*
X100289778Y-106881704D01*
X100290186Y-106881296D01*
X100290608Y-106880912D01*
X100291046Y-106880556D01*
X100291494Y-106880231D01*
X100291959Y-106879934D01*
X100292431Y-106879674D01*
X100292911Y-106879453D01*
X100293398Y-106879275D01*
X100293891Y-106879141D01*
X100294384Y-106879055D01*
X100294876Y-106879015D01*
X100295370Y-106879033D01*
G37*
G36*
X100905822Y-107160452D02*
G01*
X100905680Y-107160390D01*
X100905822Y-107160157D01*
X100905822Y-107160452D01*
G37*
G36*
X99997668Y-105922251D02*
G01*
X100377624Y-106617699D01*
X100360244Y-106621200D01*
X100342644Y-106625477D01*
X100324819Y-106630552D01*
X100306770Y-106636454D01*
X100288504Y-106643205D01*
X100270011Y-106650830D01*
X100251293Y-106659352D01*
X100232355Y-106668798D01*
X100227899Y-106671173D01*
X99794468Y-105805801D01*
X99997668Y-105922251D01*
G37*
G36*
X99794468Y-105805801D02*
G01*
X99776896Y-105796023D01*
X99759787Y-105786733D01*
X99743064Y-105777918D01*
X99726661Y-105769558D01*
X99710512Y-105761646D01*
X99694542Y-105754166D01*
X99678683Y-105747105D01*
X99662867Y-105740446D01*
X99712180Y-105641518D01*
X99794468Y-105805801D01*
G37*
D11*
X93273810Y-138341683D02*
X94226191Y-138341683D01*
X93750000Y-138817873D02*
X93750000Y-137865492D01*
X95773810Y-138341683D02*
X96726191Y-138341683D01*
X93273810Y-153841683D02*
X94226191Y-153841683D01*
X93750000Y-154317873D02*
X93750000Y-153365492D01*
X95773810Y-153841683D02*
X96726191Y-153841683D01*
X93273810Y-107341683D02*
X94226191Y-107341683D01*
X93750000Y-107817873D02*
X93750000Y-106865492D01*
X95773810Y-107341683D02*
X96726191Y-107341683D01*
X93273810Y-122591683D02*
X94226191Y-122591683D01*
X93750000Y-123067873D02*
X93750000Y-122115492D01*
X95773810Y-122591683D02*
X96726191Y-122591683D01*
X105976189Y-107408316D02*
X105023809Y-107408316D01*
X105499999Y-106932126D02*
X105499999Y-107884507D01*
X103476189Y-107408316D02*
X102523809Y-107408316D01*
X105976189Y-122658316D02*
X105023809Y-122658316D01*
X105499999Y-122182126D02*
X105499999Y-123134507D01*
X103476189Y-122658316D02*
X102523809Y-122658316D01*
X105976189Y-138408316D02*
X105023809Y-138408316D01*
X105499999Y-137932126D02*
X105499999Y-138884507D01*
X103476189Y-138408316D02*
X102523809Y-138408316D01*
X105976189Y-153658316D02*
X105023809Y-153658316D01*
X105499999Y-153182126D02*
X105499999Y-154134507D01*
X103476189Y-153658316D02*
X102523809Y-153658316D01*
%TO.C,H3*%
D12*
X92530000Y-108650000D02*
G75*
G02*
X92470000Y-108650000I-30000J0D01*
G01*
X92470000Y-108650000D02*
G75*
G02*
X92530000Y-108650000I30000J0D01*
G01*
D13*
X97540000Y-121350000D02*
X92460000Y-121350000D01*
X97540000Y-108650000D02*
X97540000Y-121350000D01*
X97540000Y-108650000D02*
X92460000Y-108650000D01*
X95010000Y-111190000D02*
X92460000Y-111190000D01*
X95000000Y-108650000D02*
X95010000Y-111190000D01*
X92460000Y-108650000D02*
X92460000Y-121350000D01*
%TO.C,H5*%
X101460000Y-139650000D02*
X106540000Y-139650000D01*
X101460000Y-152350000D02*
X101460000Y-139650000D01*
X101460000Y-152350000D02*
X106540000Y-152350000D01*
X103990000Y-149810000D02*
X106540000Y-149810000D01*
X104000000Y-152350000D02*
X103990000Y-149810000D01*
X106540000Y-152350000D02*
X106540000Y-139650000D01*
D12*
X106530000Y-152350000D02*
G75*
G02*
X106470000Y-152350000I-30000J0D01*
G01*
X106470000Y-152350000D02*
G75*
G02*
X106530000Y-152350000I30000J0D01*
G01*
%TO.C,H4*%
D13*
X92460000Y-139650000D02*
X92460000Y-152350000D01*
X95000000Y-139650000D02*
X95010000Y-142190000D01*
X95010000Y-142190000D02*
X92460000Y-142190000D01*
X97540000Y-139650000D02*
X92460000Y-139650000D01*
X97540000Y-139650000D02*
X97540000Y-152350000D01*
X97540000Y-152350000D02*
X92460000Y-152350000D01*
D12*
X92530000Y-139650000D02*
G75*
G02*
X92470000Y-139650000I-30000J0D01*
G01*
X92470000Y-139650000D02*
G75*
G02*
X92530000Y-139650000I30000J0D01*
G01*
%TO.C,H6*%
D13*
X101460000Y-108650000D02*
X106540000Y-108650000D01*
X101460000Y-121350000D02*
X101460000Y-108650000D01*
X101460000Y-121350000D02*
X106540000Y-121350000D01*
X103990000Y-118810000D02*
X106540000Y-118810000D01*
X104000000Y-121350000D02*
X103990000Y-118810000D01*
X106540000Y-121350000D02*
X106540000Y-108650000D01*
D12*
X106530000Y-121350000D02*
G75*
G02*
X106470000Y-121350000I-30000J0D01*
G01*
X106470000Y-121350000D02*
G75*
G02*
X106530000Y-121350000I30000J0D01*
G01*
%TD*%
M02*
