%TF.GenerationSoftware,KiCad,Pcbnew,10.0.4*%
%TF.CreationDate,2026-07-23T15:45:35-06:00*%
%TF.ProjectId,Square Connector,53717561-7265-4204-936f-6e6e6563746f,rev?*%
%TF.SameCoordinates,Original*%
%TF.FileFunction,Legend,Top*%
%TF.FilePolarity,Positive*%
%FSLAX46Y46*%
G04 Gerber Fmt 4.6, Leading zero omitted, Abs format (unit mm)*
G04 Created by KiCad (PCBNEW 10.0.4) date 2026-07-23 15:45:35*
%MOMM*%
%LPD*%
G01*
G04 APERTURE LIST*
%ADD10C,0.200000*%
%ADD11C,0.000000*%
%ADD12C,0.150000*%
%ADD13C,0.250000*%
%ADD14C,0.060000*%
G04 APERTURE END LIST*
D10*
X124273808Y-153841683D02*
X125226189Y-153841683D01*
X124749998Y-154317873D02*
X124749998Y-153365492D01*
X126773808Y-153841683D02*
X127726189Y-153841683D01*
X124273808Y-138341683D02*
X125226189Y-138341683D01*
X124749998Y-138817873D02*
X124749998Y-137865492D01*
X126773808Y-138341683D02*
X127726189Y-138341683D01*
X124273810Y-107341683D02*
X125226191Y-107341683D01*
X124750000Y-107817873D02*
X124750000Y-106865492D01*
X126773810Y-107341683D02*
X127726191Y-107341683D01*
X124273810Y-122591683D02*
X125226191Y-122591683D01*
X124750000Y-123067873D02*
X124750000Y-122115492D01*
X126773810Y-122591683D02*
X127726191Y-122591683D01*
X105976189Y-122658316D02*
X105023809Y-122658316D01*
X105499999Y-122182126D02*
X105499999Y-123134507D01*
X103476189Y-122658316D02*
X102523809Y-122658316D01*
X105976189Y-107408316D02*
X105023809Y-107408316D01*
X105499999Y-106932126D02*
X105499999Y-107884507D01*
X103476189Y-107408316D02*
X102523809Y-107408316D01*
X105976189Y-138408316D02*
X105023809Y-138408316D01*
X105499999Y-137932126D02*
X105499999Y-138884507D01*
X103476189Y-138408316D02*
X102523809Y-138408316D01*
X105976189Y-153658316D02*
X105023809Y-153658316D01*
X105499999Y-153182126D02*
X105499999Y-154134507D01*
X103476189Y-153658316D02*
X102523809Y-153658316D01*
X122658316Y-154273810D02*
X122658316Y-155226191D01*
X122182126Y-154750000D02*
X123134507Y-154750000D01*
X122658316Y-156773810D02*
X122658316Y-157726191D01*
X107458316Y-154273810D02*
X107458316Y-155226191D01*
X106982126Y-154750000D02*
X107934507Y-154750000D01*
X107458316Y-156773810D02*
X107458316Y-157726191D01*
X122591683Y-105726189D02*
X122591683Y-104773809D01*
X123067873Y-105249999D02*
X122115492Y-105249999D01*
X122591683Y-103226189D02*
X122591683Y-102273809D01*
X107391683Y-105726189D02*
X107391683Y-104773809D01*
X107867873Y-105249999D02*
X106915492Y-105249999D01*
X107391683Y-103226189D02*
X107391683Y-102273809D01*
D11*
G36*
X112400000Y-117700000D02*
G01*
X112402480Y-117700243D01*
X112404911Y-117700682D01*
X112407283Y-117701310D01*
X112409589Y-117702117D01*
X112411821Y-117703095D01*
X112413970Y-117704235D01*
X112416027Y-117705530D01*
X112417986Y-117706970D01*
X112419836Y-117708547D01*
X112421571Y-117710253D01*
X112423182Y-117712079D01*
X112424661Y-117714017D01*
X112425999Y-117716058D01*
X112427188Y-117718194D01*
X112428221Y-117720415D01*
X112429088Y-117722715D01*
X112429782Y-117725084D01*
X112430294Y-117727514D01*
X112430616Y-117729995D01*
X112430741Y-117732521D01*
X112430658Y-117735082D01*
X112430361Y-117737671D01*
X112429842Y-117740277D01*
X112429091Y-117742893D01*
X112428101Y-117745511D01*
X112426863Y-117748122D01*
X110998113Y-120454808D01*
X110997199Y-120456502D01*
X110996197Y-120458110D01*
X110995111Y-120459632D01*
X110993945Y-120461067D01*
X110992705Y-120462414D01*
X110991395Y-120463674D01*
X110990020Y-120464846D01*
X110988584Y-120465929D01*
X110987091Y-120466923D01*
X110985547Y-120467828D01*
X110983957Y-120468642D01*
X110982323Y-120469366D01*
X110980652Y-120469999D01*
X110978948Y-120470540D01*
X110977215Y-120470989D01*
X110975458Y-120471345D01*
X110973682Y-120471609D01*
X110971891Y-120471779D01*
X110970089Y-120471855D01*
X110968283Y-120471836D01*
X110966475Y-120471723D01*
X110964671Y-120471514D01*
X110962875Y-120471209D01*
X110961092Y-120470808D01*
X110959326Y-120470310D01*
X110957583Y-120469714D01*
X110955866Y-120469021D01*
X110954180Y-120468229D01*
X110952530Y-120467338D01*
X110950921Y-120466349D01*
X110949357Y-120465259D01*
X110947842Y-120464069D01*
X110897688Y-120420529D01*
X110846494Y-120375207D01*
X110794340Y-120328055D01*
X110741302Y-120279027D01*
X110687458Y-120228076D01*
X110632885Y-120175157D01*
X110577661Y-120120223D01*
X110521863Y-120063226D01*
X110470230Y-120009025D01*
X110417621Y-119952577D01*
X110364175Y-119893864D01*
X110310031Y-119832873D01*
X110255329Y-119769588D01*
X110200208Y-119703992D01*
X110144809Y-119636071D01*
X110089269Y-119565809D01*
X110041484Y-119503671D01*
X109992490Y-119438292D01*
X109942441Y-119369658D01*
X109891493Y-119297753D01*
X109839801Y-119222561D01*
X109787520Y-119144068D01*
X109734805Y-119062256D01*
X109681811Y-118977111D01*
X109680869Y-118975484D01*
X109680027Y-118973830D01*
X109679284Y-118972151D01*
X109678638Y-118970453D01*
X109678089Y-118968738D01*
X109677637Y-118967011D01*
X109677279Y-118965274D01*
X109677015Y-118963531D01*
X109676845Y-118961787D01*
X109676766Y-118960044D01*
X109676779Y-118958307D01*
X109676881Y-118956578D01*
X109677073Y-118954862D01*
X109677353Y-118953163D01*
X109677720Y-118951483D01*
X109678173Y-118949827D01*
X109678712Y-118948198D01*
X109679334Y-118946599D01*
X109680041Y-118945035D01*
X109680829Y-118943509D01*
X109681699Y-118942025D01*
X109682649Y-118940586D01*
X109683679Y-118939196D01*
X109684788Y-118937859D01*
X109685973Y-118936577D01*
X109687236Y-118935356D01*
X109688574Y-118934198D01*
X109689986Y-118933107D01*
X109691472Y-118932087D01*
X109693031Y-118931141D01*
X109694662Y-118930273D01*
X109696363Y-118929487D01*
X109696363Y-118930809D01*
X112384530Y-117703142D01*
X112387137Y-117702028D01*
X112389743Y-117701162D01*
X112392341Y-117700534D01*
X112394922Y-117700137D01*
X112397477Y-117699962D01*
X112400000Y-117700000D01*
G37*
G36*
X120287633Y-118986373D02*
G01*
X120287015Y-118986087D01*
X120287633Y-118985051D01*
X120287633Y-118986373D01*
G37*
G36*
X117569192Y-117733150D02*
G01*
X117571371Y-117733466D01*
X117573528Y-117734043D01*
X117575654Y-117734894D01*
X120287015Y-118986087D01*
X120232352Y-119077637D01*
X120172560Y-119173588D01*
X120108086Y-119272545D01*
X120038759Y-119374154D01*
X119964410Y-119478057D01*
X119884867Y-119583898D01*
X119799960Y-119691321D01*
X119709518Y-119799968D01*
X119615762Y-119907204D01*
X119522284Y-120008720D01*
X119429489Y-120104623D01*
X119337778Y-120195023D01*
X119247557Y-120280029D01*
X119159226Y-120359747D01*
X119073190Y-120434288D01*
X118989851Y-120503759D01*
X117533320Y-117779873D01*
X117532563Y-117778201D01*
X117532023Y-117776418D01*
X117531690Y-117774536D01*
X117531558Y-117772569D01*
X117531618Y-117770529D01*
X117531861Y-117768429D01*
X117532280Y-117766282D01*
X117532866Y-117764102D01*
X117533610Y-117761899D01*
X117534506Y-117759689D01*
X117535543Y-117757482D01*
X117536716Y-117755293D01*
X117538013Y-117753134D01*
X117539429Y-117751018D01*
X117540954Y-117748958D01*
X117542581Y-117746966D01*
X117544300Y-117745055D01*
X117546105Y-117743239D01*
X117547985Y-117741530D01*
X117549935Y-117739940D01*
X117551944Y-117738484D01*
X117554005Y-117737173D01*
X117556109Y-117736020D01*
X117558249Y-117735039D01*
X117560417Y-117734242D01*
X117562603Y-117733641D01*
X117564799Y-117733251D01*
X117566998Y-117733083D01*
X117569192Y-117733150D01*
G37*
G36*
X114987504Y-114017309D02*
G01*
X115002137Y-114018727D01*
X115016661Y-114021091D01*
X115031020Y-114024401D01*
X115045160Y-114028657D01*
X115059026Y-114033858D01*
X115072565Y-114040005D01*
X115085719Y-114047098D01*
X115098436Y-114055136D01*
X115110660Y-114064120D01*
X115122337Y-114074049D01*
X115133412Y-114084925D01*
X115143829Y-114096746D01*
X115153535Y-114109512D01*
X115162475Y-114123225D01*
X115170593Y-114137883D01*
X116469697Y-116705664D01*
X116468374Y-116705664D01*
X116399378Y-116653603D01*
X116320972Y-116596999D01*
X116278516Y-116568094D01*
X116234039Y-116539372D01*
X116187651Y-116511275D01*
X116139463Y-116484241D01*
X116089585Y-116458712D01*
X116038128Y-116435126D01*
X115985202Y-116413923D01*
X115930918Y-116395544D01*
X115903301Y-116387551D01*
X115875385Y-116380428D01*
X115847186Y-116374232D01*
X115818715Y-116369016D01*
X115789988Y-116364836D01*
X115761018Y-116361747D01*
X115731819Y-116359803D01*
X115702404Y-116359060D01*
X115664347Y-116359936D01*
X115627034Y-116362983D01*
X115590411Y-116368085D01*
X115554424Y-116375127D01*
X115519018Y-116383991D01*
X115484139Y-116394564D01*
X115449732Y-116406728D01*
X115415745Y-116420369D01*
X115348808Y-116451616D01*
X115282895Y-116487378D01*
X115217571Y-116526729D01*
X115152402Y-116568742D01*
X115020792Y-116657052D01*
X114953484Y-116701496D01*
X114884594Y-116744897D01*
X114813689Y-116786329D01*
X114740334Y-116824866D01*
X114664096Y-116859582D01*
X114624760Y-116875217D01*
X114584540Y-116889550D01*
X114506396Y-116914952D01*
X114434027Y-116936441D01*
X114366449Y-116953790D01*
X114302676Y-116966775D01*
X114241725Y-116975171D01*
X114212000Y-116977578D01*
X114182611Y-116978753D01*
X114153435Y-116978669D01*
X114124350Y-116977297D01*
X114095231Y-116974610D01*
X114065957Y-116970578D01*
X114036403Y-116965174D01*
X114006447Y-116958371D01*
X113975967Y-116950139D01*
X113944838Y-116940451D01*
X113880142Y-116916593D01*
X113811378Y-116886573D01*
X113737559Y-116850165D01*
X113657703Y-116807146D01*
X113570823Y-116757290D01*
X113475936Y-116700373D01*
X114775040Y-114137883D01*
X114783158Y-114123225D01*
X114792098Y-114109512D01*
X114801804Y-114096746D01*
X114812221Y-114084925D01*
X114823296Y-114074049D01*
X114834973Y-114064120D01*
X114847197Y-114055136D01*
X114859914Y-114047098D01*
X114873069Y-114040005D01*
X114886607Y-114033858D01*
X114900473Y-114028657D01*
X114914613Y-114024401D01*
X114928973Y-114021091D01*
X114943496Y-114018727D01*
X114958129Y-114017309D01*
X114972817Y-114016836D01*
X114987504Y-114017309D01*
G37*
G36*
X116243477Y-113472457D02*
G01*
X117935489Y-116569405D01*
X117935488Y-116569404D01*
X117858097Y-116584987D01*
X117779714Y-116604027D01*
X117700339Y-116626633D01*
X117619972Y-116652913D01*
X117538612Y-116682976D01*
X117456261Y-116716930D01*
X117372917Y-116754884D01*
X117288581Y-116796946D01*
X117268737Y-116807529D01*
X115338602Y-112953873D01*
X116243477Y-113472457D01*
G37*
G36*
X118559904Y-117713726D02*
G01*
X118561227Y-117715049D01*
X117528029Y-117326112D01*
X117267415Y-116806205D01*
X117287259Y-116795623D01*
X117371974Y-116753561D01*
X117455496Y-116715607D01*
X117537871Y-116681653D01*
X117619145Y-116651590D01*
X117699365Y-116625310D01*
X117778577Y-116602704D01*
X117856828Y-116583664D01*
X117934165Y-116568081D01*
X118559904Y-117713726D01*
G37*
G36*
X114752550Y-112664154D02*
G01*
X114752000Y-112663935D01*
X114752550Y-112662831D01*
X114752550Y-112664154D01*
G37*
G36*
X114318251Y-112523945D02*
G01*
X114382713Y-112539882D01*
X114446058Y-112557184D01*
X114508472Y-112575849D01*
X114570143Y-112595879D01*
X114631256Y-112617273D01*
X114691996Y-112640032D01*
X114752000Y-112663935D01*
X112445384Y-117294362D01*
X111515374Y-117691237D01*
X114252488Y-112509373D01*
X114318251Y-112523945D01*
G37*
G36*
X113393182Y-118418372D02*
G01*
X113442875Y-118419777D01*
X113495118Y-118422852D01*
X113549532Y-118427865D01*
X113605737Y-118435084D01*
X113634392Y-118439604D01*
X113663352Y-118444775D01*
X113692570Y-118450631D01*
X113721999Y-118457206D01*
X113800748Y-118479171D01*
X113891435Y-118509710D01*
X113992261Y-118547875D01*
X114101428Y-118592723D01*
X114337589Y-118698680D01*
X114585532Y-118820016D01*
X114830871Y-118949166D01*
X115059219Y-119078564D01*
X115162525Y-119140992D01*
X115256189Y-119200644D01*
X115338411Y-119256576D01*
X115407394Y-119307842D01*
X115504593Y-119381406D01*
X115618570Y-119461587D01*
X115748554Y-119547470D01*
X115893773Y-119638137D01*
X116053456Y-119732672D01*
X116226833Y-119830159D01*
X116413131Y-119929680D01*
X116611579Y-120030319D01*
X116821407Y-120131160D01*
X117041842Y-120231286D01*
X117272114Y-120329781D01*
X117511452Y-120425727D01*
X117759083Y-120518208D01*
X118014238Y-120606307D01*
X118276144Y-120689109D01*
X118544030Y-120765696D01*
X118607530Y-120782894D01*
X118608852Y-120785540D01*
X118562550Y-120821258D01*
X118505318Y-120864313D01*
X118446505Y-120907227D01*
X118385770Y-120950111D01*
X118322772Y-120993072D01*
X118257168Y-121036220D01*
X118188619Y-121079662D01*
X118116784Y-121123507D01*
X118041320Y-121167863D01*
X117940836Y-121224498D01*
X117841932Y-121277396D01*
X117744827Y-121326667D01*
X117649737Y-121372419D01*
X117556880Y-121414760D01*
X117466472Y-121453799D01*
X117378731Y-121489644D01*
X117293873Y-121522404D01*
X117063109Y-121609223D01*
X116923997Y-121656940D01*
X116769853Y-121705731D01*
X116601268Y-121754252D01*
X116418833Y-121801154D01*
X116223139Y-121845092D01*
X116014778Y-121884718D01*
X115794339Y-121918685D01*
X115562415Y-121945647D01*
X115319596Y-121964257D01*
X115066474Y-121973167D01*
X114803639Y-121971032D01*
X114531682Y-121956505D01*
X114251195Y-121928238D01*
X114107938Y-121908531D01*
X113962769Y-121884884D01*
X113734194Y-121840524D01*
X113514796Y-121789771D01*
X113304577Y-121733332D01*
X113103535Y-121671915D01*
X112911671Y-121606227D01*
X112728984Y-121536975D01*
X112555475Y-121464867D01*
X112391144Y-121390609D01*
X112235991Y-121314910D01*
X112090015Y-121238476D01*
X111825597Y-121086235D01*
X111597890Y-120939543D01*
X111406894Y-120804061D01*
X111394017Y-120794345D01*
X111381263Y-120784878D01*
X111374971Y-120780160D01*
X111368757Y-120775411D01*
X111362636Y-120770600D01*
X111356623Y-120765696D01*
X112425540Y-118694009D01*
X112425654Y-118694004D01*
X112425784Y-118693992D01*
X112425953Y-118693968D01*
X112426154Y-118693928D01*
X112426377Y-118693869D01*
X112426616Y-118693787D01*
X112426739Y-118693736D01*
X112426863Y-118693678D01*
X112426987Y-118693612D01*
X112427110Y-118693538D01*
X112427231Y-118693455D01*
X112427349Y-118693363D01*
X112427463Y-118693261D01*
X112427572Y-118693149D01*
X112427676Y-118693026D01*
X112427772Y-118692893D01*
X112427861Y-118692747D01*
X112427942Y-118692589D01*
X112428012Y-118692419D01*
X112428072Y-118692236D01*
X112428120Y-118692039D01*
X112428156Y-118691828D01*
X112428178Y-118691603D01*
X112428186Y-118691362D01*
X112453776Y-118676025D01*
X112481102Y-118659943D01*
X112495494Y-118651701D01*
X112510413Y-118643365D01*
X112525890Y-118634968D01*
X112541957Y-118626539D01*
X112542016Y-118626537D01*
X112542088Y-118626531D01*
X112542184Y-118626519D01*
X112542304Y-118626499D01*
X112542445Y-118626470D01*
X112542606Y-118626429D01*
X112542784Y-118626374D01*
X112542977Y-118626304D01*
X112543079Y-118626263D01*
X112543184Y-118626216D01*
X112543292Y-118626166D01*
X112543403Y-118626110D01*
X112543516Y-118626048D01*
X112543631Y-118625981D01*
X112543748Y-118625909D01*
X112543867Y-118625830D01*
X112543988Y-118625745D01*
X112544109Y-118625654D01*
X112544232Y-118625555D01*
X112544355Y-118625450D01*
X112544479Y-118625337D01*
X112544603Y-118625217D01*
X112562826Y-118615737D01*
X112581748Y-118606179D01*
X112601320Y-118596591D01*
X112621497Y-118587017D01*
X112642232Y-118577506D01*
X112663479Y-118568104D01*
X112685191Y-118558856D01*
X112707321Y-118549810D01*
X112752512Y-118532173D01*
X112799719Y-118515125D01*
X112848847Y-118498883D01*
X112899806Y-118483664D01*
X112952500Y-118469686D01*
X113006838Y-118457165D01*
X113062726Y-118446318D01*
X113091222Y-118441590D01*
X113120071Y-118437362D01*
X113169846Y-118430045D01*
X113227507Y-118424108D01*
X113263201Y-118421505D01*
X113302965Y-118419503D01*
X113346418Y-118418370D01*
X113393182Y-118418372D01*
G37*
G36*
X115410435Y-109424290D02*
G01*
X115830168Y-109476476D01*
X116224130Y-109549016D01*
X116588930Y-109636347D01*
X116921180Y-109732902D01*
X117217490Y-109833115D01*
X117474472Y-109931422D01*
X117856890Y-110100052D01*
X118041320Y-110194269D01*
X118227441Y-110302257D01*
X118367519Y-110390205D01*
X118533383Y-110501310D01*
X118720867Y-110635964D01*
X118925801Y-110794558D01*
X119144018Y-110977484D01*
X119371348Y-111185133D01*
X119603623Y-111417898D01*
X119720313Y-111543820D01*
X119836676Y-111676168D01*
X119952191Y-111814990D01*
X120066337Y-111960336D01*
X120178594Y-112112254D01*
X120288439Y-112270793D01*
X120395352Y-112436002D01*
X120498813Y-112607931D01*
X120598299Y-112786627D01*
X120693290Y-112972140D01*
X120783265Y-113164519D01*
X120867703Y-113363813D01*
X120946083Y-113570071D01*
X121017883Y-113783341D01*
X121078738Y-114092904D01*
X120979218Y-114080535D01*
X120878091Y-114073602D01*
X120670949Y-114074040D01*
X120457171Y-114090210D01*
X120236619Y-114118102D01*
X119774632Y-114193015D01*
X119532918Y-114232016D01*
X119283871Y-114266702D01*
X119027352Y-114293064D01*
X118763221Y-114307090D01*
X118491338Y-114304773D01*
X118352446Y-114296232D01*
X118211564Y-114282102D01*
X118068675Y-114261881D01*
X117923760Y-114235068D01*
X117776803Y-114201162D01*
X117627786Y-114159662D01*
X117476691Y-114110067D01*
X117323502Y-114051875D01*
X117168201Y-113984585D01*
X117010769Y-113907696D01*
X116786576Y-113790576D01*
X116577514Y-113679162D01*
X116382343Y-113573205D01*
X116199822Y-113472456D01*
X114917916Y-111146769D01*
X114192957Y-112508050D01*
X114145942Y-112498438D01*
X114098121Y-112489447D01*
X114049431Y-112481075D01*
X113999811Y-112473324D01*
X113949200Y-112466192D01*
X113897533Y-112459681D01*
X113844751Y-112453790D01*
X113790791Y-112448519D01*
X113543241Y-112436831D01*
X113300007Y-112447168D01*
X113061233Y-112478052D01*
X112827066Y-112528005D01*
X112597651Y-112595549D01*
X112373133Y-112679205D01*
X112153657Y-112777497D01*
X111939368Y-112888947D01*
X111730413Y-113012076D01*
X111526936Y-113145406D01*
X111329083Y-113287460D01*
X111136999Y-113436761D01*
X110770719Y-113751188D01*
X110429259Y-114076864D01*
X110113782Y-114401966D01*
X109825451Y-114714672D01*
X109334876Y-115255603D01*
X109134958Y-115460182D01*
X108966837Y-115605073D01*
X108895063Y-115651440D01*
X108831674Y-115678452D01*
X108776816Y-115684631D01*
X108730634Y-115668498D01*
X108694289Y-115630417D01*
X108666234Y-115571051D01*
X108646642Y-115491601D01*
X108635686Y-115393267D01*
X108640381Y-115144754D01*
X108681707Y-114835122D01*
X108761054Y-114473983D01*
X108879811Y-114070944D01*
X109039368Y-113635617D01*
X109241114Y-113177611D01*
X109358243Y-112943107D01*
X109486440Y-112706536D01*
X109625878Y-112469101D01*
X109776733Y-112232002D01*
X109939177Y-111996441D01*
X110113384Y-111763619D01*
X110299528Y-111534737D01*
X110497782Y-111310997D01*
X110708320Y-111093599D01*
X110931316Y-110883745D01*
X111166944Y-110682636D01*
X111415377Y-110491473D01*
X111676789Y-110311458D01*
X111951353Y-110143792D01*
X112239243Y-109989676D01*
X112540634Y-109850311D01*
X112792695Y-109749833D01*
X113043821Y-109663487D01*
X113293588Y-109590579D01*
X113541573Y-109530413D01*
X113787351Y-109482292D01*
X114030499Y-109445521D01*
X114507211Y-109403248D01*
X114968320Y-109398026D01*
X115410435Y-109424290D01*
G37*
G36*
X115338602Y-112953873D02*
G01*
X115260354Y-112910330D01*
X115184152Y-112868958D01*
X115109686Y-112829694D01*
X115036647Y-112792477D01*
X114964723Y-112757244D01*
X114893606Y-112723933D01*
X114822985Y-112692483D01*
X114752550Y-112662831D01*
X114972155Y-112222300D01*
X115338602Y-112953873D01*
G37*
D12*
X122462256Y-137710839D02*
X122509875Y-137567982D01*
X122509875Y-137567982D02*
X122509875Y-137329887D01*
X122509875Y-137329887D02*
X122462256Y-137234649D01*
X122462256Y-137234649D02*
X122414636Y-137187030D01*
X122414636Y-137187030D02*
X122319398Y-137139411D01*
X122319398Y-137139411D02*
X122224160Y-137139411D01*
X122224160Y-137139411D02*
X122128922Y-137187030D01*
X122128922Y-137187030D02*
X122081303Y-137234649D01*
X122081303Y-137234649D02*
X122033684Y-137329887D01*
X122033684Y-137329887D02*
X121986065Y-137520363D01*
X121986065Y-137520363D02*
X121938446Y-137615601D01*
X121938446Y-137615601D02*
X121890827Y-137663220D01*
X121890827Y-137663220D02*
X121795589Y-137710839D01*
X121795589Y-137710839D02*
X121700351Y-137710839D01*
X121700351Y-137710839D02*
X121605113Y-137663220D01*
X121605113Y-137663220D02*
X121557494Y-137615601D01*
X121557494Y-137615601D02*
X121509875Y-137520363D01*
X121509875Y-137520363D02*
X121509875Y-137282268D01*
X121509875Y-137282268D02*
X121557494Y-137139411D01*
X121843208Y-136282268D02*
X122843208Y-136282268D01*
X122462256Y-136282268D02*
X122509875Y-136377506D01*
X122509875Y-136377506D02*
X122509875Y-136567982D01*
X122509875Y-136567982D02*
X122462256Y-136663220D01*
X122462256Y-136663220D02*
X122414636Y-136710839D01*
X122414636Y-136710839D02*
X122319398Y-136758458D01*
X122319398Y-136758458D02*
X122033684Y-136758458D01*
X122033684Y-136758458D02*
X121938446Y-136710839D01*
X121938446Y-136710839D02*
X121890827Y-136663220D01*
X121890827Y-136663220D02*
X121843208Y-136567982D01*
X121843208Y-136567982D02*
X121843208Y-136377506D01*
X121843208Y-136377506D02*
X121890827Y-136282268D01*
X121843208Y-135377506D02*
X122509875Y-135377506D01*
X121843208Y-135806077D02*
X122367017Y-135806077D01*
X122367017Y-135806077D02*
X122462256Y-135758458D01*
X122462256Y-135758458D02*
X122509875Y-135663220D01*
X122509875Y-135663220D02*
X122509875Y-135520363D01*
X122509875Y-135520363D02*
X122462256Y-135425125D01*
X122462256Y-135425125D02*
X122414636Y-135377506D01*
X122509875Y-134472744D02*
X121986065Y-134472744D01*
X121986065Y-134472744D02*
X121890827Y-134520363D01*
X121890827Y-134520363D02*
X121843208Y-134615601D01*
X121843208Y-134615601D02*
X121843208Y-134806077D01*
X121843208Y-134806077D02*
X121890827Y-134901315D01*
X122462256Y-134472744D02*
X122509875Y-134567982D01*
X122509875Y-134567982D02*
X122509875Y-134806077D01*
X122509875Y-134806077D02*
X122462256Y-134901315D01*
X122462256Y-134901315D02*
X122367017Y-134948934D01*
X122367017Y-134948934D02*
X122271779Y-134948934D01*
X122271779Y-134948934D02*
X122176541Y-134901315D01*
X122176541Y-134901315D02*
X122128922Y-134806077D01*
X122128922Y-134806077D02*
X122128922Y-134567982D01*
X122128922Y-134567982D02*
X122081303Y-134472744D01*
X122509875Y-133996553D02*
X121843208Y-133996553D01*
X122033684Y-133996553D02*
X121938446Y-133948934D01*
X121938446Y-133948934D02*
X121890827Y-133901315D01*
X121890827Y-133901315D02*
X121843208Y-133806077D01*
X121843208Y-133806077D02*
X121843208Y-133710839D01*
X122462256Y-132996553D02*
X122509875Y-133091791D01*
X122509875Y-133091791D02*
X122509875Y-133282267D01*
X122509875Y-133282267D02*
X122462256Y-133377505D01*
X122462256Y-133377505D02*
X122367017Y-133425124D01*
X122367017Y-133425124D02*
X121986065Y-133425124D01*
X121986065Y-133425124D02*
X121890827Y-133377505D01*
X121890827Y-133377505D02*
X121843208Y-133282267D01*
X121843208Y-133282267D02*
X121843208Y-133091791D01*
X121843208Y-133091791D02*
X121890827Y-132996553D01*
X121890827Y-132996553D02*
X121986065Y-132948934D01*
X121986065Y-132948934D02*
X122081303Y-132948934D01*
X122081303Y-132948934D02*
X122176541Y-133425124D01*
X122509875Y-131282267D02*
X122509875Y-131758457D01*
X122509875Y-131758457D02*
X121509875Y-131758457D01*
X121986065Y-130948933D02*
X121986065Y-130615600D01*
X122509875Y-130472743D02*
X122509875Y-130948933D01*
X122509875Y-130948933D02*
X121509875Y-130948933D01*
X121509875Y-130948933D02*
X121509875Y-130472743D01*
X122509875Y-130044171D02*
X121509875Y-130044171D01*
X121509875Y-130044171D02*
X121509875Y-129806076D01*
X121509875Y-129806076D02*
X121557494Y-129663219D01*
X121557494Y-129663219D02*
X121652732Y-129567981D01*
X121652732Y-129567981D02*
X121747970Y-129520362D01*
X121747970Y-129520362D02*
X121938446Y-129472743D01*
X121938446Y-129472743D02*
X122081303Y-129472743D01*
X122081303Y-129472743D02*
X122271779Y-129520362D01*
X122271779Y-129520362D02*
X122367017Y-129567981D01*
X122367017Y-129567981D02*
X122462256Y-129663219D01*
X122462256Y-129663219D02*
X122509875Y-129806076D01*
X122509875Y-129806076D02*
X122509875Y-130044171D01*
X122509875Y-128282266D02*
X121509875Y-128282266D01*
X121509875Y-128282266D02*
X121509875Y-127901314D01*
X121509875Y-127901314D02*
X121557494Y-127806076D01*
X121557494Y-127806076D02*
X121605113Y-127758457D01*
X121605113Y-127758457D02*
X121700351Y-127710838D01*
X121700351Y-127710838D02*
X121843208Y-127710838D01*
X121843208Y-127710838D02*
X121938446Y-127758457D01*
X121938446Y-127758457D02*
X121986065Y-127806076D01*
X121986065Y-127806076D02*
X122033684Y-127901314D01*
X122033684Y-127901314D02*
X122033684Y-128282266D01*
X122509875Y-126853695D02*
X121986065Y-126853695D01*
X121986065Y-126853695D02*
X121890827Y-126901314D01*
X121890827Y-126901314D02*
X121843208Y-126996552D01*
X121843208Y-126996552D02*
X121843208Y-127187028D01*
X121843208Y-127187028D02*
X121890827Y-127282266D01*
X122462256Y-126853695D02*
X122509875Y-126948933D01*
X122509875Y-126948933D02*
X122509875Y-127187028D01*
X122509875Y-127187028D02*
X122462256Y-127282266D01*
X122462256Y-127282266D02*
X122367017Y-127329885D01*
X122367017Y-127329885D02*
X122271779Y-127329885D01*
X122271779Y-127329885D02*
X122176541Y-127282266D01*
X122176541Y-127282266D02*
X122128922Y-127187028D01*
X122128922Y-127187028D02*
X122128922Y-126948933D01*
X122128922Y-126948933D02*
X122081303Y-126853695D01*
X121843208Y-126377504D02*
X122509875Y-126377504D01*
X121938446Y-126377504D02*
X121890827Y-126329885D01*
X121890827Y-126329885D02*
X121843208Y-126234647D01*
X121843208Y-126234647D02*
X121843208Y-126091790D01*
X121843208Y-126091790D02*
X121890827Y-125996552D01*
X121890827Y-125996552D02*
X121986065Y-125948933D01*
X121986065Y-125948933D02*
X122509875Y-125948933D01*
X122462256Y-125091790D02*
X122509875Y-125187028D01*
X122509875Y-125187028D02*
X122509875Y-125377504D01*
X122509875Y-125377504D02*
X122462256Y-125472742D01*
X122462256Y-125472742D02*
X122367017Y-125520361D01*
X122367017Y-125520361D02*
X121986065Y-125520361D01*
X121986065Y-125520361D02*
X121890827Y-125472742D01*
X121890827Y-125472742D02*
X121843208Y-125377504D01*
X121843208Y-125377504D02*
X121843208Y-125187028D01*
X121843208Y-125187028D02*
X121890827Y-125091790D01*
X121890827Y-125091790D02*
X121986065Y-125044171D01*
X121986065Y-125044171D02*
X122081303Y-125044171D01*
X122081303Y-125044171D02*
X122176541Y-125520361D01*
X122509875Y-124472742D02*
X122462256Y-124567980D01*
X122462256Y-124567980D02*
X122367017Y-124615599D01*
X122367017Y-124615599D02*
X121509875Y-124615599D01*
X122414636Y-122758456D02*
X122462256Y-122806075D01*
X122462256Y-122806075D02*
X122509875Y-122948932D01*
X122509875Y-122948932D02*
X122509875Y-123044170D01*
X122509875Y-123044170D02*
X122462256Y-123187027D01*
X122462256Y-123187027D02*
X122367017Y-123282265D01*
X122367017Y-123282265D02*
X122271779Y-123329884D01*
X122271779Y-123329884D02*
X122081303Y-123377503D01*
X122081303Y-123377503D02*
X121938446Y-123377503D01*
X121938446Y-123377503D02*
X121747970Y-123329884D01*
X121747970Y-123329884D02*
X121652732Y-123282265D01*
X121652732Y-123282265D02*
X121557494Y-123187027D01*
X121557494Y-123187027D02*
X121509875Y-123044170D01*
X121509875Y-123044170D02*
X121509875Y-122948932D01*
X121509875Y-122948932D02*
X121557494Y-122806075D01*
X121557494Y-122806075D02*
X121605113Y-122758456D01*
X122509875Y-122187027D02*
X122462256Y-122282265D01*
X122462256Y-122282265D02*
X122414636Y-122329884D01*
X122414636Y-122329884D02*
X122319398Y-122377503D01*
X122319398Y-122377503D02*
X122033684Y-122377503D01*
X122033684Y-122377503D02*
X121938446Y-122329884D01*
X121938446Y-122329884D02*
X121890827Y-122282265D01*
X121890827Y-122282265D02*
X121843208Y-122187027D01*
X121843208Y-122187027D02*
X121843208Y-122044170D01*
X121843208Y-122044170D02*
X121890827Y-121948932D01*
X121890827Y-121948932D02*
X121938446Y-121901313D01*
X121938446Y-121901313D02*
X122033684Y-121853694D01*
X122033684Y-121853694D02*
X122319398Y-121853694D01*
X122319398Y-121853694D02*
X122414636Y-121901313D01*
X122414636Y-121901313D02*
X122462256Y-121948932D01*
X122462256Y-121948932D02*
X122509875Y-122044170D01*
X122509875Y-122044170D02*
X122509875Y-122187027D01*
X121843208Y-121425122D02*
X122509875Y-121425122D01*
X121938446Y-121425122D02*
X121890827Y-121377503D01*
X121890827Y-121377503D02*
X121843208Y-121282265D01*
X121843208Y-121282265D02*
X121843208Y-121139408D01*
X121843208Y-121139408D02*
X121890827Y-121044170D01*
X121890827Y-121044170D02*
X121986065Y-120996551D01*
X121986065Y-120996551D02*
X122509875Y-120996551D01*
X121843208Y-120520360D02*
X122509875Y-120520360D01*
X121938446Y-120520360D02*
X121890827Y-120472741D01*
X121890827Y-120472741D02*
X121843208Y-120377503D01*
X121843208Y-120377503D02*
X121843208Y-120234646D01*
X121843208Y-120234646D02*
X121890827Y-120139408D01*
X121890827Y-120139408D02*
X121986065Y-120091789D01*
X121986065Y-120091789D02*
X122509875Y-120091789D01*
X122462256Y-119234646D02*
X122509875Y-119329884D01*
X122509875Y-119329884D02*
X122509875Y-119520360D01*
X122509875Y-119520360D02*
X122462256Y-119615598D01*
X122462256Y-119615598D02*
X122367017Y-119663217D01*
X122367017Y-119663217D02*
X121986065Y-119663217D01*
X121986065Y-119663217D02*
X121890827Y-119615598D01*
X121890827Y-119615598D02*
X121843208Y-119520360D01*
X121843208Y-119520360D02*
X121843208Y-119329884D01*
X121843208Y-119329884D02*
X121890827Y-119234646D01*
X121890827Y-119234646D02*
X121986065Y-119187027D01*
X121986065Y-119187027D02*
X122081303Y-119187027D01*
X122081303Y-119187027D02*
X122176541Y-119663217D01*
X122462256Y-118329884D02*
X122509875Y-118425122D01*
X122509875Y-118425122D02*
X122509875Y-118615598D01*
X122509875Y-118615598D02*
X122462256Y-118710836D01*
X122462256Y-118710836D02*
X122414636Y-118758455D01*
X122414636Y-118758455D02*
X122319398Y-118806074D01*
X122319398Y-118806074D02*
X122033684Y-118806074D01*
X122033684Y-118806074D02*
X121938446Y-118758455D01*
X121938446Y-118758455D02*
X121890827Y-118710836D01*
X121890827Y-118710836D02*
X121843208Y-118615598D01*
X121843208Y-118615598D02*
X121843208Y-118425122D01*
X121843208Y-118425122D02*
X121890827Y-118329884D01*
X121843208Y-118044169D02*
X121843208Y-117663217D01*
X121509875Y-117901312D02*
X122367017Y-117901312D01*
X122367017Y-117901312D02*
X122462256Y-117853693D01*
X122462256Y-117853693D02*
X122509875Y-117758455D01*
X122509875Y-117758455D02*
X122509875Y-117663217D01*
X122509875Y-117187026D02*
X122462256Y-117282264D01*
X122462256Y-117282264D02*
X122414636Y-117329883D01*
X122414636Y-117329883D02*
X122319398Y-117377502D01*
X122319398Y-117377502D02*
X122033684Y-117377502D01*
X122033684Y-117377502D02*
X121938446Y-117329883D01*
X121938446Y-117329883D02*
X121890827Y-117282264D01*
X121890827Y-117282264D02*
X121843208Y-117187026D01*
X121843208Y-117187026D02*
X121843208Y-117044169D01*
X121843208Y-117044169D02*
X121890827Y-116948931D01*
X121890827Y-116948931D02*
X121938446Y-116901312D01*
X121938446Y-116901312D02*
X122033684Y-116853693D01*
X122033684Y-116853693D02*
X122319398Y-116853693D01*
X122319398Y-116853693D02*
X122414636Y-116901312D01*
X122414636Y-116901312D02*
X122462256Y-116948931D01*
X122462256Y-116948931D02*
X122509875Y-117044169D01*
X122509875Y-117044169D02*
X122509875Y-117187026D01*
X122509875Y-116425121D02*
X121843208Y-116425121D01*
X122033684Y-116425121D02*
X121938446Y-116377502D01*
X121938446Y-116377502D02*
X121890827Y-116329883D01*
X121890827Y-116329883D02*
X121843208Y-116234645D01*
X121843208Y-116234645D02*
X121843208Y-116139407D01*
X123453152Y-137758458D02*
X124119819Y-137520363D01*
X124119819Y-137520363D02*
X123453152Y-137282268D01*
X124119819Y-136377506D02*
X124119819Y-136948934D01*
X124119819Y-136663220D02*
X123119819Y-136663220D01*
X123119819Y-136663220D02*
X123262676Y-136758458D01*
X123262676Y-136758458D02*
X123357914Y-136853696D01*
X123357914Y-136853696D02*
X123405533Y-136948934D01*
X124024580Y-135948934D02*
X124072200Y-135901315D01*
X124072200Y-135901315D02*
X124119819Y-135948934D01*
X124119819Y-135948934D02*
X124072200Y-135996553D01*
X124072200Y-135996553D02*
X124024580Y-135948934D01*
X124024580Y-135948934D02*
X124119819Y-135948934D01*
X123119819Y-135282268D02*
X123119819Y-135187030D01*
X123119819Y-135187030D02*
X123167438Y-135091792D01*
X123167438Y-135091792D02*
X123215057Y-135044173D01*
X123215057Y-135044173D02*
X123310295Y-134996554D01*
X123310295Y-134996554D02*
X123500771Y-134948935D01*
X123500771Y-134948935D02*
X123738866Y-134948935D01*
X123738866Y-134948935D02*
X123929342Y-134996554D01*
X123929342Y-134996554D02*
X124024580Y-135044173D01*
X124024580Y-135044173D02*
X124072200Y-135091792D01*
X124072200Y-135091792D02*
X124119819Y-135187030D01*
X124119819Y-135187030D02*
X124119819Y-135282268D01*
X124119819Y-135282268D02*
X124072200Y-135377506D01*
X124072200Y-135377506D02*
X124024580Y-135425125D01*
X124024580Y-135425125D02*
X123929342Y-135472744D01*
X123929342Y-135472744D02*
X123738866Y-135520363D01*
X123738866Y-135520363D02*
X123500771Y-135520363D01*
X123500771Y-135520363D02*
X123310295Y-135472744D01*
X123310295Y-135472744D02*
X123215057Y-135425125D01*
X123215057Y-135425125D02*
X123167438Y-135377506D01*
X123167438Y-135377506D02*
X123119819Y-135282268D01*
X124024580Y-134520363D02*
X124072200Y-134472744D01*
X124072200Y-134472744D02*
X124119819Y-134520363D01*
X124119819Y-134520363D02*
X124072200Y-134567982D01*
X124072200Y-134567982D02*
X124024580Y-134520363D01*
X124024580Y-134520363D02*
X124119819Y-134520363D01*
X123119819Y-133853697D02*
X123119819Y-133758459D01*
X123119819Y-133758459D02*
X123167438Y-133663221D01*
X123167438Y-133663221D02*
X123215057Y-133615602D01*
X123215057Y-133615602D02*
X123310295Y-133567983D01*
X123310295Y-133567983D02*
X123500771Y-133520364D01*
X123500771Y-133520364D02*
X123738866Y-133520364D01*
X123738866Y-133520364D02*
X123929342Y-133567983D01*
X123929342Y-133567983D02*
X124024580Y-133615602D01*
X124024580Y-133615602D02*
X124072200Y-133663221D01*
X124072200Y-133663221D02*
X124119819Y-133758459D01*
X124119819Y-133758459D02*
X124119819Y-133853697D01*
X124119819Y-133853697D02*
X124072200Y-133948935D01*
X124072200Y-133948935D02*
X124024580Y-133996554D01*
X124024580Y-133996554D02*
X123929342Y-134044173D01*
X123929342Y-134044173D02*
X123738866Y-134091792D01*
X123738866Y-134091792D02*
X123500771Y-134091792D01*
X123500771Y-134091792D02*
X123310295Y-134044173D01*
X123310295Y-134044173D02*
X123215057Y-133996554D01*
X123215057Y-133996554D02*
X123167438Y-133948935D01*
X123167438Y-133948935D02*
X123119819Y-133853697D01*
X123738866Y-132329887D02*
X123738866Y-131567983D01*
X123119819Y-130044173D02*
X123834104Y-130044173D01*
X123834104Y-130044173D02*
X123976961Y-130091792D01*
X123976961Y-130091792D02*
X124072200Y-130187030D01*
X124072200Y-130187030D02*
X124119819Y-130329887D01*
X124119819Y-130329887D02*
X124119819Y-130425125D01*
X123453152Y-129139411D02*
X124119819Y-129139411D01*
X123453152Y-129567982D02*
X123976961Y-129567982D01*
X123976961Y-129567982D02*
X124072200Y-129520363D01*
X124072200Y-129520363D02*
X124119819Y-129425125D01*
X124119819Y-129425125D02*
X124119819Y-129282268D01*
X124119819Y-129282268D02*
X124072200Y-129187030D01*
X124072200Y-129187030D02*
X124024580Y-129139411D01*
X124119819Y-128520363D02*
X124072200Y-128615601D01*
X124072200Y-128615601D02*
X123976961Y-128663220D01*
X123976961Y-128663220D02*
X123119819Y-128663220D01*
X123453152Y-128234648D02*
X124119819Y-127996553D01*
X123453152Y-127758458D02*
X124119819Y-127996553D01*
X124119819Y-127996553D02*
X124357914Y-128091791D01*
X124357914Y-128091791D02*
X124405533Y-128139410D01*
X124405533Y-128139410D02*
X124453152Y-128234648D01*
X123215057Y-126663219D02*
X123167438Y-126615600D01*
X123167438Y-126615600D02*
X123119819Y-126520362D01*
X123119819Y-126520362D02*
X123119819Y-126282267D01*
X123119819Y-126282267D02*
X123167438Y-126187029D01*
X123167438Y-126187029D02*
X123215057Y-126139410D01*
X123215057Y-126139410D02*
X123310295Y-126091791D01*
X123310295Y-126091791D02*
X123405533Y-126091791D01*
X123405533Y-126091791D02*
X123548390Y-126139410D01*
X123548390Y-126139410D02*
X124119819Y-126710838D01*
X124119819Y-126710838D02*
X124119819Y-126091791D01*
X123119819Y-125472743D02*
X123119819Y-125377505D01*
X123119819Y-125377505D02*
X123167438Y-125282267D01*
X123167438Y-125282267D02*
X123215057Y-125234648D01*
X123215057Y-125234648D02*
X123310295Y-125187029D01*
X123310295Y-125187029D02*
X123500771Y-125139410D01*
X123500771Y-125139410D02*
X123738866Y-125139410D01*
X123738866Y-125139410D02*
X123929342Y-125187029D01*
X123929342Y-125187029D02*
X124024580Y-125234648D01*
X124024580Y-125234648D02*
X124072200Y-125282267D01*
X124072200Y-125282267D02*
X124119819Y-125377505D01*
X124119819Y-125377505D02*
X124119819Y-125472743D01*
X124119819Y-125472743D02*
X124072200Y-125567981D01*
X124072200Y-125567981D02*
X124024580Y-125615600D01*
X124024580Y-125615600D02*
X123929342Y-125663219D01*
X123929342Y-125663219D02*
X123738866Y-125710838D01*
X123738866Y-125710838D02*
X123500771Y-125710838D01*
X123500771Y-125710838D02*
X123310295Y-125663219D01*
X123310295Y-125663219D02*
X123215057Y-125615600D01*
X123215057Y-125615600D02*
X123167438Y-125567981D01*
X123167438Y-125567981D02*
X123119819Y-125472743D01*
X123215057Y-124758457D02*
X123167438Y-124710838D01*
X123167438Y-124710838D02*
X123119819Y-124615600D01*
X123119819Y-124615600D02*
X123119819Y-124377505D01*
X123119819Y-124377505D02*
X123167438Y-124282267D01*
X123167438Y-124282267D02*
X123215057Y-124234648D01*
X123215057Y-124234648D02*
X123310295Y-124187029D01*
X123310295Y-124187029D02*
X123405533Y-124187029D01*
X123405533Y-124187029D02*
X123548390Y-124234648D01*
X123548390Y-124234648D02*
X124119819Y-124806076D01*
X124119819Y-124806076D02*
X124119819Y-124187029D01*
X123119819Y-123329886D02*
X123119819Y-123520362D01*
X123119819Y-123520362D02*
X123167438Y-123615600D01*
X123167438Y-123615600D02*
X123215057Y-123663219D01*
X123215057Y-123663219D02*
X123357914Y-123758457D01*
X123357914Y-123758457D02*
X123548390Y-123806076D01*
X123548390Y-123806076D02*
X123929342Y-123806076D01*
X123929342Y-123806076D02*
X124024580Y-123758457D01*
X124024580Y-123758457D02*
X124072200Y-123710838D01*
X124072200Y-123710838D02*
X124119819Y-123615600D01*
X124119819Y-123615600D02*
X124119819Y-123425124D01*
X124119819Y-123425124D02*
X124072200Y-123329886D01*
X124072200Y-123329886D02*
X124024580Y-123282267D01*
X124024580Y-123282267D02*
X123929342Y-123234648D01*
X123929342Y-123234648D02*
X123691247Y-123234648D01*
X123691247Y-123234648D02*
X123596009Y-123282267D01*
X123596009Y-123282267D02*
X123548390Y-123329886D01*
X123548390Y-123329886D02*
X123500771Y-123425124D01*
X123500771Y-123425124D02*
X123500771Y-123615600D01*
X123500771Y-123615600D02*
X123548390Y-123710838D01*
X123548390Y-123710838D02*
X123596009Y-123758457D01*
X123596009Y-123758457D02*
X123691247Y-123806076D01*
D11*
G36*
X119214468Y-150522802D02*
G01*
X118373093Y-150522802D01*
X118373093Y-149684073D01*
X119214468Y-149684073D01*
X119214468Y-150522802D01*
G37*
G36*
X111946364Y-143257344D02*
G01*
X111107635Y-143257344D01*
X111107635Y-142415969D01*
X111946364Y-142415969D01*
X111946364Y-143257344D01*
G37*
G36*
X111946364Y-150522802D02*
G01*
X111107635Y-150522802D01*
X111107635Y-149684073D01*
X111946364Y-149684073D01*
X111946364Y-150522802D01*
G37*
G36*
X118108510Y-143828844D02*
G01*
X117828052Y-143828844D01*
X117828052Y-143548386D01*
X118108510Y-143548386D01*
X118108510Y-143828844D01*
G37*
G36*
X119807135Y-142172552D02*
G01*
X119526676Y-142172552D01*
X119526676Y-141892094D01*
X119807135Y-141892094D01*
X119807135Y-142172552D01*
G37*
G36*
X115592322Y-148586052D02*
G01*
X115311864Y-148586052D01*
X115311864Y-148305594D01*
X115592322Y-148305594D01*
X115592322Y-148586052D01*
G37*
G36*
X119772739Y-148567531D02*
G01*
X119492281Y-148567531D01*
X119492281Y-148006614D01*
X119772739Y-148006614D01*
X119772739Y-148567531D01*
G37*
G36*
X116140010Y-148284427D02*
G01*
X116420468Y-148287073D01*
X116420468Y-148567531D01*
X115856906Y-148567531D01*
X115856906Y-148006614D01*
X116137364Y-148006614D01*
X116140010Y-148284427D01*
G37*
G36*
X117539656Y-149125802D02*
G01*
X117539656Y-149686718D01*
X117256552Y-149684073D01*
X117256552Y-149120510D01*
X117539656Y-149125802D01*
G37*
G36*
X116973447Y-150242343D02*
G01*
X116695635Y-150242343D01*
X116700927Y-149964531D01*
X116978739Y-149964531D01*
X116973447Y-150242343D01*
G37*
G36*
X117259198Y-149961885D02*
G01*
X117539656Y-149961885D01*
X117539656Y-150244989D01*
X117259198Y-150244989D01*
X117259198Y-150522802D01*
X117539656Y-150522802D01*
X117539656Y-150803260D01*
X117256552Y-150803260D01*
X117256552Y-150525448D01*
X116978739Y-150522802D01*
X116978739Y-151083718D01*
X116698281Y-151083718D01*
X116698281Y-150803260D01*
X116420468Y-150803260D01*
X116417822Y-150522802D01*
X116137364Y-150522802D01*
X116137364Y-150242343D01*
X116695635Y-150242343D01*
X116698281Y-150522802D01*
X116976093Y-150522802D01*
X116973447Y-150242343D01*
X117256552Y-150242343D01*
X117256552Y-149964531D01*
X116978739Y-149964531D01*
X116976093Y-149684073D01*
X117256552Y-149684073D01*
X117259198Y-149961885D01*
G37*
G36*
X117539656Y-148567531D02*
G01*
X117259198Y-148567531D01*
X117256552Y-149120510D01*
X116978739Y-149128448D01*
X116978739Y-149406260D01*
X116698281Y-149406260D01*
X116700927Y-149964531D01*
X116417822Y-149964531D01*
X116417822Y-149406260D01*
X116140010Y-149406260D01*
X116140010Y-149964531D01*
X116137364Y-149964531D01*
X115856906Y-149964531D01*
X115856906Y-149406260D01*
X115579094Y-149406260D01*
X115579094Y-149403614D01*
X115859551Y-149403614D01*
X116137364Y-149406235D01*
X116137364Y-149125802D01*
X115859551Y-149125802D01*
X115859551Y-149403614D01*
X115579094Y-149403614D01*
X115579094Y-148845344D01*
X116420468Y-148845344D01*
X116420468Y-149403614D01*
X116698281Y-149406260D01*
X116698281Y-149125802D01*
X116976093Y-149125802D01*
X116976093Y-148847989D01*
X116698281Y-148847989D01*
X116698281Y-148564885D01*
X116976093Y-148564885D01*
X116976093Y-148006614D01*
X117539656Y-148006614D01*
X117539656Y-148567531D01*
G37*
G36*
X119772739Y-151083718D02*
G01*
X119492281Y-151083718D01*
X117817468Y-151083718D01*
X117817468Y-150800614D01*
X118095281Y-150800614D01*
X119492281Y-150800614D01*
X119492281Y-149406260D01*
X118095281Y-149406260D01*
X118095281Y-150800614D01*
X117817468Y-150800614D01*
X117817468Y-149125802D01*
X119772739Y-149125802D01*
X119772739Y-151083718D01*
G37*
G36*
X112507281Y-143815615D02*
G01*
X112224177Y-143815615D01*
X110549364Y-143815615D01*
X110549364Y-143535156D01*
X110829823Y-143535156D01*
X112224177Y-143535156D01*
X112224177Y-142138156D01*
X110829823Y-142138156D01*
X110829823Y-143535156D01*
X110549364Y-143535156D01*
X110549364Y-141857698D01*
X112507281Y-141857698D01*
X112507281Y-143815615D01*
G37*
G36*
X112507281Y-151083718D02*
G01*
X112224177Y-151083718D01*
X110549364Y-151083718D01*
X110549364Y-150800614D01*
X110829823Y-150800614D01*
X112224177Y-150800614D01*
X112224177Y-149406260D01*
X110829823Y-149406260D01*
X110829823Y-150800614D01*
X110549364Y-150800614D01*
X110549364Y-149125802D01*
X112507281Y-149125802D01*
X112507281Y-151083718D01*
G37*
G36*
X114462552Y-142976885D02*
G01*
X114182093Y-142976885D01*
X114182093Y-142696427D01*
X114462552Y-142696427D01*
X114462552Y-142976885D01*
G37*
G36*
X114182093Y-143254698D02*
G01*
X114462552Y-143254698D01*
X114462552Y-143537802D01*
X114182093Y-143537802D01*
X114182093Y-143818260D01*
X113904281Y-143812969D01*
X113901635Y-143537802D01*
X113626468Y-143535156D01*
X113623823Y-142976885D01*
X114182093Y-142976885D01*
X114182093Y-143254698D01*
G37*
G36*
X113901635Y-149123156D02*
G01*
X114179448Y-149123156D01*
X114179448Y-149406260D01*
X113904281Y-149406260D01*
X113901635Y-149406260D01*
X113901635Y-149684073D01*
X113340719Y-149684073D01*
X113340719Y-149403614D01*
X113626468Y-149403614D01*
X113904281Y-149403614D01*
X113904281Y-149125802D01*
X113901635Y-149125802D01*
X113626468Y-149125802D01*
X113626468Y-149403614D01*
X113340719Y-149403614D01*
X113340719Y-148845344D01*
X113901635Y-148845344D01*
X113901635Y-149123156D01*
G37*
G36*
X113340719Y-148845344D02*
G01*
X113062906Y-148845344D01*
X113062906Y-148564885D01*
X113340719Y-148564885D01*
X113340719Y-148845344D01*
G37*
G36*
X113062906Y-149686718D02*
G01*
X112785093Y-149686718D01*
X112785093Y-148845344D01*
X113062906Y-148845344D01*
X113062906Y-149686718D01*
G37*
G36*
X113346010Y-149961885D02*
G01*
X113626468Y-149961885D01*
X113626468Y-150522802D01*
X113904281Y-150522802D01*
X113904281Y-150803260D01*
X113346010Y-150805906D01*
X113346010Y-150811198D01*
X113346010Y-151083718D01*
X113062906Y-151083718D01*
X113062906Y-150803260D01*
X113335427Y-150803260D01*
X113343364Y-150800614D01*
X113343364Y-149964531D01*
X113065552Y-149964531D01*
X113065552Y-149969823D01*
X113065552Y-150244989D01*
X112785093Y-150244989D01*
X112785093Y-149961885D01*
X113057614Y-149961885D01*
X113062906Y-149961885D01*
X113062906Y-149686718D01*
X113340719Y-149686718D01*
X113346010Y-149961885D01*
G37*
G36*
X112507281Y-146051343D02*
G01*
X111946364Y-146051343D01*
X111943719Y-146609614D01*
X111388094Y-146612260D01*
X111388094Y-146329156D01*
X111665906Y-146329156D01*
X111665906Y-145770886D01*
X112507281Y-145770886D01*
X112507281Y-146051343D01*
G37*
G36*
X119492281Y-143535156D02*
G01*
X119214469Y-143535156D01*
X119214469Y-143254698D01*
X119494927Y-143254698D01*
X119492281Y-143535156D01*
G37*
G36*
X118375739Y-146051343D02*
G01*
X118095281Y-146051343D01*
X118095281Y-145773531D01*
X118373093Y-145773531D01*
X118375739Y-146051343D01*
G37*
G36*
X115301281Y-142135510D02*
G01*
X115579094Y-142135510D01*
X115579094Y-141857698D01*
X116417822Y-141857698D01*
X116420468Y-142138156D01*
X115859551Y-142138156D01*
X115859551Y-142415968D01*
X116140010Y-142415968D01*
X116140010Y-142696427D01*
X115859551Y-142696427D01*
X115859551Y-142976885D01*
X115579094Y-142976885D01*
X115579094Y-142418614D01*
X115301281Y-142418614D01*
X115301281Y-142976885D01*
X115023469Y-142976885D01*
X115023469Y-143257344D01*
X114740364Y-143257344D01*
X114740364Y-142976885D01*
X115020823Y-142976885D01*
X115020823Y-142696427D01*
X114740364Y-142696427D01*
X114740364Y-142415968D01*
X115020823Y-142415968D01*
X115020823Y-142138156D01*
X114740364Y-142138156D01*
X114740364Y-141857698D01*
X115301281Y-141857698D01*
X115301281Y-142135510D01*
G37*
G36*
X113346010Y-146331802D02*
G01*
X112507281Y-146329156D01*
X112507281Y-146051343D01*
X113343364Y-146051343D01*
X113346010Y-146331802D01*
G37*
G36*
X111107635Y-148009260D02*
G01*
X111094406Y-148009260D01*
X111094406Y-148006614D01*
X111107635Y-148006614D01*
X111107635Y-148009260D01*
G37*
G36*
X116137364Y-144096074D02*
G01*
X116132072Y-144096074D01*
X116132072Y-144093427D01*
X116137364Y-144093427D01*
X116137364Y-144096074D01*
G37*
G36*
X117537010Y-146620197D02*
G01*
X117526425Y-146620197D01*
X117526425Y-146609614D01*
X117537010Y-146609614D01*
X117537010Y-146620197D01*
G37*
G36*
X118373093Y-146898009D02*
G01*
X118362508Y-146898009D01*
X118362508Y-146890073D01*
X118373093Y-146890073D01*
X118373093Y-146898009D01*
G37*
G36*
X118653551Y-147178468D02*
G01*
X118640320Y-147178468D01*
X118640320Y-147170531D01*
X118653551Y-147170531D01*
X118653551Y-147178468D01*
G37*
G36*
X119211823Y-143820906D02*
G01*
X119203883Y-143820906D01*
X119203883Y-143818261D01*
X119211823Y-143818261D01*
X119211823Y-143820906D01*
G37*
G36*
X113340719Y-142140803D02*
G01*
X113062906Y-142140803D01*
X113062906Y-142418615D01*
X113343365Y-142418615D01*
X113343365Y-143537803D01*
X113623823Y-143537803D01*
X113623823Y-143815614D01*
X113065552Y-143815614D01*
X113065552Y-144373885D01*
X112785094Y-144373885D01*
X112785094Y-144932156D01*
X113065552Y-144932156D01*
X113065552Y-145212615D01*
X113904281Y-145212615D01*
X114182093Y-145212615D01*
X114459906Y-145212615D01*
X114459906Y-144654344D01*
X114182093Y-144654344D01*
X114182093Y-145212615D01*
X113904281Y-145212615D01*
X113904281Y-144934802D01*
X113346010Y-144934802D01*
X113346010Y-144651698D01*
X113623823Y-144651698D01*
X113623823Y-143818261D01*
X113901635Y-143818261D01*
X113901635Y-144096074D01*
X114182094Y-144096074D01*
X114182094Y-144376532D01*
X114740365Y-144376532D01*
X114740365Y-144098720D01*
X114459907Y-144098720D01*
X114459907Y-143818261D01*
X114740365Y-143818261D01*
X114740365Y-144096074D01*
X115020823Y-144096074D01*
X115020823Y-144376532D01*
X115298635Y-144376532D01*
X115298635Y-143820907D01*
X115020823Y-143820907D01*
X115020823Y-143815614D01*
X115301281Y-143815614D01*
X115856906Y-143815614D01*
X115856906Y-143540447D01*
X115851615Y-143540447D01*
X115851615Y-143537802D01*
X115301281Y-143537802D01*
X115301281Y-143815614D01*
X115020823Y-143815614D01*
X115020823Y-143259990D01*
X115298635Y-143259990D01*
X115298635Y-142979531D01*
X115576448Y-142979531D01*
X115576448Y-143257344D01*
X115854260Y-143257344D01*
X115854260Y-143537802D01*
X116132072Y-143537802D01*
X116132072Y-143257344D01*
X116412530Y-143257344D01*
X116412530Y-142699074D01*
X116692988Y-142699074D01*
X116692988Y-143540448D01*
X116132072Y-143540448D01*
X116132072Y-144093427D01*
X116129427Y-144093427D01*
X115859551Y-144093427D01*
X115859551Y-144371239D01*
X116137364Y-144371239D01*
X116137364Y-144096074D01*
X116409884Y-144096074D01*
X116409884Y-143818261D01*
X116690342Y-143818261D01*
X116690342Y-144098720D01*
X116412530Y-144098720D01*
X116412530Y-145215261D01*
X117248613Y-145215261D01*
X117248613Y-144940095D01*
X116690342Y-144940095D01*
X116690342Y-144926865D01*
X117259198Y-144926865D01*
X117259198Y-144932156D01*
X117817469Y-144932156D01*
X117817469Y-144654344D01*
X117539656Y-144654344D01*
X117539656Y-144373886D01*
X117259198Y-144373886D01*
X117259198Y-144926865D01*
X116690342Y-144926865D01*
X116690342Y-144379178D01*
X116970800Y-144379178D01*
X116970800Y-144093427D01*
X117539656Y-144093427D01*
X118375739Y-144093427D01*
X118375739Y-143257344D01*
X118373093Y-143257344D01*
X117539656Y-143257344D01*
X117539656Y-144093427D01*
X116970800Y-144093427D01*
X116970800Y-143820907D01*
X117251258Y-143820907D01*
X117251258Y-143543095D01*
X116970800Y-143543095D01*
X116970800Y-142423907D01*
X117251258Y-142423907D01*
X117251258Y-142984824D01*
X117531716Y-142984824D01*
X117531716Y-142423907D01*
X117809529Y-142423907D01*
X117809529Y-142984824D01*
X118087341Y-142984824D01*
X118087341Y-142148741D01*
X117248612Y-142148741D01*
X117248612Y-141868282D01*
X119206529Y-141868282D01*
X119206529Y-142148741D01*
X118928716Y-142148741D01*
X118928716Y-142429199D01*
X118648258Y-142429199D01*
X118648258Y-142707011D01*
X119203883Y-142707011D01*
X119203883Y-142426553D01*
X119764799Y-142426553D01*
X119764799Y-142987470D01*
X119484341Y-142987470D01*
X119484341Y-142707010D01*
X119206529Y-142707010D01*
X119206529Y-142987469D01*
X118645612Y-142987469D01*
X118645612Y-143265281D01*
X118926071Y-143265281D01*
X118926071Y-143543093D01*
X119203883Y-143543093D01*
X119203883Y-143818261D01*
X118653551Y-143818261D01*
X118653551Y-144093428D01*
X118934010Y-144093428D01*
X118934010Y-144376532D01*
X118653552Y-144376532D01*
X118653552Y-144654344D01*
X118934010Y-144654344D01*
X118934010Y-144934802D01*
X119214469Y-144934802D01*
X119214469Y-145215261D01*
X119492281Y-145215261D01*
X119492281Y-144656990D01*
X119211823Y-144656990D01*
X119211823Y-144376531D01*
X119492281Y-144376531D01*
X119492281Y-144373885D01*
X119492281Y-144096073D01*
X119211823Y-144096073D01*
X119211823Y-143820906D01*
X119481695Y-143820906D01*
X119481695Y-143543093D01*
X119762154Y-143543093D01*
X119762154Y-145501010D01*
X119203883Y-145501010D01*
X119203883Y-145220552D01*
X118653552Y-145220552D01*
X118645612Y-145220552D01*
X118645612Y-145498364D01*
X118926071Y-145498364D01*
X118926071Y-145778822D01*
X119206530Y-145778822D01*
X119206530Y-146056634D01*
X119484342Y-146056634D01*
X119484342Y-145778822D01*
X119762154Y-145778822D01*
X119762154Y-146337093D01*
X119484342Y-146337093D01*
X119484342Y-146617551D01*
X119203883Y-146617551D01*
X119203883Y-146059280D01*
X118926071Y-146059280D01*
X118926071Y-146898009D01*
X118642966Y-146898009D01*
X118642966Y-145781468D01*
X118362509Y-145781468D01*
X118362509Y-145503655D01*
X118095281Y-145503655D01*
X118084696Y-145503655D01*
X118084696Y-145784114D01*
X117817468Y-145784114D01*
X117526425Y-145784114D01*
X117526425Y-146609614D01*
X117256552Y-146609614D01*
X117256552Y-146887427D01*
X117537010Y-146887427D01*
X117537010Y-146620197D01*
X117804237Y-146620197D01*
X117804237Y-146061926D01*
X118082050Y-146061926D01*
X118082050Y-146339738D01*
X118362508Y-146339738D01*
X118362508Y-146890073D01*
X117537010Y-146890073D01*
X117537010Y-147167885D01*
X117814822Y-147167885D01*
X117814822Y-147448344D01*
X118092634Y-147448344D01*
X118092634Y-147167885D01*
X118373093Y-147167885D01*
X118373093Y-146898009D01*
X118640320Y-146898009D01*
X118640320Y-147170531D01*
X118373093Y-147170531D01*
X118373093Y-147448344D01*
X118375739Y-147448344D01*
X118653551Y-147448344D01*
X118653551Y-147178468D01*
X119479049Y-147178468D01*
X119479049Y-146898009D01*
X119759507Y-146898009D01*
X119759507Y-147739384D01*
X119479049Y-147739384D01*
X119479049Y-147458926D01*
X118640320Y-147458926D01*
X118640320Y-147736739D01*
X118920778Y-147736739D01*
X118920778Y-148014551D01*
X119198590Y-148014551D01*
X119198590Y-148297655D01*
X118918132Y-148297655D01*
X118918132Y-148855926D01*
X118635028Y-148855926D01*
X118635028Y-148017197D01*
X118076757Y-148017197D01*
X118076757Y-148575468D01*
X118357215Y-148575468D01*
X118357215Y-148855926D01*
X117796298Y-148855926D01*
X117796298Y-148014551D01*
X118071465Y-148014551D01*
X118071465Y-148006613D01*
X118074111Y-147736738D01*
X117796299Y-147736738D01*
X117796299Y-147456280D01*
X116960215Y-147456280D01*
X116960215Y-147736738D01*
X116679757Y-147736738D01*
X116679757Y-147456280D01*
X116401945Y-147456280D01*
X116401945Y-147175822D01*
X116960216Y-147175822D01*
X116960216Y-146059281D01*
X116679758Y-146059281D01*
X116679758Y-145778822D01*
X117238029Y-145778822D01*
X117238029Y-145501010D01*
X116401945Y-145501010D01*
X116401945Y-145781468D01*
X116121487Y-145781468D01*
X116121487Y-146056635D01*
X116401945Y-146056635D01*
X116401945Y-146617552D01*
X115841028Y-146617552D01*
X115841028Y-146895364D01*
X116121486Y-146895364D01*
X116121486Y-147175822D01*
X115581739Y-147175822D01*
X115565861Y-147175822D01*
X115565861Y-148011905D01*
X115285403Y-148011905D01*
X115285403Y-147173176D01*
X115563215Y-147173176D01*
X115563215Y-146617551D01*
X115282757Y-146617551D01*
X115282757Y-146337093D01*
X114724486Y-146337093D01*
X114724486Y-146617551D01*
X113885757Y-146617551D01*
X113885757Y-146895363D01*
X114444028Y-146895363D01*
X114444028Y-147175822D01*
X114721840Y-147175822D01*
X114721840Y-146895363D01*
X115004944Y-146895363D01*
X115004944Y-147736738D01*
X114740364Y-147736738D01*
X114724486Y-147736738D01*
X114724486Y-148011905D01*
X115004944Y-148011905D01*
X115004944Y-148853280D01*
X114740364Y-148853280D01*
X114724486Y-148853280D01*
X114724486Y-149411551D01*
X115004944Y-149411551D01*
X115004944Y-149131093D01*
X115285403Y-149131093D01*
X115285403Y-149414197D01*
X115004944Y-149414197D01*
X115004944Y-149692009D01*
X115563215Y-149692009D01*
X115563215Y-149972468D01*
X115282757Y-149972468D01*
X115282757Y-150250280D01*
X114724486Y-150250280D01*
X114724486Y-150528093D01*
X115004944Y-150528093D01*
X115004944Y-150808551D01*
X115841028Y-150808551D01*
X115841028Y-151089010D01*
X114163570Y-151089010D01*
X114163570Y-150528093D01*
X114444027Y-150528093D01*
X114444027Y-150247635D01*
X114724486Y-150247635D01*
X114724486Y-149967177D01*
X115004944Y-149967177D01*
X115004944Y-149692010D01*
X114446673Y-149692010D01*
X114446673Y-149969823D01*
X114166215Y-149969823D01*
X114166215Y-150250281D01*
X113885757Y-150250281D01*
X113885757Y-149692010D01*
X114163569Y-149692010D01*
X114163569Y-149414198D01*
X114441382Y-149414198D01*
X114441382Y-149133739D01*
X114163569Y-149133739D01*
X114163569Y-148842697D01*
X114462552Y-148842697D01*
X114740364Y-148842697D01*
X114740364Y-148284427D01*
X114462552Y-148284427D01*
X114462552Y-148842697D01*
X114163569Y-148842697D01*
X114163569Y-148572823D01*
X113901635Y-148572823D01*
X113885757Y-148572823D01*
X113885757Y-148292364D01*
X113607944Y-148292364D01*
X113607944Y-148572822D01*
X113324840Y-148572822D01*
X113324840Y-148292364D01*
X113607944Y-148292364D01*
X113607944Y-148014552D01*
X113049673Y-148014552D01*
X113049673Y-148572822D01*
X112785093Y-148572822D01*
X112507281Y-148572822D01*
X112491403Y-148572822D01*
X112491403Y-148853281D01*
X112226823Y-148853281D01*
X112208298Y-148853281D01*
X112208298Y-148572822D01*
X111650028Y-148572822D01*
X111650028Y-148564885D01*
X112226823Y-148564885D01*
X112507281Y-148564885D01*
X112507281Y-148287073D01*
X112226823Y-148287073D01*
X112226823Y-148564885D01*
X111650028Y-148564885D01*
X111650028Y-148292364D01*
X111091757Y-148292364D01*
X111091757Y-148570177D01*
X111372215Y-148570177D01*
X111372215Y-148850635D01*
X110811302Y-148850635D01*
X110811302Y-148570177D01*
X110530844Y-148570177D01*
X110530844Y-147731448D01*
X110811302Y-147731448D01*
X110811302Y-147450990D01*
X111094406Y-147450990D01*
X111094406Y-148006614D01*
X110827177Y-148006614D01*
X110827177Y-148284427D01*
X111107635Y-148284427D01*
X111107635Y-148009260D01*
X111652677Y-148009260D01*
X111652677Y-148006614D01*
X111946364Y-148006614D01*
X111946364Y-148284427D01*
X112226823Y-148284427D01*
X112226823Y-148006614D01*
X112785093Y-148006614D01*
X112785093Y-148003969D01*
X113901635Y-148003969D01*
X113901635Y-148284427D01*
X113904281Y-148284427D01*
X114459906Y-148284427D01*
X114459906Y-147726156D01*
X114182093Y-147726156D01*
X114182093Y-148003969D01*
X113901635Y-148003969D01*
X112785093Y-148003969D01*
X112785093Y-147734094D01*
X113047031Y-147734094D01*
X113047031Y-147458927D01*
X112769218Y-147458927D01*
X112769218Y-147731448D01*
X112226823Y-147731448D01*
X112226823Y-147998677D01*
X112226823Y-148006614D01*
X112218885Y-148006614D01*
X112216239Y-148006614D01*
X111946364Y-148006614D01*
X111652677Y-148006614D01*
X111652677Y-147734094D01*
X111372219Y-147734094D01*
X111372219Y-147173177D01*
X111652677Y-147173177D01*
X111652677Y-147453636D01*
X111930489Y-147453636D01*
X111930489Y-147734094D01*
X112208302Y-147734094D01*
X112208302Y-147453636D01*
X112769218Y-147453636D01*
X112769218Y-147450989D01*
X113343364Y-147450989D01*
X113343364Y-147728802D01*
X113901635Y-147728802D01*
X113901635Y-147718219D01*
X114462552Y-147718219D01*
X114462552Y-147728802D01*
X114740364Y-147728802D01*
X114740364Y-147450989D01*
X114462552Y-147450989D01*
X114462552Y-147718219D01*
X113901635Y-147718219D01*
X113901635Y-147450989D01*
X113626469Y-147450989D01*
X113343364Y-147450989D01*
X112769218Y-147450989D01*
X112769218Y-147443052D01*
X113065552Y-147443052D01*
X113065552Y-147448344D01*
X113343364Y-147448344D01*
X113343364Y-147170531D01*
X113346010Y-147170531D01*
X113626469Y-147170531D01*
X113626469Y-146892719D01*
X113346010Y-146892719D01*
X113346010Y-147170531D01*
X113343364Y-147170531D01*
X113065552Y-147170531D01*
X113065552Y-147443052D01*
X112769218Y-147443052D01*
X112769218Y-147178469D01*
X111927844Y-147178469D01*
X111927844Y-146617552D01*
X111943718Y-146609614D01*
X111943719Y-146609614D01*
X112224177Y-146609614D01*
X112224177Y-146329156D01*
X112507281Y-146329156D01*
X112507281Y-146612260D01*
X112226823Y-146612260D01*
X112226823Y-146890073D01*
X113343365Y-146890073D01*
X113343365Y-146609614D01*
X113623823Y-146609614D01*
X113623823Y-146331802D01*
X115581739Y-146331802D01*
X115581739Y-146601677D01*
X115581739Y-146609614D01*
X115856906Y-146609614D01*
X115856906Y-146331802D01*
X115854260Y-146331802D01*
X115581739Y-146331802D01*
X113623823Y-146331802D01*
X113623823Y-146329156D01*
X114182093Y-146329156D01*
X114182093Y-146051344D01*
X113904281Y-146051344D01*
X113904281Y-145773532D01*
X113626468Y-145773532D01*
X113626468Y-146051344D01*
X113343364Y-146051344D01*
X113343364Y-145770885D01*
X114179448Y-145770885D01*
X114179448Y-146046051D01*
X114182093Y-146046052D01*
X115298635Y-146046052D01*
X115579094Y-146046052D01*
X115854260Y-146046052D01*
X115854260Y-145770885D01*
X115579094Y-145770885D01*
X115579094Y-146046052D01*
X115298635Y-146046052D01*
X115298635Y-145768240D01*
X115576448Y-145768240D01*
X115576448Y-145490427D01*
X116134719Y-145490427D01*
X117539656Y-145490427D01*
X117817468Y-145490427D01*
X117817468Y-145212615D01*
X117817469Y-145212615D01*
X118095281Y-145212615D01*
X118375739Y-145212615D01*
X118653552Y-145212615D01*
X118653552Y-144934802D01*
X118375739Y-144934802D01*
X118375739Y-145212615D01*
X118095281Y-145212615D01*
X118095281Y-144934802D01*
X117817469Y-144934802D01*
X117817469Y-145212615D01*
X117817468Y-145212615D01*
X117814823Y-145212615D01*
X117539656Y-145212615D01*
X117539656Y-145490427D01*
X116134719Y-145490427D01*
X116134719Y-144651698D01*
X115856906Y-144651698D01*
X115020824Y-144651698D01*
X115020824Y-144929510D01*
X115301282Y-144929510D01*
X115301282Y-145490426D01*
X115020824Y-145490426D01*
X115020824Y-145770885D01*
X115020823Y-145770885D01*
X114737720Y-145770885D01*
X114737720Y-145493073D01*
X114740364Y-145493073D01*
X115020823Y-145493073D01*
X115020823Y-144934802D01*
X114740364Y-144934802D01*
X114740364Y-145493073D01*
X114737720Y-145493073D01*
X114737720Y-145490426D01*
X114459907Y-145490426D01*
X114459907Y-145770885D01*
X114459906Y-145770885D01*
X114179448Y-145770885D01*
X113343364Y-145770885D01*
X113343364Y-145493073D01*
X113065552Y-145493073D01*
X113065552Y-145773531D01*
X112785094Y-145773531D01*
X112785094Y-145493073D01*
X112224177Y-145493073D01*
X112224177Y-145209969D01*
X112504635Y-145209969D01*
X112504635Y-144932157D01*
X111943719Y-144932157D01*
X111943719Y-145493074D01*
X111388094Y-145493074D01*
X111107636Y-145493074D01*
X111107636Y-145773532D01*
X110827177Y-145773532D01*
X110827177Y-146048698D01*
X111107636Y-146048698D01*
X111107636Y-146329156D01*
X110827177Y-146329156D01*
X110827177Y-146606968D01*
X111107636Y-146606968D01*
X111107636Y-147167885D01*
X110544073Y-147167885D01*
X110544073Y-146887427D01*
X110824531Y-146887427D01*
X110824531Y-146609614D01*
X110544073Y-146609614D01*
X110544073Y-146329156D01*
X110824531Y-146329156D01*
X110824531Y-146051344D01*
X110544073Y-146051344D01*
X110544073Y-145212615D01*
X110824531Y-145212615D01*
X110824531Y-145493073D01*
X111104989Y-145493073D01*
X111104989Y-144934802D01*
X110544073Y-144934802D01*
X110544073Y-144932156D01*
X111110281Y-144932156D01*
X111388094Y-144932156D01*
X111388094Y-144654344D01*
X111110281Y-144654344D01*
X111110281Y-144932156D01*
X110544073Y-144932156D01*
X110544073Y-144654344D01*
X111104989Y-144654344D01*
X111104989Y-144376532D01*
X110544073Y-144376532D01*
X110544073Y-144093428D01*
X111943719Y-144093428D01*
X111943719Y-144376532D01*
X111665906Y-144376532D01*
X111665906Y-144654344D01*
X112501989Y-144654344D01*
X112501989Y-144376532D01*
X112221531Y-144376532D01*
X112221531Y-144093428D01*
X112782448Y-144093428D01*
X112782448Y-143815615D01*
X113062906Y-143815615D01*
X113062906Y-142699074D01*
X112782448Y-142699074D01*
X112782448Y-142138157D01*
X113054969Y-142138157D01*
X113060260Y-142132865D01*
X113060260Y-141860345D01*
X113340719Y-141860345D01*
X113340719Y-142140803D01*
G37*
G36*
X115563215Y-150250280D02*
G01*
X115563215Y-150530738D01*
X115282757Y-150530738D01*
X115282757Y-150250280D01*
X115563215Y-150250280D01*
G37*
G36*
X116970800Y-142423907D02*
G01*
X116690342Y-142423907D01*
X116690342Y-142143449D01*
X116970800Y-142143449D01*
X116970800Y-142423907D01*
G37*
G36*
X112785093Y-147734094D02*
G01*
X112769218Y-147734094D01*
X112769218Y-147731448D01*
X112785093Y-147731448D01*
X112785093Y-147734094D01*
G37*
G36*
X114462552Y-142135510D02*
G01*
X114740364Y-142138156D01*
X114740364Y-142415968D01*
X114459906Y-142418614D01*
X114459906Y-142138156D01*
X114182093Y-142138156D01*
X114182093Y-142418614D01*
X113904281Y-142418614D01*
X113904281Y-142696427D01*
X113623823Y-142696427D01*
X113623823Y-142135510D01*
X113901635Y-142135510D01*
X113901635Y-141857698D01*
X114462552Y-141857698D01*
X114462552Y-142135510D01*
G37*
D12*
X106604819Y-136238094D02*
X105604819Y-136238094D01*
X105604819Y-136238094D02*
X105604819Y-135999999D01*
X105604819Y-135999999D02*
X105652438Y-135857142D01*
X105652438Y-135857142D02*
X105747676Y-135761904D01*
X105747676Y-135761904D02*
X105842914Y-135714285D01*
X105842914Y-135714285D02*
X106033390Y-135666666D01*
X106033390Y-135666666D02*
X106176247Y-135666666D01*
X106176247Y-135666666D02*
X106366723Y-135714285D01*
X106366723Y-135714285D02*
X106461961Y-135761904D01*
X106461961Y-135761904D02*
X106557200Y-135857142D01*
X106557200Y-135857142D02*
X106604819Y-135999999D01*
X106604819Y-135999999D02*
X106604819Y-136238094D01*
X106509580Y-134666666D02*
X106557200Y-134714285D01*
X106557200Y-134714285D02*
X106604819Y-134857142D01*
X106604819Y-134857142D02*
X106604819Y-134952380D01*
X106604819Y-134952380D02*
X106557200Y-135095237D01*
X106557200Y-135095237D02*
X106461961Y-135190475D01*
X106461961Y-135190475D02*
X106366723Y-135238094D01*
X106366723Y-135238094D02*
X106176247Y-135285713D01*
X106176247Y-135285713D02*
X106033390Y-135285713D01*
X106033390Y-135285713D02*
X105842914Y-135238094D01*
X105842914Y-135238094D02*
X105747676Y-135190475D01*
X105747676Y-135190475D02*
X105652438Y-135095237D01*
X105652438Y-135095237D02*
X105604819Y-134952380D01*
X105604819Y-134952380D02*
X105604819Y-134857142D01*
X105604819Y-134857142D02*
X105652438Y-134714285D01*
X105652438Y-134714285D02*
X105700057Y-134666666D01*
X106604819Y-133714285D02*
X106604819Y-134285713D01*
X106604819Y-133999999D02*
X105604819Y-133999999D01*
X105604819Y-133999999D02*
X105747676Y-134095237D01*
X105747676Y-134095237D02*
X105842914Y-134190475D01*
X105842914Y-134190475D02*
X105890533Y-134285713D01*
%TO.C,H6*%
D13*
X106540000Y-121350000D02*
X106540000Y-108650000D01*
X104000000Y-121350000D02*
X103990000Y-118810000D01*
X103990000Y-118810000D02*
X106540000Y-118810000D01*
X101460000Y-121350000D02*
X101460000Y-108650000D01*
X101460000Y-121350000D02*
X106540000Y-121350000D01*
X101460000Y-108650000D02*
X106540000Y-108650000D01*
D14*
X106530000Y-121350000D02*
G75*
G02*
X106470000Y-121350000I-30000J0D01*
G01*
X106470000Y-121350000D02*
G75*
G02*
X106530000Y-121350000I30000J0D01*
G01*
%TO.C,H5*%
D13*
X106540000Y-152350000D02*
X106540000Y-139650000D01*
X104000000Y-152350000D02*
X103990000Y-149810000D01*
X103990000Y-149810000D02*
X106540000Y-149810000D01*
X101460000Y-152350000D02*
X101460000Y-139650000D01*
X101460000Y-152350000D02*
X106540000Y-152350000D01*
X101460000Y-139650000D02*
X106540000Y-139650000D01*
D14*
X106530000Y-152350000D02*
G75*
G02*
X106470000Y-152350000I-30000J0D01*
G01*
X106470000Y-152350000D02*
G75*
G02*
X106530000Y-152350000I30000J0D01*
G01*
%TO.C,H4*%
D13*
X123460000Y-139650000D02*
X123460000Y-152350000D01*
X126000000Y-139650000D02*
X126010000Y-142190000D01*
X126010000Y-142190000D02*
X123460000Y-142190000D01*
X128540000Y-139650000D02*
X128540000Y-152350000D01*
X128540000Y-139650000D02*
X123460000Y-139650000D01*
X128540000Y-152350000D02*
X123460000Y-152350000D01*
D14*
X123530000Y-139650000D02*
G75*
G02*
X123470000Y-139650000I-30000J0D01*
G01*
X123470000Y-139650000D02*
G75*
G02*
X123530000Y-139650000I30000J0D01*
G01*
%TO.C,H3*%
D13*
X123460000Y-108650000D02*
X123460000Y-121350000D01*
X126000000Y-108650000D02*
X126010000Y-111190000D01*
X126010000Y-111190000D02*
X123460000Y-111190000D01*
X128540000Y-108650000D02*
X128540000Y-121350000D01*
X128540000Y-108650000D02*
X123460000Y-108650000D01*
X128540000Y-121350000D02*
X123460000Y-121350000D01*
D14*
X123530000Y-108650000D02*
G75*
G02*
X123470000Y-108650000I-30000J0D01*
G01*
X123470000Y-108650000D02*
G75*
G02*
X123530000Y-108650000I30000J0D01*
G01*
%TO.C,H2*%
D13*
X121350000Y-153460000D02*
X108650000Y-153460000D01*
X121350000Y-156000000D02*
X118810000Y-156010000D01*
X118810000Y-156010000D02*
X118810000Y-153460000D01*
X121350000Y-158540000D02*
X108650000Y-158540000D01*
X121350000Y-158540000D02*
X121350000Y-153460000D01*
X108650000Y-158540000D02*
X108650000Y-153460000D01*
D14*
X121380000Y-153500000D02*
G75*
G02*
X121320000Y-153500000I-30000J0D01*
G01*
X121320000Y-153500000D02*
G75*
G02*
X121380000Y-153500000I30000J0D01*
G01*
%TO.C,H1*%
D13*
X108650000Y-106540000D02*
X121350000Y-106540000D01*
X108650000Y-104000000D02*
X111190000Y-103990000D01*
X111190000Y-103990000D02*
X111190000Y-106540000D01*
X108650000Y-101460000D02*
X121350000Y-101460000D01*
X108650000Y-101460000D02*
X108650000Y-106540000D01*
X121350000Y-101460000D02*
X121350000Y-106540000D01*
D14*
X108680000Y-106500000D02*
G75*
G02*
X108620000Y-106500000I-30000J0D01*
G01*
X108620000Y-106500000D02*
G75*
G02*
X108680000Y-106500000I30000J0D01*
G01*
%TO.C,DC1*%
D13*
X110210000Y-137130000D02*
X110210000Y-138810000D01*
X110210000Y-138810000D02*
X112840000Y-138810000D01*
X116860000Y-138810000D02*
X119490000Y-138810000D01*
X119490000Y-138810000D02*
X119490000Y-124200000D01*
X119490000Y-124200000D02*
X110210000Y-124200000D01*
X110210000Y-124200000D02*
X110210000Y-132870000D01*
D14*
X119380000Y-138700000D02*
G75*
G02*
X119320000Y-138700000I-30000J0D01*
G01*
X119320000Y-138700000D02*
G75*
G02*
X119380000Y-138700000I30000J0D01*
G01*
%TD*%
M02*
