M48
; DRILL file KiCad 10.0.4 date 2026-07-23T15:45:33
; FORMAT={-:-/ absolute / metric / decimal}
; #@! TF.CreationDate,2026-07-23T15:45:33-06:00
; #@! TF.GenerationSoftware,Kicad,Pcbnew,10.0.4
; #@! TF.FileFunction,Plated,1,2,PTH
FMAT,2
METRIC
; #@! TA.AperFunction,Plated,PTH,ViaDrill
T1C0.300
; #@! TA.AperFunction,Plated,PTH,ComponentDrill
T2C1.000
; #@! TA.AperFunction,Plated,PTH,ComponentDrill
T3C1.020
%
G90
G05
T1
X115.0Y-112.5
X117.87Y-146.0
X120.0Y-115.0
X120.0Y-139.8
T3
X102.73Y-109.92
X102.73Y-112.46
X102.73Y-115.0
X102.73Y-117.54
X102.73Y-120.08
X102.73Y-140.92
X102.73Y-143.46
X102.73Y-146.0
X102.73Y-148.54
X102.73Y-151.08
X105.27Y-109.92
X105.27Y-112.46
X105.27Y-115.0
X105.27Y-117.54
X105.27Y-120.08
X105.27Y-140.92
X105.27Y-143.46
X105.27Y-146.0
X105.27Y-148.54
X105.27Y-151.08
X109.92Y-102.73
X109.92Y-105.27
X109.92Y-154.73
X109.92Y-157.27
X112.46Y-102.73
X112.46Y-105.27
X112.46Y-154.73
X112.46Y-157.27
X115.0Y-102.73
X115.0Y-105.27
X115.0Y-154.73
X115.0Y-157.27
X117.54Y-102.73
X117.54Y-105.27
X117.54Y-154.73
X117.54Y-157.27
X120.08Y-102.73
X120.08Y-105.27
X120.08Y-154.73
X120.08Y-157.27
X124.73Y-109.92
X124.73Y-112.46
X124.73Y-115.0
X124.73Y-117.54
X124.73Y-120.08
X124.73Y-140.92
X124.73Y-143.46
X124.73Y-146.0
X124.73Y-148.54
X124.73Y-151.08
X127.27Y-109.92
X127.27Y-112.46
X127.27Y-115.0
X127.27Y-117.54
X127.27Y-120.08
X127.27Y-140.92
X127.27Y-143.46
X127.27Y-146.0
X127.27Y-148.54
X127.27Y-151.08
T2
G00X110.15Y-136.0
M15
G01X110.15Y-134.0
M16
G05
G00X113.85Y-132.0
M15
G01X115.85Y-132.0
M16
G05
G00X113.6Y-138.0
M15
G01X116.1Y-138.0
M16
G05
M30
