M48
; DRILL file KiCad 10.0.4 date 2026-07-23T21:09:27
; FORMAT={-:-/ absolute / metric / decimal}
; #@! TF.CreationDate,2026-07-23T21:09:27-06:00
; #@! TF.GenerationSoftware,Kicad,Pcbnew,10.0.4
; #@! TF.FileFunction,Plated,1,2,PTH
FMAT,2
METRIC
; #@! TA.AperFunction,Plated,PTH,ViaDrill
T1C0.300
; #@! TA.AperFunction,Plated,PTH,ComponentDrill
T2C1.020
%
G90
G05
T1
X93.75Y-155.75
X99.5Y-124.75
X99.5Y-137.0
X105.5Y-155.75
T2
X93.73Y-109.92
X93.73Y-112.46
X93.73Y-115.0
X93.73Y-117.54
X93.73Y-120.08
X93.73Y-140.92
X93.73Y-143.46
X93.73Y-146.0
X93.73Y-148.54
X93.73Y-151.08
X96.27Y-109.92
X96.27Y-112.46
X96.27Y-115.0
X96.27Y-117.54
X96.27Y-120.08
X96.27Y-140.92
X96.27Y-143.46
X96.27Y-146.0
X96.27Y-148.54
X96.27Y-151.08
X102.73Y-109.92
X102.73Y-112.46
X102.73Y-115.0
X102.73Y-117.54
X102.73Y-120.08
X102.73Y-140.92
X102.73Y-143.46
X102.73Y-146.0
X102.73Y-148.54
X102.73Y-151.08
X105.27Y-109.92
X105.27Y-112.46
X105.27Y-115.0
X105.27Y-117.54
X105.27Y-120.08
X105.27Y-140.92
X105.27Y-143.46
X105.27Y-146.0
X105.27Y-148.54
X105.27Y-151.08
M30
